<?xml version="1.0" standalone="no"?>
<!DOCTYPE svg PUBLIC "-//W3C//DTD SVG 1.1//EN" "http://www.w3.org/Graphics/SVG/1.1/DTD/svg11.dtd" >
<svg xmlns="http://www.w3.org/2000/svg" xmlns:xlink="http://www.w3.org/1999/xlink" version="1.1">
<metadata>
Created by FontForge 20170731 at Wed Mar 26 06:22:55 2014
 By Aleksey,,,
Copyright c 2014 Pocheon-si. All rights reserved.
This Font Software is protected by copyright laws of Korea, international copyright treaties. It may not be reproduced, copied, distributed, resold, rented, transferred without the written expression of Pocheon-si &#38;Yoondesign Inc.
</metadata>
<defs>
<font id="OSeongandHanEum-Bold" horiz-adv-x="920" >
  <font-face 
    font-family="OSeong and HanEum Bold"
    font-weight="700"
    font-stretch="normal"
    units-per-em="1000"
    panose-1="2 11 8 3 0 0 0 0 0 0"
    ascent="800"
    descent="-200"
    x-height="550"
    cap-height="770"
    bbox="-101.525 -217.333 1034.56 932"
    underline-thickness="40"
    underline-position="-260"
    unicode-range="U+000D-FFE6"
  />
<missing-glyph 
d="M865 -86q0 -19 -20 -19h-694q-50 0 -73 22t-23 73v796q0 19 20 19h770q20 0 20 -19v-872zM462 399l286 344h-573zM135 690v-684l285 342zM179 -43h566l-283 339zM785 11v674l-281 -337z" />
    <glyph glyph-name=".notdef" 
d="M865 -86q0 -19 -20 -19h-694q-50 0 -73 22t-23 73v796q0 19 20 19h770q20 0 20 -19v-872zM462 399l286 344h-573zM135 690v-684l285 342zM179 -43h566l-283 339zM785 11v674l-281 -337z" />
    <glyph glyph-name="uni0000" horiz-adv-x="0" 
 />
    <glyph glyph-name="uni0000" horiz-adv-x="0" 
 />
    <glyph glyph-name="uni000D" unicode="&#xd;" horiz-adv-x="300" 
 />
    <glyph glyph-name="space" unicode=" " horiz-adv-x="300" 
 />
    <glyph glyph-name="exclam" unicode="!" horiz-adv-x="266" 
d="M204 420l-11 -142q-2 -36 -15.5 -60t-31.5 -24h-48q-10 0 -17 6t-7 18l-12 202v309q0 35 22 52.5t49 17.5t49 -17.5t22 -52.5v-309zM43 48q0 18 7 34t19 28.5t28.5 19.5t35.5 7t35.5 -7t28.5 -19.5t19 -28.5t7 -34t-7 -34t-19 -28.5t-28.5 -19.5t-35.5 -7t-35.5 7
t-28.5 19.5t-19 28.5t-7 34z" />
    <glyph glyph-name="quotedbl" unicode="&#x22;" horiz-adv-x="338" 
d="M43 809q0 26 25 26h56q25 0 25 -26v-102q0 -74 -17.5 -104t-50.5 -30h-13q-25 0 -25 26v210zM189 809q0 26 25 26h56q25 0 25 -26v-102q0 -74 -17.5 -104t-50.5 -30h-13q-25 0 -25 26v210z" />
    <glyph glyph-name="numbersign" unicode="#" horiz-adv-x="773" 
d="M698 209q0 -26 -25 -26h-104l-19 -109q-8 -40 -23.5 -62t-38.5 -22h-48q-12 0 -20.5 6t-6.5 21l29 166h-183l-19 -109q-8 -40 -23.5 -62t-38.5 -22h-48q-12 0 -20.5 6t-6.5 21l29 166q-51 3 -74 18.5t-23 43.5v21q0 25 26 25h90l36 198q-59 1 -85.5 17t-26.5 45v21
q0 25 26 25h105l29 163q5 20 25 20h80q14 0 18 -6.5t2 -17.5l-28 -159h184l29 163q3 20 25 20h80q14 0 18 -6.5t2 -17.5l-28 -159h71q25 0 25 -26v-56q0 -26 -25 -26h-90l-35 -198h85q25 0 25 -26v-56zM278 291h183l36 198h-184z" />
    <glyph glyph-name="dollar" unicode="$" horiz-adv-x="610" 
d="M298 662q-34 0 -56.5 -6t-36 -16.5t-19 -24.5t-5.5 -31q0 -19 5 -33.5t17 -26.5t31.5 -22.5t48.5 -20.5l90 -33q44 -16 81 -40t63 -57t39 -75t8 -93q-7 -70 -56.5 -116t-134.5 -60v-2q0 -69 -18 -97t-50 -28h-43q-25 0 -25 26v97q-50 5 -97.5 18.5t-80.5 33.5
q-19 11 -24.5 30.5t1 36t24 25t44.5 -1.5q48 -19 91.5 -28t89.5 -9q64 0 104 25t40 76q0 41 -21.5 68t-69.5 45l-101 37q-45 16 -80.5 35t-60.5 44.5t-38 60.5t-13 85q0 74 50 121.5t142 60.5v83q0 26 25 26h86q25 0 25 -26v-86q34 -5 68.5 -14.5t61.5 -23.5q19 -10 25 -29
t0 -36t-22.5 -27t-40.5 -1q-41 15 -83.5 22.5t-83.5 7.5z" />
    <glyph glyph-name="uni0025" unicode="%" horiz-adv-x="915" 
d="M341 64q-22 -38 -41 -56t-39 -18h-65q-13 0 -19 9.5t1 21.5l430 743q4 7 11 11.5t15 4.5h84q14 0 20 -9.5t-1 -21.5zM25 565q0 51 14.5 91t40.5 67.5t63 42t81 14.5t80.5 -14.5t63 -42t41 -67.5t14.5 -91t-14.5 -91t-41 -67.5t-63 -42t-80.5 -14.5t-81 14.5t-63 42
t-40.5 67.5t-14.5 91zM291 565q0 59 -17.5 85t-49.5 26t-49.5 -26t-17.5 -85t17.5 -85t49.5 -26t49.5 26t17.5 85zM492 205q0 51 14.5 91t40.5 67.5t63 42t81 14.5t80.5 -14.5t63 -42t41 -67.5t14.5 -91t-14.5 -91t-41 -67.5t-63 -42t-80.5 -14.5t-81 14.5t-63 42
t-40.5 67.5t-14.5 91zM758 205q0 59 -17.5 85t-49.5 26t-49.5 -26t-17.5 -85t17.5 -85t49.5 -26t49.5 26t17.5 85z" />
    <glyph glyph-name="ampersand" unicode="&#x26;" horiz-adv-x="730" 
d="M387 390l129 -136l38 48q11 14 25 14h85q20 0 23.5 -12t-5.5 -23l-87 -111l121 -129q11 -11 8 -26t-23 -15h-69q-20 0 -42.5 11t-56.5 46l-17 18q-48 -45 -104.5 -65t-127.5 -20q-54 0 -99.5 17.5t-79 46.5t-52 68t-18.5 81q0 29 6.5 57.5t23.5 56t46.5 54t75.5 52.5l2 1
q-40 46 -54 89.5t-14 86.5q0 38 16 71t44 57t66.5 38t84.5 14t84.5 -14t66.5 -38t44 -57t16 -71q0 -60 -35 -111.5t-98 -85.5zM284 97q33 -1 76 10.5t79 49.5l-162 173l-41 -22q-36 -19 -50.5 -44.5t-14.5 -60.5q0 -17 8 -35.5t22.5 -34t35.5 -26t47 -10.5zM257 600
q0 -27 10 -54t33 -59l29 17q35 20 56.5 40t21.5 56q0 34 -19 53.5t-56 19.5q-38 0 -56.5 -20t-18.5 -53z" />
    <glyph glyph-name="quotesingle" unicode="'" horiz-adv-x="214" 
d="M54 809q0 26 25 26h56q25 0 25 -26v-102q0 -74 -17.5 -104t-50.5 -30h-13q-25 0 -25 26v210z" />
    <glyph glyph-name="parenleft" unicode="(" horiz-adv-x="358" 
d="M225 297q0 -48 4 -93.5t15 -90.5t30 -90.5t48 -94.5q13 -21 7 -39t-21 -27t-34.5 -7t-34.5 20q-75 94 -112.5 200.5t-37.5 221.5v108q0 115 37.5 221.5t112.5 200.5q15 18 34.5 20t34.5 -7t21 -27t-7 -39q-29 -49 -48 -94.5t-30 -90.5t-15 -90.5t-4 -93.5v-108z" />
    <glyph glyph-name="parenright" unicode=")" horiz-adv-x="358" 
d="M133 405q0 48 -4 93.5t-15 90.5t-30 90.5t-48 94.5q-13 21 -7 39t21 27t34.5 7t34.5 -20q75 -94 112.5 -200.5t37.5 -221.5v-108q0 -115 -37.5 -221.5t-112.5 -200.5q-15 -18 -34.5 -20t-34.5 7t-21 27t7 39q29 49 48 94.5t30 90.5t15 90.5t4 93.5v108z" />
    <glyph glyph-name="asterisk" unicode="*" horiz-adv-x="488" 
d="M159 652l-21 7l-45 23q-19 10 -20 29t8.5 35t26 24t34.5 -3l43 -27l15 -14l-3 26l-2 56q-1 16 14.5 24.5t34.5 8.5t34.5 -8.5t14.5 -24.5l-2 -56l-4 -27l17 15l43 27q18 11 34.5 3t26 -24t8.5 -35t-20 -29l-45 -23l-22 -7l23 -7l45 -24q18 -9 19.5 -27.5t-8 -35
t-26.5 -25t-35 2.5l-42 28l-18 16l4 -28l2 -56q1 -16 -14.5 -24.5t-34.5 -8.5t-34.5 8t-14.5 25l2 56l3 27l-16 -15l-42 -28q-18 -11 -35 -2.5t-26.5 25t-8 35t19.5 27.5l45 24z" />
    <glyph glyph-name="plus" unicode="+" horiz-adv-x="622" 
d="M242 341h-89q-62 0 -90 16t-28 46v21q0 25 26 25h181v191q0 26 25 26h86q25 0 25 -26v-191h184q25 0 25 -26v-56q0 -26 -25 -26h-184v-92q0 -74 -17.5 -104t-50.5 -30h-43q-25 0 -25 26v200z" />
    <glyph glyph-name="comma" unicode="," horiz-adv-x="276" 
d="M23 48q0 18 7 34t19 28.5t28.5 19.5t35.5 7q40 0 65 -28t25 -65v-9q0 -57 -20.5 -107t-57.5 -80q-14 -12 -28 -12.5t-22.5 6t-10 17.5t9.5 23q11 11 21.5 33t11.5 45q-39 3 -61.5 28.5t-22.5 59.5z" />
    <glyph glyph-name="hyphen" unicode="-" horiz-adv-x="486" 
d="M451 367q0 -26 -25 -26h-273q-62 0 -90 16t-28 46v21q0 25 26 25h365q25 0 25 -26v-56z" />
    <glyph glyph-name="period" unicode="." horiz-adv-x="276" 
d="M23 48q0 18 7 34t19 28.5t28.5 19.5t35.5 7t35.5 -7t28.5 -19.5t19 -28.5t7 -34t-7 -34t-19 -28.5t-28.5 -19.5t-35.5 -7t-35.5 7t-28.5 19.5t-19 28.5t-7 34z" />
    <glyph glyph-name="slash" unicode="/" horiz-adv-x="436" 
d="M24 -50q-13 0 -19 8t-2 19l297 819q5 14 22 14h90q14 0 19.5 -9t0.5 -20l-274 -757q-13 -35 -29 -54.5t-35 -19.5h-70z" />
    <glyph glyph-name="zero" unicode="0" horiz-adv-x="594" 
d="M569 385q0 -94 -18 -167.5t-52.5 -124t-85.5 -77t-116 -26.5q-131 0 -201.5 103.5t-70.5 291.5q0 94 18 167.5t52.5 124t85.5 77t116 26.5t116 -26.5t85.5 -77t52.5 -124t18 -167.5zM161 385q0 -148 34 -218t102 -70t102 70t34 218t-34 218t-102 70t-102 -70t-34 -218z
" />
    <glyph glyph-name="one" unicode="1" horiz-adv-x="594" 
d="M287 0q-25 0 -25 26v570l-58 -38q-24 -15 -45.5 -10t-33 21t-8.5 38t29 42l146 111q6 5 11.5 7.5t13.5 2.5h56q25 0 25 -26v-610q0 -74 -17.5 -104t-50.5 -30h-43v0z" />
    <glyph glyph-name="two" unicode="2" horiz-adv-x="594" 
d="M87 0q-15 0 -25 10t-10 24v43q0 8 4.5 16t9.5 14l191 202q71 75 107.5 133.5t36.5 118.5q0 49 -29.5 78.5t-79.5 32.5q-46 3 -83 -11t-70 -29q-26 -12 -44.5 -4.5t-26.5 23.5t-4 35.5t25 33.5q41 26 95 43t108 17q58 0 104 -16t77 -45t47.5 -69.5t16.5 -88.5
q0 -82 -34 -150.5t-90 -126.5l-166 -176h279q25 0 25 -26v-56q0 -26 -25 -26h-439z" />
    <glyph glyph-name="three" unicode="3" horiz-adv-x="594" 
d="M281 98q28 0 53.5 8.5t44 24.5t29.5 39.5t11 54.5q0 67 -41 97.5t-121 30.5h-22q-45 0 -64 17.5t-19 44.5v21q0 25 26 25h85q60 0 93 31.5t33 84.5q0 49 -31.5 72t-79.5 23q-21 0 -38 -1.5t-33.5 -5t-34 -9t-39.5 -13.5q-24 -9 -42.5 -1t-26 24t-2 36t29.5 34
q17 10 40.5 18t49 14t51 9t45.5 3q119 0 183 -52t64 -146q0 -62 -34.5 -107t-94.5 -63q71 -16 115 -64.5t44 -127.5q0 -52 -19.5 -94.5t-55.5 -72.5t-86.5 -46.5t-112.5 -16.5q-60 0 -113.5 12t-99.5 38q-22 12 -27 31.5t2.5 36t26 24.5t44.5 -2q45 -18 83 -25t84 -7z" />
    <glyph glyph-name="four" unicode="4" horiz-adv-x="594" 
d="M55 165q-18 0 -29 10.5t-11 26.5v31q0 18 10 31l342 491q10 15 26 15h64q25 0 25 -26v-471h82q25 0 25 -26v-56q0 -26 -25 -26h-82v-31q0 -74 -17.5 -104t-50.5 -30h-43q-25 0 -25 26v139h-291zM164 273h182v265z" />
    <glyph glyph-name="five" unicode="5" horiz-adv-x="594" 
d="M268 98q34 0 60.5 11.5t44.5 32t27 47.5t9 58q0 65 -36 106t-105 45q-16 1 -35 1t-39 -1t-39.5 -2.5t-36.5 -3.5q-11 -2 -20 3.5t-9 19.5l11 324q1 25 26 25h357q25 0 25 -26v-56q0 -26 -25 -26h-250l-7 -154q8 2 20 3t22 1q52 0 102 -14t89 -45t62.5 -80.5t23.5 -119.5
q0 -55 -18.5 -102t-53.5 -81.5t-87 -54t-118 -19.5q-52 0 -95 10.5t-85 31.5q-25 13 -32 33.5t0 37.5t26.5 25.5t48.5 -3.5q37 -15 66.5 -21t70.5 -6z" />
    <glyph glyph-name="six" unicode="6" horiz-adv-x="594" 
d="M419 698q-56 -23 -95 -51.5t-65.5 -59.5t-41.5 -62.5t-22 -61.5q17 11 44 21t71 10q48 0 93 -15t79.5 -45.5t55 -78.5t20.5 -114q0 -58 -18 -104.5t-51 -79t-80 -50t-105 -17.5q-54 0 -102 18.5t-83.5 57.5t-56 99t-20.5 143q0 55 7 103t23 90q17 45 45.5 91t68 85.5
t89.5 69.5t110 45q28 7 43.5 -4t19.5 -28.5t-3.5 -36t-25.5 -25.5zM422 242q0 67 -31 105.5t-85 38.5q-20 0 -39.5 -5.5t-36.5 -14t-30.5 -19t-20.5 -21.5q-2 -8 -2 -23v-23q0 -85 34 -133.5t90 -48.5q61 0 91 38.5t30 105.5z" />
    <glyph glyph-name="seven" unicode="7" horiz-adv-x="594" 
d="M543 718q0 -17 -7 -32l-261 -623q-17 -37 -31 -50t-34 -13h-67q-15 0 -22.5 10t-0.5 24l254 622h-212q-62 0 -90 16t-28 46v21q0 25 26 25h443q30 0 30 -25v-21z" />
    <glyph glyph-name="eight" unicode="8" horiz-adv-x="594" 
d="M297 -16q-53 0 -101 16t-84.5 45.5t-58 70.5t-21.5 91q0 78 34.5 127.5t93.5 77.5q-45 22 -74 67t-29 106q0 42 17 78.5t48.5 63.5t76 43t98.5 16t98 -16t75.5 -43t49 -63.5t17.5 -78.5q0 -61 -29.5 -107t-73.5 -66q58 -24 93 -75.5t35 -129.5q0 -50 -21.5 -91t-58 -70.5
t-84.5 -45.5t-101 -16zM297 678q-27 0 -47 -8.5t-32.5 -23.5t-19 -34.5t-6.5 -41.5t6.5 -41.5t19.5 -34.5t32.5 -23.5t46.5 -8.5t46.5 8.5t32 23.5t19 34.5t6.5 41.5t-6 41.5t-19 34.5t-32.5 23.5t-46.5 8.5zM297 354q-32 0 -56.5 -11t-40.5 -29t-24 -41.5t-8 -49.5t8 -49.5
t24 -41.5t40 -29t57 -11t57 11t40 29t24 41.5t8 49.5t-8 49.5t-24 41.5t-40.5 29t-56.5 11z" />
    <glyph glyph-name="nine" unicode="9" horiz-adv-x="594" 
d="M181 72q55 23 94.5 51.5t66 59t42 62.5t22.5 62q-15 -11 -43.5 -21t-72.5 -10q-49 0 -94 15t-79 45.5t-54.5 78.5t-20.5 114q0 58 18 104.5t51 79t80 50t105 17.5t106.5 -19t83 -58t53.5 -99t19 -142q0 -55 -7 -103t-23 -90q-17 -45 -45.5 -91t-67.5 -85.5t-89 -69.5
t-109 -45q-28 -7 -44.5 4t-21 28t2.5 35.5t27 26.5zM178 528q0 -67 30.5 -105.5t85.5 -38.5q35 -1 68.5 13.5t54.5 39.5q3 6 4.5 19t1.5 21q2 100 -31 147.5t-93 47.5q-61 0 -91 -38.5t-30 -105.5z" />
    <glyph glyph-name="colon" unicode=":" horiz-adv-x="326" 
d="M73 184q0 18 7 34t19 28.5t28.5 19.5t35.5 7t35.5 -7t28.5 -19.5t19 -28.5t7 -34t-7 -34t-19 -28.5t-28.5 -19.5t-35.5 -7t-35.5 7t-28.5 19.5t-19 28.5t-7 34zM73 593q0 18 7 34t19 28.5t28.5 19.5t35.5 7t35.5 -7t28.5 -19.5t19 -28.5t7 -34t-7 -34t-19 -28.5
t-28.5 -19.5t-35.5 -7t-35.5 7t-28.5 19.5t-19 28.5t-7 34z" />
    <glyph glyph-name="semicolon" unicode=";" horiz-adv-x="326" 
d="M73 593q0 18 7 34t19 28.5t28.5 19.5t35.5 7t35.5 -7t28.5 -19.5t19 -28.5t7 -34t-7 -34t-19 -28.5t-28.5 -19.5t-35.5 -7t-35.5 7t-28.5 19.5t-19 28.5t-7 34zM73 205q0 18 7 34t19 28.5t28.5 19.5t35.5 7q40 0 65 -27t25 -64v-11q0 -57 -20.5 -107t-57.5 -80
q-14 -12 -28 -12.5t-22.5 6t-10 17.5t9.5 23q11 11 21.5 33t11.5 45q-39 3 -61.5 28.5t-22.5 59.5z" />
    <glyph glyph-name="less" unicode="&#x3c;" horiz-adv-x="467" 
d="M85 366q-14 19 -1 37l242 313q17 22 39.5 25t39 -7t21.5 -30t-12 -44l-195 -275l195 -276q17 -24 12 -44t-21.5 -30t-39 -7t-39.5 25z" />
    <glyph glyph-name="equal" unicode="=" horiz-adv-x="516" 
d="M476 497q0 -26 -25 -26h-293q-62 0 -90 16t-28 46v21q0 25 26 25h385q25 0 25 -26v-56zM476 237q0 -26 -25 -26h-293q-62 0 -90 16t-28 46v21q0 25 26 25h385q25 0 25 -26v-56z" />
    <glyph glyph-name="greater" unicode="&#x3e;" horiz-adv-x="467" 
d="M141 53q-17 -22 -39.5 -25t-39 7t-21.5 30t12 44l195 276l-195 275q-17 24 -12 44t21.5 30t39 7t39.5 -25l242 -313q13 -18 -1 -37z" />
    <glyph glyph-name="question" unicode="?" horiz-adv-x="533" 
d="M171 276q-2 38 6 62.5t27 42.5l101 99q29 29 51 59t22 69q0 44 -33 64t-96 20q-16 0 -35 -3.5t-39 -9.5t-39.5 -13.5t-35.5 -15.5q-23 -11 -41.5 -4t-27 22.5t-4.5 36t25 35.5q20 15 45 26t51.5 18.5t54 11.5t51.5 4q124 0 192 -46t68 -146q0 -30 -5 -55.5t-16 -48.5
t-27.5 -44t-38.5 -43l-94 -91q-15 -14 -21.5 -24.5t-7.5 -27.5l-1 -13q-2 -29 -15.5 -48t-31.5 -19h-57q-11 0 -18.5 5.5t-7.5 19.5zM148 48q0 18 7 34t19 28.5t28.5 19.5t35.5 7t35.5 -7t28.5 -19.5t19 -28.5t7 -34t-7 -34t-19 -28.5t-28.5 -19.5t-35.5 -7t-35.5 7
t-28.5 19.5t-19 28.5t-7 34z" />
    <glyph glyph-name="at" unicode="@" horiz-adv-x="922" 
d="M668 297q0 -25 6 -36t29 -11q37 0 58 37.5t21 97.5q0 79 -25 138.5t-68 99.5t-102 60.5t-126 20.5q-66 0 -124.5 -22t-102.5 -63t-69.5 -100t-25.5 -134t25.5 -134t69.5 -100t102.5 -63t124.5 -22q54 0 110.5 7.5t101.5 21.5q18 6 31 -1.5t17 -20.5t-2.5 -28t-25.5 -24
q-22 -10 -51.5 -17.5t-61 -13t-62.5 -8t-57 -2.5q-96 0 -174.5 29t-134.5 82t-86.5 127.5t-30.5 166.5t30.5 166.5t86.5 127.5t134.5 82t174.5 29q88 0 166 -26t135.5 -77t91 -127t33.5 -175q0 -58 -17 -100t-43.5 -69t-59.5 -39.5t-64 -12.5q-43 0 -72 12.5t-43 35.5
q-11 -11 -27.5 -19.5t-35 -15t-38 -10t-35.5 -3.5q-45 0 -85.5 15.5t-70.5 44.5t-47.5 70t-17.5 91t17.5 91t47.5 69.5t69 44t82 15.5q28 0 55.5 -10.5t42.5 -28.5l2 18q3 12 14 12h92q15 0 15 -14v-285zM458 270q21 0 42 7.5t35 20.5q-1 3 -1 11v10v145q-15 20 -35.5 28
t-40.5 8q-40 0 -66.5 -26t-26.5 -89t26.5 -89t66.5 -26z" />
    <glyph glyph-name="A" unicode="A" horiz-adv-x="656" 
d="M465 168h-274l-31 -94q-11 -33 -26.5 -53.5t-34.5 -20.5h-77q-14 0 -20.5 8.5t0.5 26.5l265 721q5 14 20 14h82q15 0 20 -14l265 -721q7 -18 0.5 -26.5t-20.5 -8.5h-77q-19 0 -35 20.5t-26 53.5zM226 274h204l-80 244q-8 24 -12.5 48.5t-9.5 49.5q-5 -25 -9.5 -49
t-12.5 -49z" />
    <glyph glyph-name="B" unicode="B" horiz-adv-x="661" 
d="M157 1q-47 4 -69.5 25t-22.5 67v651q0 26 25 26h249q126 0 193.5 -55.5t67.5 -147.5q0 -64 -34.5 -107t-85.5 -60q69 -17 107.5 -67.5t38.5 -119.5q0 -52 -20.5 -92.5t-58 -68t-90.5 -42t-117 -14.5h-42t-49.5 1t-49.5 1.5t-42 2.5zM201 343v-203q0 -28 30 -32
q4 -1 15.5 -1.5t24 -1t24.5 -1t18 -0.5q49 0 83 8.5t55 24t30 36.5t9 45q0 60 -41.5 92.5t-127.5 32.5h-120zM201 662v-211h118q70 0 107.5 30.5t37.5 85.5q0 50 -43.5 72.5t-128.5 22.5h-91z" />
    <glyph glyph-name="C" unicode="C" horiz-adv-x="620" 
d="M376 98q48 0 85.5 7.5t73.5 21.5q21 8 36 -2t20 -27.5t-0.5 -37t-24.5 -29.5q-38 -20 -87 -30.5t-105 -10.5q-82 0 -145.5 29t-106.5 81t-65 124.5t-22 160.5q0 90 23 162.5t66.5 124.5t106.5 80t143 28q39 0 85 -8t81 -21q23 -9 32 -28t4.5 -37t-21.5 -29.5t-46 -3.5
q-35 9 -71 14t-62 5q-53 0 -91.5 -21.5t-63.5 -59.5t-37.5 -90.5t-12.5 -115.5t12 -115.5t37 -90.5t64 -59.5t92 -21.5z" />
    <glyph glyph-name="D" unicode="D" horiz-adv-x="709" 
d="M303 770q87 0 156 -26.5t117 -76.5t73 -122t25 -162t-25 -162t-73 -122t-117 -76.5t-156 -26.5q-25 0 -63 1t-68 4q-47 5 -77 25.5t-30 66.5v651q0 26 25 26h213zM201 662v-522q0 -29 31 -32q21 -2 33.5 -3t35.5 -1q125 0 181 72t56 207t-56 207t-181 72h-100z" />
    <glyph glyph-name="E" unicode="E" horiz-adv-x="605" 
d="M201 451h315q25 0 25 -26v-56q0 -26 -25 -26h-315v-206q0 -29 31 -32q71 -6 143.5 -3t156.5 11q22 2 34.5 -11t14.5 -30.5t-8 -34t-33 -20.5q-41 -8 -92.5 -12.5t-104 -6.5t-101.5 -1.5t-85 4.5q-47 5 -69.5 25.5t-22.5 66.5v651q0 26 25 26h436q25 0 25 -26v-56
q0 -26 -25 -26h-325v-211z" />
    <glyph glyph-name="F" unicode="F" horiz-adv-x="556" 
d="M60 744q0 26 25 26h416q25 0 25 -26v-56q0 -26 -25 -26h-305v-206h295q25 0 25 -26v-56q0 -26 -25 -26h-295v-214q0 -74 -17.5 -104t-50.5 -30h-43q-25 0 -25 26v718z" />
    <glyph glyph-name="G" unicode="G" horiz-adv-x="708" 
d="M663 134q0 -74 -17.5 -104t-50.5 -30h-43q-25 0 -25 25q-33 -17 -72 -26t-81 -9q-82 0 -145.5 29t-106.5 81.5t-65 125t-22 159.5q0 89 23 162t66.5 124.5t106.5 80t143 28.5q111 0 189 -29q25 -9 33.5 -28t3.5 -37t-22 -28.5t-42 -3.5q-29 8 -72 13t-90 5q-45 0 -82 -17
t-64 -52.5t-42 -89.5t-15 -128t15 -128t42 -89.5t64 -52.5t82 -17q41 0 84 10.5t69 28.5v195h-41q-62 0 -90 16t-28 46v21q0 25 26 25h244q25 0 25 -26v-280z" />
    <glyph glyph-name="H" unicode="H" horiz-adv-x="719" 
d="M518 352h-317v-218q0 -74 -17.5 -104t-50.5 -30h-43q-25 0 -25 26v718q0 26 25 26h86q25 0 25 -26v-284h317v284q0 26 25 26h86q25 0 25 -26v-610q0 -74 -17.5 -104t-50.5 -30h-43q-25 0 -25 26v326z" />
    <glyph glyph-name="I" unicode="I" horiz-adv-x="254" 
d="M59 744q0 26 25 26h86q25 0 25 -26v-610q0 -74 -17.5 -104t-50.5 -30h-43q-25 0 -25 26v718z" />
    <glyph glyph-name="J" unicode="J" horiz-adv-x="438" 
d="M398 196q0 -56 -18 -95t-48.5 -63.5t-70.5 -36t-84 -11.5q-38 0 -76.5 10t-65.5 27q-17 10 -22.5 29t-0.5 36t19.5 26.5t38.5 0.5q25 -9 52 -15t52 -6q49 0 68.5 34t19.5 97v515q0 26 25 26h86q25 0 25 -26v-548z" />
    <glyph glyph-name="K" unicode="K" horiz-adv-x="634" 
d="M65 744q0 26 25 26h86q25 0 25 -26v-220l244 234q6 5 12.5 8.5t14.5 3.5h109q18 0 21 -13.5t-12 -27.5l-273 -267q-17 -16 -32 -29t-32 -27q17 -15 32 -29t32 -31l304 -312q11 -11 6 -22.5t-20 -11.5h-82q-20 0 -44.5 10t-59.5 47l-220 227v-150q0 -74 -17.5 -104
t-50.5 -30h-43q-25 0 -25 26v718z" />
    <glyph glyph-name="L" unicode="L" horiz-adv-x="556" 
d="M201 137q0 -29 31 -32q35 -3 66 -3.5t62.5 0.5t65.5 4t76 7q22 2 34.5 -11t14.5 -30t-8 -33.5t-33 -21.5q-35 -8 -80.5 -12.5t-94 -6.5t-95.5 -1.5t-83 4.5q-47 5 -69.5 25.5t-22.5 66.5v651q0 26 25 26h86q25 0 25 -26v-607z" />
    <glyph glyph-name="M" unicode="M" horiz-adv-x="910" 
d="M708 498q-8 -30 -17.5 -65t-22.5 -65l-137 -317q-12 -29 -24 -40t-31 -11h-60q-15 0 -20 14l-153 354q-13 31 -23 66t-19 66v-366q0 -74 -17.5 -104t-50.5 -30h-43q-25 0 -25 26v718q0 26 25 26h86q11 0 15.5 -5.5t8.5 -13.5l216 -475q8 -21 19.5 -47.5t19.5 -47.5
q8 21 20 48t20 47l214 472q5 10 9.5 16t15.5 6h85q25 0 25 -26v-610q0 -74 -17.5 -104t-50.5 -30h-43q-25 0 -25 26v472z" />
    <glyph glyph-name="N" unicode="N" horiz-adv-x="719" 
d="M523 744q0 26 25 26h86q25 0 25 -26v-670q0 -32 -9 -53t-28 -21h-84q-13 0 -21 13l-280 463q-11 17 -19.5 34.5t-16.5 34.5v-411q0 -74 -17.5 -104t-50.5 -30h-43q-25 0 -25 26v718q0 10 5 18t19 8h94q11 0 18 -11l288 -464q10 -16 18 -33l16 -34v516z" />
    <glyph glyph-name="O" unicode="O" horiz-adv-x="748" 
d="M374 -10q-83 0 -146.5 29t-106.5 81.5t-65.5 125t-22.5 159.5t22.5 159.5t65.5 125t106.5 81.5t146.5 29q82 0 146 -29t107 -81.5t65.5 -125t22.5 -159.5t-22.5 -159.5t-65.5 -125t-107 -81.5t-146 -29zM374 98q45 0 82 17t64 52.5t42 89.5t15 128t-15 128t-42 89.5
t-64 52.5t-82 17t-82 -17t-64 -52.5t-42 -89.5t-15 -128t15 -128t42 -89.5t64 -52.5t82 -17z" />
    <glyph glyph-name="P" unicode="P" horiz-adv-x="622" 
d="M65 744q0 26 25 26h259q56 0 100 -17t75 -47.5t47 -73t16 -93.5t-16 -93.5t-47 -72.5t-75 -47t-100 -17h-148v-175q0 -74 -17.5 -104t-50.5 -30h-43q-25 0 -25 26v718zM201 662v-245h91q83 0 121 31.5t38 90.5q0 64 -40.5 93.5t-118.5 29.5h-91z" />
    <glyph glyph-name="Q" unicode="Q" horiz-adv-x="748" 
d="M374 -10q-82 0 -145 29t-106 81.5t-65.5 125t-22.5 159.5t22.5 159.5t65.5 125t106 81.5t145 29t145 -29t106 -81.5t65.5 -125t22.5 -159.5q0 -82 -20 -151t-58 -121q12 -2 24.5 -0.5t25.5 3.5q33 6 52 -11t21.5 -41t-12 -46t-46.5 -26q-83 -11 -147 46
q-37 -23 -81.5 -35.5t-97.5 -12.5zM371 292q42 0 84.5 -28t79.5 -73q20 35 31 83t11 111q0 74 -15 128t-42 89.5t-64 52.5t-82 17t-82 -17t-64 -52.5t-42 -89.5t-15 -128q0 -72 14 -125.5t40 -88.5q4 54 42.5 87.5t103.5 33.5zM374 98q58 0 102 28q-54 58 -92 58
q-29 0 -45.5 -16.5t-16.5 -44.5q0 -10 3 -20q12 -2 24 -3.5t25 -1.5z" />
    <glyph glyph-name="R" unicode="R" horiz-adv-x="639" 
d="M528 0q-35 0 -73 75l-125 244h-129v-185q0 -74 -17.5 -104t-50.5 -30h-43q-25 0 -25 26v718q0 26 25 26h269q56 0 102 -16.5t78.5 -46.5t50 -71.5t17.5 -91.5q0 -75 -37.5 -128.5t-103.5 -78.5l156 -298q8 -16 2 -27.5t-25 -11.5h-71zM312 427q73 0 116 27.5t43 89.5
q0 63 -43 90.5t-116 27.5h-111v-235h111z" />
    <glyph glyph-name="S" unicode="S" horiz-adv-x="610" 
d="M298 672q-34 0 -56.5 -6.5t-36 -18t-19 -26.5t-5.5 -32q0 -38 22 -62.5t80 -45.5l90 -33q58 -23 95 -49t58.5 -56t30 -64.5t8.5 -74.5q0 -106 -73.5 -160t-206.5 -54q-60 0 -122 15t-104 40q-19 11 -24 31t1.5 36.5t23.5 25t44 -2.5q42 -18 88.5 -27.5t92.5 -9.5
q30 0 56 7t45.5 20.5t31 33t11.5 45.5q0 42 -21.5 71t-69.5 47l-101 37q-45 16 -80.5 35.5t-60.5 46t-38 62.5t-13 86q0 43 17 78t49.5 60t79.5 39t107 14q19 0 45.5 -3t54.5 -8.5t55.5 -14t49.5 -19.5q19 -10 25 -29t0 -36t-22.5 -27t-40.5 -1q-41 15 -83.5 22.5t-83.5 7.5
z" />
    <glyph glyph-name="T" unicode="T" horiz-adv-x="586" 
d="M581 688q0 -26 -25 -26h-196v-528q0 -74 -17.5 -104t-50.5 -30h-43q-25 0 -25 26v636h-101q-62 0 -90 16t-28 46v21q0 25 26 25h525q25 0 25 -26v-56z" />
    <glyph glyph-name="U" unicode="U" horiz-adv-x="709" 
d="M654 307q0 -85 -21 -145t-60 -98.5t-94.5 -56t-124.5 -17.5q-68 0 -123.5 17.5t-94.5 56t-60 98.5t-21 145v437q0 26 25 26h86q25 0 25 -26v-425q0 -50 8.5 -91t27.5 -70t50.5 -44.5t76.5 -15.5q46 0 77 15.5t50.5 44.5t28 70t8.5 91v425q0 26 25 26h86q25 0 25 -26v-437
z" />
    <glyph glyph-name="V" unicode="V" horiz-adv-x="656" 
d="M515 745q4 11 10 18t22 7h81q20 0 24 -10.5t-1 -24.5l-239 -683q-11 -30 -23 -41t-32 -11h-77q-17 0 -22 14l-254 723q-5 14 0 23.5t21 9.5h78q16 0 24.5 -4t13.5 -21l155 -473q8 -27 17 -59t15 -59q6 27 15 59t17 59z" />
    <glyph glyph-name="W" unicode="W" horiz-adv-x="899" 
d="M622 303q6 -32 13 -65t12 -65q5 32 11.5 65t13.5 65l92 447q3 20 27 20h89q13 0 17.5 -7t2.5 -17l-164 -694q-8 -31 -21.5 -41.5t-33.5 -10.5h-82q-23 0 -27 21l-106 446q-5 27 -9 54l-8 54l-8 -54t-9 -54l-99 -415q-8 -31 -21.5 -41.5t-33.5 -10.5h-84q-20 0 -25 20
l-169 722q-4 15 2 21.5t17 6.5h86q16 0 22.5 -5.5t8.5 -19.5l88 -442q7 -32 13.5 -65t11.5 -65q5 32 11.5 65t13.5 65l100 444q5 23 28 23h95q23 0 28 -22z" />
    <glyph glyph-name="X" unicode="X" horiz-adv-x="626" 
d="M355 197q-11 17 -22 33.5t-21 33.5q-10 -17 -20.5 -33.5t-21.5 -33.5l-77 -123q-23 -37 -48 -55.5t-47 -18.5h-68q-17 0 -23 12t5 27l156 241q17 27 34 53.5t34 52.5q-17 27 -34 54.5t-34 54.5l-151 241q-8 12 -3.5 23t22.5 11h90q15 0 26 -16l116 -181l22 -34l22 -34
q11 18 22 34t22 34l117 181q11 16 26 16h90q18 0 22.5 -11t-3.5 -23l-152 -243q-17 -26 -33.5 -53t-33.5 -54l34 -52t34 -53l156 -242q11 -15 5 -27t-23 -12h-68q-22 0 -47 18.5t-48 55.5z" />
    <glyph glyph-name="Y" unicode="Y" horiz-adv-x="627" 
d="M381 363v-229q0 -74 -17.5 -104t-50.5 -30h-43q-25 0 -25 26v337l-233 372q-8 14 -3.5 24.5t21.5 10.5h90q12 0 21 -14l134 -213q10 -15 20 -35.5t18 -37.5q8 17 18 37.5t20 35.5l134 213q9 14 21 14h90q17 0 21.5 -10.5t-3.5 -24.5z" />
    <glyph glyph-name="Z" unicode="Z" horiz-adv-x="587" 
d="M351 631q11 17 22 31h-215q-62 0 -90 16t-28 46v21q0 25 26 25h450q14 0 19.5 -7t5.5 -18v-46q0 -13 -8 -26l-289 -470q-11 -17 -20 -30.5t-20 -30.5q-8 -13 -2.5 -21.5t20.5 -10.5q58 -6 126.5 -4.5t156.5 9.5q28 3 42 -11t15 -32t-10.5 -35.5t-33.5 -21.5
q-42 -8 -98 -13t-114.5 -6.5t-113 0t-92.5 5.5q-23 3 -40.5 14t-26 28.5t-7 38.5t15.5 44z" />
    <glyph glyph-name="bracketleft" unicode="[" horiz-adv-x="363" 
d="M180 -140q-48 0 -69.5 21t-21.5 69v864q0 26 25 26h199q25 0 25 -26v-56q0 -26 -25 -26h-88v-734q0 -16 6.5 -23t23.5 -7h58q25 0 25 -26v-56q0 -23 -25 -26h-133z" />
    <glyph glyph-name="backslash" unicode="\" horiz-adv-x="935" 
d="M940 367q0 -26 -25 -26h-107l-61 -289q-7 -30 -21 -41t-34 -11h-83q-22 0 -26 21l-71 323h-88l-60 -292q-7 -30 -21 -41t-34 -11h-86q-20 0 -24 20l-70 321h-16q-62 0 -90 16t-28 46v19q0 25 26 25h85l-65 300q-2 10 3 16.5t15 6.5h83q24 0 27 -20l57 -306h108l62 305
q4 21 25 21h98q17 0 20 -14l62 -312h108l57 306q2 10 9 15t16 5h86q8 0 13.5 -6t3.5 -17l-64 -300h85q25 0 25 -26v-54zM304 292l10 52h-70l10 -52l25 -120zM681 292l9 52h-70l11 -52l25 -120zM467 572l-17 -100l-6 -28h46l-6 28z" />
    <glyph glyph-name="bracketright" unicode="]" horiz-adv-x="363" 
d="M249 840q25 0 25 -26v-928q0 -26 -25 -26h-199q-25 0 -25 26v56q0 26 25 26h88v764h-88q-25 0 -25 26v56q0 26 25 26h199z" />
    <glyph glyph-name="asciicircum" unicode="^" horiz-adv-x="458" 
d="M280 835q14 0 22 -14l130 -225q5 -9 0 -16t-14 -7h-58q-17 0 -35.5 16t-32.5 47l-28 54q-10 19 -18.5 37t-16.5 37q-8 -19 -16.5 -37t-18.5 -37l-28 -54q-14 -31 -32.5 -47t-35.5 -16h-57q-11 0 -15.5 7.5t0.5 15.5l130 225q8 14 22 14h102z" />
    <glyph glyph-name="underscore" unicode="_" horiz-adv-x="510" 
d="M495 -119q0 -26 -25 -26h-337q-62 0 -90 16t-28 46v21q0 25 26 25h429q25 0 25 -26v-56z" />
    <glyph glyph-name="grave" unicode="`" horiz-adv-x="272" 
d="M172 573q-20 0 -39.5 18t-33.5 56l-56 164q-4 10 0 17t15 7h89q14 0 19 -5.5t7 -13.5l56 -221q3 -11 -2 -16.5t-14 -5.5h-41z" />
    <glyph glyph-name="a" unicode="a" horiz-adv-x="596" 
d="M405 28q-40 -20 -75.5 -29t-65.5 -9q-124 0 -179 47.5t-55 129.5q0 41 13.5 77t42 62.5t72.5 42t106 15.5q35 0 70 -4t71 -13v38q0 12 -2.5 24.5t-12.5 22t-29.5 16t-52.5 6.5q-43 0 -81.5 -9.5t-72.5 -21.5q-26 -9 -43.5 0t-25 25.5t-2.5 35.5t26 31q18 10 42 18.5
t50.5 14.5t54 9t52.5 3q48 0 90.5 -10t74 -30t50 -50t18.5 -71v-265q0 -74 -17.5 -104t-50.5 -30h-43q-25 0 -25 26v2zM270 99q17 0 36 3t37.5 9t34.5 14t27 18v103q-29 5 -64.5 7.5t-70.5 2.5q-104 0 -104 -78q0 -79 104 -79z" />
    <glyph glyph-name="b" unicode="b" horiz-adv-x="626" 
d="M60 763q0 26 25 26h86q25 0 25 -26v-233q24 12 58.5 21t72.5 9q61 0 111.5 -20.5t86.5 -58t56 -90t20 -116.5t-20 -116.5t-56 -90t-86.5 -58t-111.5 -20.5q-35 0 -75 13t-67 42q-9 -26 -24.5 -35.5t-32.5 -9.5h-43q-25 0 -25 26v737zM326 98q31 0 56.5 13.5t44 37
t28.5 56t10 70.5t-10 70.5t-28.5 56t-44 37t-56.5 13.5q-47 0 -79 -13t-51 -36v-249q17 -26 52.5 -41t77.5 -15z" />
    <glyph glyph-name="c" unicode="c" horiz-adv-x="495" 
d="M299 98q36 0 65 4t54 10t38.5 -5.5t16.5 -29t-4.5 -35.5t-24.5 -26q-31 -14 -65.5 -20t-79.5 -6q-67 0 -118.5 20.5t-86 58t-52 90t-17.5 116.5t17.5 116.5t52 90t86 58t118.5 20.5q39 0 69.5 -5.5t54.5 -12.5q20 -6 30 -24t7.5 -36t-19 -30.5t-49.5 -7.5q-21 4 -49 6
t-44 2q-63 0 -100.5 -45.5t-37.5 -131.5t37.5 -131.5t100.5 -45.5z" />
    <glyph glyph-name="d" unicode="d" horiz-adv-x="626" 
d="M299 560q38 0 71.5 -8.5t59.5 -21.5v233q0 26 25 26h86q25 0 25 -26v-629q0 -74 -17.5 -104t-50.5 -30h-43q-13 0 -19 11.5t-6 23.5q-29 -23 -62.5 -34t-68.5 -11q-62 0 -112.5 20.5t-86.5 58t-55.5 90t-19.5 116.5t19.5 116.5t55.5 90t86.5 58t112.5 20.5zM300 98
q42 0 78 15.5t52 40.5v249q-19 25 -53.5 37t-76.5 12q-31 0 -56.5 -13.5t-44 -37t-28.5 -56t-10 -70.5t10 -70.5t28.5 -56t44 -37t56.5 -13.5z" />
    <glyph glyph-name="e" unicode="e" horiz-adv-x="578" 
d="M418 332q-5 62 -41 91t-88 29q-53 0 -89 -29t-41 -91h259zM305 98q35 0 65.5 4t62.5 15q27 9 43 -1.5t21 -28t-2 -37t-27 -29.5q-33 -16 -75 -23.5t-88 -7.5q-63 0 -115 19t-89 55t-57.5 89.5t-20.5 122.5q0 64 20 116.5t55 89.5t84 57.5t107 20.5t107 -20.5t84 -58.5
t55 -91t20 -117q0 -26 -10 -37.5t-28 -11.5h-356q2 -63 40 -94.5t104 -31.5z" />
    <glyph glyph-name="f" unicode="f" horiz-adv-x="386" 
d="M348 489q0 -26 -25 -26h-91v-329q0 -74 -17.5 -104t-50.5 -30h-43q-25 0 -25 26v437q-53 2 -77 18t-24 44v21q0 25 26 25h75v90q0 73 39 105.5t112 32.5q28 0 59.5 -6t48.5 -15q18 -9 24.5 -27t2 -34.5t-19.5 -27t-40 -4.5q-10 2 -24 3.5t-26 1.5q-23 0 -31.5 -16.5
t-8.5 -48.5v-54h91q25 0 25 -26v-56z" />
    <glyph glyph-name="g" unicode="g" horiz-adv-x="618" 
d="M532 366q0 -42 -18.5 -77.5t-51.5 -61.5t-77 -40.5t-95 -14.5q-62 0 -111 20q-11 -6 -11 -18q0 -19 34 -24l206 -32q89 -14 136 -51.5t47 -111.5q0 -80 -75.5 -126t-212.5 -46q-140 0 -213 42.5t-75 115.5q-1 38 17 67.5t58 49.5q-23 18 -31.5 41.5t-8.5 44.5
q0 29 11.5 53t43.5 41q-27 26 -42 58t-15 70q0 42 18.5 77.5t51.5 61.5t77 40.5t95 14.5q67 0 120 -24q41 29 85 29q23 0 52 -5.5t48 -24.5q13 -14 13.5 -30.5t-8 -29t-23.5 -18.5t-33 3q-11 5 -23 15.5t-21 15.5q-8 4 -15.5 4.5t-9.5 -1.5q15 -12 26 -28.5t18 -34.5t10 -35
t3 -30zM223 21q-40 -11 -56 -29t-16 -37q0 -12 6 -23.5t22.5 -20.5t46.5 -14.5t77 -5.5q49 0 78.5 6t46 15t22 20.5t5.5 22.5q0 18 -23 31.5t-83 20.5zM184 366q0 -40 29 -63t77 -23t77 23t29 63t-29 63t-77 23t-77 -23t-29 -63z" />
    <glyph glyph-name="h" unicode="h" horiz-adv-x="620" 
d="M565 134q0 -74 -17.5 -104t-50.5 -30h-43q-25 0 -25 26v331q0 55 -26.5 75t-74.5 20q-34 0 -68.5 -9.5t-63.5 -27.5v-281q0 -74 -17.5 -104t-50.5 -30h-43q-25 0 -25 26v737q0 26 25 26h86q25 0 25 -26v-248q29 19 64.5 32t80.5 13q113 0 168.5 -47.5t55.5 -155.5v-223v0
z" />
    <glyph glyph-name="i" unicode="i" horiz-adv-x="252" 
d="M58 519q0 26 25 26h86q25 0 25 -26v-385q0 -74 -17.5 -104t-50.5 -30h-43q-25 0 -25 26v493zM36 700q0 18 7 34t19 28.5t28.5 19.5t35.5 7t35.5 -7t28.5 -19.5t19 -28.5t7 -34t-7 -34t-19 -28.5t-28.5 -19.5t-35.5 -7t-35.5 7t-28.5 19.5t-19 28.5t-7 34z" />
    <glyph glyph-name="j" unicode="j" horiz-adv-x="252" 
d="M36 700q0 18 7 34t19 28.5t28.5 19.5t35.5 7t35.5 -7t28.5 -19.5t19 -28.5t7 -34t-7 -34t-19 -28.5t-28.5 -19.5t-35.5 -7t-35.5 7t-28.5 19.5t-19 28.5t-7 34zM0 -108q31 0 44.5 21.5t13.5 63.5v542q0 26 25 26h86q25 0 25 -26v-542q0 -92 -42 -142.5t-140 -50.5
q-30 0 -55 8.5t-37 17.5q-15 11 -19.5 29t1 34t18.5 25t33 2q11 -5 25 -6.5t22 -1.5z" />
    <glyph glyph-name="k" unicode="k" horiz-adv-x="542" 
d="M60 763q0 26 25 26h86q25 0 25 -26v-381l166 156q12 12 27 12h112q17 0 20 -13t-9 -24l-180 -167q-18 -17 -35.5 -31.5t-35.5 -28.5q16 -15 30.5 -30t31.5 -30l202 -192q11 -11 5.5 -22.5t-18.5 -11.5h-84q-11 0 -21.5 1.5t-22.5 7t-26 15.5t-32 28l-130 130v-48
q0 -74 -17.5 -104t-50.5 -30h-43q-25 0 -25 26v737z" />
    <glyph glyph-name="l" unicode="l" horiz-adv-x="252" 
d="M59 763q0 26 25 26h86q25 0 25 -26v-629q0 -74 -17.5 -104t-50.5 -30h-43q-25 0 -25 26v737z" />
    <glyph glyph-name="m" unicode="m" horiz-adv-x="875" 
d="M308 560q58 0 95.5 -18.5t60.5 -46.5q29 30 68.5 47.5t81.5 17.5q49 0 87.5 -9.5t64.5 -32.5t39.5 -62.5t13.5 -99.5v-222q0 -74 -17.5 -104t-50.5 -30h-41q-23 0 -25 26v330q0 54 -19.5 75t-67.5 21q-26 0 -51 -12.5t-45 -34.5q5 -28 5 -49v-222q0 -74 -17.5 -104
t-50.5 -30h-41q-25 0 -25 26v330q0 54 -21.5 75t-69.5 21q-24 0 -47 -8t-42 -28v-282q0 -74 -17.5 -104t-50.5 -30h-41q-25 0 -25 26v498q0 26 25 26h84q23 0 25 -20l1 -14q22 20 52 32t62 12z" />
    <glyph glyph-name="n" unicode="n" horiz-adv-x="620" 
d="M565 134q0 -74 -17.5 -104t-50.5 -30h-43q-25 0 -25 26v331q0 55 -26.5 75t-74.5 20q-34 0 -68.5 -11t-63.5 -36v-271q0 -74 -17.5 -104t-50.5 -30h-43q-25 0 -25 26v498q0 26 25 26h85q25 0 25 -26l1 -19q31 25 68 40t82 15q109 0 164 -47.5t55 -155.5v-223v0z" />
    <glyph glyph-name="o" unicode="o" horiz-adv-x="598" 
d="M573 275q0 -68 -20 -120.5t-56 -89.5t-86.5 -56t-111.5 -19q-62 0 -112.5 19t-86.5 56t-55.5 89.5t-19.5 120.5q0 67 19.5 120t55.5 90t86.5 56t112.5 19q61 0 111.5 -19t86.5 -56t56 -90t20 -120zM161 275q0 -93 37.5 -135t100.5 -42t100.5 42t37.5 135q0 85 -33.5 131
t-104.5 46t-104.5 -46t-33.5 -131z" />
    <glyph glyph-name="p" unicode="p" horiz-adv-x="626" 
d="M60 524q0 26 25 26h87q20 0 22 -15l2 -15q10 9 26.5 16t35 12.5t37 8.5t32.5 3q61 0 111.5 -20.5t86.5 -58t56 -90t20 -116.5t-18.5 -116.5t-53.5 -90t-86 -58t-116 -20.5q-35 0 -72.5 12t-58.5 32v-111q0 -74 -17.5 -104t-50.5 -30h-43q-25 0 -25 26v709zM327 98
q31 0 56.5 13.5t43.5 37.5t28 56t10 70q0 44 -12.5 77.5t-32 55.5t-44 33t-49.5 11q-53 0 -85 -15t-46 -34v-249q16 -25 52 -40.5t79 -15.5z" />
    <glyph glyph-name="q" unicode="q" horiz-adv-x="626" 
d="M299 560q16 0 35 -3.5t37 -9t33.5 -12.5t25.5 -15l2 15q2 15 22 15h87q25 0 25 -26v-601q0 -74 -17.5 -104t-50.5 -30h-43q-25 0 -25 26v219q-26 -23 -62.5 -33.5t-68.5 -10.5q-62 0 -112.5 19t-86.5 56t-55.5 89.5t-19.5 120.5q0 64 19.5 116.5t55.5 90t86.5 58
t112.5 20.5zM300 98q42 0 78 15.5t52 40.5v249q-19 24 -53.5 36.5t-76.5 12.5q-31 0 -56.5 -13.5t-44 -37t-28.5 -56t-10 -70.5t10 -70.5t28.5 -56t44 -37t56.5 -13.5z" />
    <glyph glyph-name="r" unicode="r" horiz-adv-x="396" 
d="M60 524q0 26 25 26h85q21 0 23 -16l2 -14q13 16 32 25.5t41 12.5t44.5 0t43.5 -11q30 -12 37.5 -34.5t-1 -42t-29.5 -30t-49 1.5q-30 13 -61 12t-57 -27v-293q0 -74 -17.5 -104t-50.5 -30h-43q-25 0 -25 26v498z" />
    <glyph glyph-name="s" unicode="s" horiz-adv-x="503" 
d="M224 98q47 -2 75 11t28 42q0 28 -23 40.5t-64 27.5l-75 26q-59 20 -92 60t-33 103q0 31 11 58.5t36.5 48.5t66.5 33t101 12q21 0 59 -6.5t76 -22.5q22 -9 29.5 -28.5t1.5 -37.5t-23.5 -28t-44.5 0q-22 8 -52 11.5t-46 3.5q-79 0 -79 -44q0 -23 17.5 -35t37.5 -17l95 -30
q29 -9 54 -23t43.5 -35t29 -50t10.5 -67q0 -43 -17.5 -74t-49 -51.5t-75.5 -29t-97 -6.5q-19 1 -41 4t-44.5 9t-44 15.5t-39.5 23.5q-15 12 -17.5 30.5t5 34t24 23t40.5 -3.5t55 -18.5t62 -9.5z" />
    <glyph glyph-name="t" unicode="t" horiz-adv-x="357" 
d="M252 98q17 0 37 8q19 7 32.5 -2t19 -25t1 -34t-19.5 -29q-12 -9 -37 -17.5t-55 -8.5q-39 0 -66.5 10t-45 33t-25 59.5t-7.5 90.5v279q-48 3 -69.5 18.5t-21.5 42.5v21q0 25 26 25h65v175q0 26 25 26h86q25 0 25 -26v-175h65q25 0 25 -26v-56q0 -26 -25 -26h-65v-278
q0 -50 6.5 -67.5t23.5 -17.5z" />
    <glyph glyph-name="u" unicode="u" horiz-adv-x="620" 
d="M191 193q0 -55 26.5 -75t74.5 -20q34 0 68.5 11t63.5 36v379q0 26 25 26h86q25 0 25 -26v-390q0 -74 -17.5 -104t-50.5 -30h-41q-13 0 -18 6.5t-7 19.5l-2 18q-31 -24 -68 -39t-82 -15q-109 0 -164 47.5t-55 155.5v331q0 26 25 26h86q25 0 25 -26v-331z" />
    <glyph glyph-name="v" unicode="v" horiz-adv-x="496" 
d="M332 52q-11 -31 -23 -41.5t-32 -10.5h-76q-18 0 -23 14l-173 503q-5 13 -0.5 23t21.5 10h75q15 0 22 -4.5t12 -17.5l79 -265q8 -27 17 -55t17 -55q8 27 17 55t17 55l78 265q5 13 12 17.5t22 4.5h75q17 0 21.5 -10t-0.5 -23z" />
    <glyph glyph-name="w" unicode="w" horiz-adv-x="799" 
d="M671 52q-9 -32 -21.5 -42t-32.5 -10h-90q-18 0 -23 15l-76 255q-8 24 -15.5 55t-13.5 55q-6 -23 -14 -54t-15 -55l-63 -219q-10 -31 -23 -41.5t-33 -10.5h-89q-19 0 -23 15l-134 507q-4 12 1 20t17 8h81q12 0 19 -3t10 -14l62 -272q6 -25 13.5 -54t13.5 -53q7 25 13.5 54
t14.5 53l81 272q5 17 26 17h86q11 0 17.5 -5t8.5 -13l80 -270q7 -25 14.5 -54t13.5 -54q7 25 13.5 54t13.5 53l62 272q3 11 10 14t19 3h81q12 0 17 -8t1 -20z" />
    <glyph glyph-name="x" unicode="x" horiz-adv-x="508" 
d="M112 550q13 0 24 -14l86 -116q8 -11 16.5 -22t15.5 -22q7 11 15.5 22t16.5 22l86 116q11 14 24 14h83q20 0 24 -11.5t-4 -22.5l-142 -193q-8 -11 -15.5 -21.5t-16.5 -21.5q9 -11 16.5 -20.5t15.5 -20.5l147 -197q14 -18 7 -30t-24 -12h-59q-19 0 -42.5 17.5t-49.5 52.5
l-51 69q-8 11 -15.5 22t-15.5 22q-8 -11 -15.5 -22t-15.5 -22l-51 -69q-53 -70 -92 -70h-59q-17 0 -24 12t7 30l146 196q8 11 15.5 21t16.5 21q-8 11 -16 21.5t-16 21.5l-141 193q-8 11 -4 22.5t24 11.5h83z" />
    <glyph glyph-name="y" unicode="y" horiz-adv-x="526" 
d="M130 -211q-14 0 -21 9t-1 23l85 205l-187 497q-4 11 2 19t21 8h80q20 0 26 -16l100 -275q8 -19 15 -42.5t12 -42.5q7 20 14 42t15 43l100 277q6 14 21 14h83q16 0 21.5 -8.5t1.5 -18.5l-256 -660q-16 -37 -31.5 -55.5t-33.5 -18.5h-67z" />
    <glyph glyph-name="z" unicode="z" horiz-adv-x="477" 
d="M250 201q-12 -15 -26.5 -34.5t-23.5 -32.5q-8 -12 -5 -20.5t19 -9.5q28 -2 49.5 -2.5t42.5 0.5t45 3.5t56 5.5q27 3 40.5 -10.5t14.5 -32t-11 -35.5t-34 -21q-33 -6 -75.5 -10t-88 -5.5t-90 -0.5t-81.5 5q-23 3 -38 13.5t-21 26t-3.5 33t14.5 33.5l218 304q11 17 22 31
h-118q-62 0 -90 16t-28 46v21q0 25 26 25h353q14 0 19.5 -7t5.5 -18v-46q0 -15 -11 -29z" />
    <glyph glyph-name="braceleft" unicode="{" horiz-adv-x="391" 
d="M122 267q0 16 -5.5 24.5t-20.5 8.5q-26 0 -46.5 15t-20.5 39v27q0 25 25 25h24q44 0 44 43v320q0 33 18 52t51 19h150q25 0 25 -26v-56q0 -26 -25 -26h-66q-17 0 -17 -19v-285q0 -29 -11 -49t-31 -29q20 -9 31 -29t11 -49v-285q0 -19 17 -19h66q25 0 25 -26v-56
q0 -26 -25 -26h-150q-33 0 -51 19t-18 52v336z" />
    <glyph glyph-name="bar" unicode="|" horiz-adv-x="250" 
d="M59 824q0 26 25 26h82q25 0 25 -26v-840q0 -74 -17.5 -104t-50.5 -30h-39q-25 0 -25 26v948z" />
    <glyph glyph-name="braceright" unicode="}" horiz-adv-x="391" 
d="M200 840q33 0 51 -19t18 -52v-320q0 -43 44 -43h24q25 0 25 -25v-56q0 -25 -25 -25h-42q-15 0 -20.5 -8.5t-5.5 -24.5v-336q0 -33 -18 -52t-51 -19h-150q-25 0 -25 26v56q0 26 25 26h67q6 0 11 4.5t5 12.5v287q0 29 11 49t31 29q-20 9 -31 29t-11 49v285q0 19 -19 19h-64
q-25 0 -25 26v56q0 26 25 26h150z" />
    <glyph glyph-name="asciitilde" unicode="~" horiz-adv-x="649" 
d="M325 455q36 -26 63.5 -41.5t53.5 -15.5q23 0 50.5 14t51.5 32q20 15 37 10.5t25.5 -20.5t6 -37t-20.5 -39q-42 -41 -81.5 -54.5t-67.5 -13.5q-29 0 -56.5 10.5t-62.5 35.5q-36 26 -63.5 41.5t-53.5 15.5q-23 0 -47 -11.5t-56 -36.5q-21 -15 -37.5 -10.5t-25 20t-6 37
t20.5 39.5q42 42 78.5 56t71.5 14q29 0 56.5 -10.5t62.5 -35.5z" />
    <glyph glyph-name="nonbreakingspace" unicode="&#xa0;" horiz-adv-x="300" 
 />
    <glyph glyph-name="exclamdown" unicode="&#xa1;" 
d="M389 169l11 142q2 36 15.5 60t31.5 24h48q10 0 17 -6t7 -18l12 -202v-309q0 -35 -22 -53t-49 -18t-49 18t-22 53v309zM550 541q0 -18 -7 -34t-19 -28.5t-28.5 -19.5t-35.5 -7t-35.5 7t-28.5 19.5t-19 28.5t-7 34t7 34t19 28.5t28.5 19.5t35.5 7t35.5 -7t28.5 -19.5
t19 -28.5t7 -34z" />
    <glyph glyph-name="currency" unicode="&#xa4;" horiz-adv-x="710" 
d="M645 350q0 -49 -15 -91.5t-43 -77.5l87 -91q16 -17 8 -29.5t-25 -12.5h-59q-19 0 -48 15t-55 44l-2 2q-61 -29 -138 -29q-78 0 -139 29l-1 -2q-12 -15 -26 -26.5t-28 -18.5t-27 -10.5t-22 -3.5h-59q-17 0 -25 12.5t8 29.5l87 91q-28 35 -43 77.5t-15 91.5q0 51 15.5 94
t44.5 78l-88 98q-10 11 -4.5 22.5t23.5 11.5h90q8 0 14 -4.5t12 -11.5l42 -48q31 14 66 22t75 8q39 0 74 -8t66 -22l42 48q6 7 12 11.5t14 4.5h90q18 0 23.5 -11.5t-4.5 -22.5l-88 -98q29 -35 45 -78t16 -94zM199 350q0 -35 10 -65t29.5 -52t48.5 -34.5t68 -12.5t68 12.5
t48.5 34.5t29.5 52t10 65t-10 65t-29.5 52t-48.5 34.5t-68 12.5t-68 -12.5t-48.5 -34.5t-29.5 -52t-10 -65z" />
    <glyph glyph-name="section" unicode="&#xa7;" horiz-adv-x="470" 
d="M141 509q-28 46 -39 79t-11 67q0 28 12.5 51.5t35 40.5t54.5 26t71 7q25 -2 55 -7t50 -14q27 -12 34 -30t1 -33.5t-21 -24t-31 -2.5q-9 4 -25 6.5t-33.5 2.5t-33.5 -3.5t-26 -13.5q-12 -12 -10 -30t10 -38t20 -39t21 -33l137 -216q28 -44 38 -74t10 -56q0 -54 -33 -87.5
t-88 -33.5h-10q27 -45 38.5 -78.5t11.5 -67.5q0 -49 -37 -84.5t-106 -39.5q-14 -1 -32 0t-37.5 4t-39 8.5t-35.5 13.5q-19 9 -25.5 25t-2 30t18.5 22t35 1q10 -3 34.5 -8.5t53.5 0.5q20 5 29.5 21.5t9.5 36.5q0 15 -5.5 29.5t-13.5 28t-16.5 25t-14.5 21.5l-137 216
q-28 44 -38 74t-10 56q0 54 31.5 88t89.5 34zM262 159q9 -14 22.5 -17.5t25.5 1.5t19.5 16.5t5.5 26.5q-3 19 -11.5 36t-22.5 39l-93 144q-11 16 -25 21t-25.5 0t-18.5 -18t-4 -32q4 -33 34 -74z" />
    <glyph glyph-name="dieresis" unicode="&#xa8;" horiz-adv-x="492" 
d="M75 852q0 29 19 48t49 19q29 0 48.5 -19t19.5 -48q0 -30 -19.5 -48.5t-48.5 -18.5q-30 0 -49 18.5t-19 48.5zM281 852q0 29 19 48t49 19q29 0 48.5 -19t19.5 -48q0 -30 -19.5 -48.5t-48.5 -18.5q-30 0 -49 18.5t-19 48.5z" />
    <glyph glyph-name="copyright" unicode="&#xa9;" 
d="M11 350q0 97 32.5 178t91.5 139.5t141.5 91.5t183.5 33t183.5 -33t141.5 -91.5t91.5 -139.5t32.5 -178t-32.5 -178t-91.5 -139.5t-141.5 -91.5t-183.5 -33t-183.5 33t-141.5 91.5t-91.5 139.5t-32.5 178zM827 350q0 82 -27.5 149.5t-76 116t-116 75.5t-147.5 27
t-147.5 -27t-116.5 -75.5t-76 -116t-27 -149.5t27 -150t76 -116.5t116.5 -75t147.5 -26.5t147.5 26.5t116 75t76 116.5t27.5 150zM488 170q42 0 105 23q21 7 36.5 -3t22 -27t1.5 -36t-26 -29q-74 -36 -141 -36q-135 0 -210.5 75t-75.5 215q0 72 20 126t57.5 90.5t90.5 55
t118 18.5q29 0 63 -6.5t56 -16.5q23 -11 30.5 -30.5t2 -37.5t-23 -28.5t-44.5 -1.5q-20 7 -42 10t-40 3q-72 0 -112 -45t-40 -137t39 -137t113 -45z" />
    <glyph glyph-name="ordfeminine" unicode="&#xaa;" horiz-adv-x="480" 
d="M250 740q-20 0 -43.5 -4t-52.5 -15q-27 -11 -45.5 -3.5t-25.5 22.5t-2 33.5t25 29.5q38 21 73.5 27t70.5 6q52 0 88 -12.5t58 -35.5t31.5 -57.5t9.5 -77.5v-169q0 -42 -15.5 -68t-47.5 -26h-24q-27 0 -30 17l-2 10q-7 -6 -18.5 -12t-25.5 -11.5t-30.5 -9t-32.5 -3.5
q-50 0 -85 11t-57 30.5t-32.5 46t-10.5 56.5q0 28 10 54t31.5 45t57 30.5t86.5 11.5q29 0 53 -4t48 -10v20q0 39 -18 53.5t-44 14.5zM211 477q38 0 64 14t37 28v38q-43 13 -101 13q-21 0 -33 -5t-18 -12t-7.5 -14.5t-1.5 -13.5q0 -5 1.5 -13.5t7.5 -16t18 -13t33 -5.5z" />
    <glyph glyph-name="uni00AD" unicode="&#xad;" horiz-adv-x="412" 
d="M371 367q0 -26 -25 -26h-183q-62 0 -90 16t-28 46v21q0 25 26 25h275q25 0 25 -26v-56z" />
    <glyph glyph-name="registered" unicode="&#xae;" 
d="M11 350q0 97 32.5 178t91.5 139.5t141.5 91.5t183.5 33t183.5 -33t141.5 -91.5t91.5 -139.5t32.5 -178t-32.5 -178t-91.5 -139.5t-141.5 -91.5t-183.5 -33t-183.5 33t-141.5 91.5t-91.5 139.5t-32.5 178zM827 350q0 82 -27.5 149.5t-76 116t-116 75.5t-147.5 27
t-147.5 -27t-116.5 -75.5t-76 -116t-27 -149.5t27 -150t76 -116.5t116.5 -75t147.5 -26.5t147.5 26.5t116 75t76 116.5t27.5 150zM497 638q40 0 76 -11.5t63 -34t43 -56t16 -76.5q0 -58 -26.5 -97.5t-64.5 -59.5l110 -196q8 -16 2 -27.5t-25 -11.5h-51q-29 0 -50 18t-43 57
l-75 139h-83v-80q0 -74 -17.5 -104t-50.5 -30h-43q-25 0 -25 26v518q0 26 25 26h219zM389 530v-140h64q54 0 80 16.5t26 53.5q0 38 -26 54t-80 16h-64z" />
    <glyph glyph-name="degree" unicode="&#xb0;" horiz-adv-x="308" 
d="M198 703q0 19 -12 31.5t-32 12.5t-32 -12.5t-12 -31.5t12 -31.5t32 -12.5t32 12.5t12 31.5zM274 703q0 -24 -9 -44.5t-24.5 -36t-37.5 -24t-49 -8.5t-49 8.5t-37.5 24t-24.5 36t-9 44.5t9 44.5t24.5 36t37.5 24t49 8.5t49 -8.5t37.5 -24t24.5 -36t9 -44.5z" />
    <glyph glyph-name="plusminus" unicode="&#xb1;" horiz-adv-x="622" 
d="M242 411h-79q-62 0 -90 16t-28 46v21q0 25 26 25h171v171q0 26 25 26h86q25 0 25 -26v-171h174q25 0 25 -26v-56q0 -26 -25 -26h-174v-71q0 -74 -17.5 -104t-50.5 -30h-43q-25 0 -25 26v179zM587 87q0 -26 -25 -26h-409q-62 0 -90 16t-28 46v21q0 25 26 25h501
q25 0 25 -26v-56z" />
    <glyph glyph-name="twosuperior" unicode="&#xb2;" horiz-adv-x="415" 
d="M225 493h124q25 0 25 -26v-50q0 -26 -25 -26h-272q-16 0 -25.5 8.5t-9.5 25.5v24q0 13 9 21l143 135q28 26 41 52t8 52q-3 13 -9.5 20t-14.5 11t-15.5 5t-12.5 1q-21 0 -39 -7t-34 -16q-17 -9 -32 -5t-23.5 16t-6 28.5t21.5 31.5q29 23 63 34t64 11q32 0 60 -7.5
t49 -22.5t34 -38.5t16 -56.5q3 -41 -13.5 -80t-50.5 -71z" />
    <glyph glyph-name="threesuperior" unicode="&#xb3;" horiz-adv-x="415" 
d="M167 582q-29 0 -46.5 11.5t-17.5 31.5v24q0 14 5 19.5t19 5.5h53q10 0 20 2t18 7t13 14.5t5 23.5q0 10 -5 16.5t-13 9.5t-17 4t-16 1q-21 0 -38 -5t-40 -14q-18 -7 -31.5 -0.5t-19.5 19t-3 27t18 23.5q29 18 58 26.5t56 10.5q36 1 67.5 -4t55.5 -18.5t38 -36t14 -55.5
q0 -37 -22 -60.5t-50 -32.5q42 -7 68 -35.5t26 -78.5q0 -66 -49.5 -100t-134.5 -34q-30 0 -69 10t-67 28q-19 12 -22.5 27.5t2.5 28t19.5 18t30.5 -2.5q29 -14 56 -18t50 -4q29 0 44 14t17 34q2 26 -14.5 44.5t-64.5 18.5h-13z" />
    <glyph glyph-name="acute" unicode="&#xb4;" horiz-adv-x="311" 
d="M78 573q-8 0 -14.5 4t-2.5 18l58 226q3 14 20 14h94q10 0 14.5 -6.5t0.5 -17.5l-57 -164q-14 -38 -34 -56t-39 -18h-40z" />
    <glyph glyph-name="paragraph" unicode="&#xb6;" horiz-adv-x="579" 
d="M348 -133q0 -35 -10.5 -57t-31.5 -22h-30q-20 0 -20 19v524q-49 0 -88.5 15.5t-68 44t-44 68.5t-15.5 91q0 103 63 161.5t175 58.5h211q20 0 20 -19v-884q0 -35 -10.5 -57t-31.5 -22h-30q-20 0 -20 19v897h-69v-837z" />
    <glyph glyph-name="periodcentered" unicode="&#xb7;" horiz-adv-x="326" 
d="M253 385q0 -18 -7 -34t-19 -28.5t-28.5 -19.5t-35.5 -7t-35.5 7t-28.5 19.5t-19 28.5t-7 34t7 34t19 28.5t28.5 19.5t35.5 7t35.5 -7t28.5 -19.5t19 -28.5t7 -34z" />
    <glyph glyph-name="cedilla" unicode="&#xb8;" horiz-adv-x="315" 
d="M173 -23q5 1 10 1h10q42 0 65.5 -28t23.5 -70t-32 -70t-95 -27q-22 0 -46.5 2t-41.5 9q-14 5 -20 17t-4.5 23.5t10.5 19.5t25 5q18 -3 31 -5t28 -3q17 -1 31.5 7t14.5 22q0 16 -12 22t-37 6h-24t-25 -2q-8 -1 -14.5 4t-2.5 15l36 101q4 12 17 12h57q7 0 9.5 -4.5
t0.5 -10.5z" />
    <glyph glyph-name="onesuperior" unicode="&#xb9;" horiz-adv-x="415" 
d="M170 693l-30 -20q-21 -15 -40 -11.5t-28.5 17t-7 33.5t24.5 38l86 72q5 5 10.5 7.5t14.5 2.5h68q25 0 25 -26v-281q0 -74 -17.5 -104t-50.5 -30h-30q-25 0 -25 26v276z" />
    <glyph glyph-name="ordmasculine" unicode="&#xba;" horiz-adv-x="480" 
d="M444 609q0 -58 -15 -101t-42 -71.5t-64.5 -42.5t-82.5 -14t-82.5 14t-64.5 42.5t-42 71.5t-15 101t15 101t42 71.5t64.5 42.5t82.5 14t82.5 -14t64.5 -42.5t42 -71.5t15 -101zM319 609q0 63 -17.5 98t-61.5 35t-61.5 -35t-17.5 -98t17.5 -98t61.5 -35t61.5 35t17.5 98z
" />
    <glyph glyph-name="onequarter" unicode="&#xbc;" 
d="M164 -20q-8 0 -13 6.5t1 17.5l457 770q10 16 26 16h87q9 0 13 -6t-1 -14l-425 -716q-26 -43 -43 -58.5t-33 -15.5h-69zM181 631l-30 -20q-21 -15 -40 -11.5t-28.5 17t-6.5 33t24 38.5l86 72q5 5 10.5 7.5t14.5 2.5h68q25 0 25 -26v-281q0 -74 -17.5 -104t-50.5 -30h-30
q-25 0 -25 26v276zM801 181h27q25 0 25 -26v-50q0 -26 -25 -26h-31v-6q0 -33 -20.5 -53t-43.5 -20h-27q-25 0 -25 26v53h-158q-45 0 -45 40v26q0 17 10 30l202 254q8 11 19 11h77q15 0 15 -14v-245zM681 181v109l-84 -109h84z" />
    <glyph glyph-name="onehalf" unicode="&#xbd;" 
d="M137 -20q-8 0 -13 6.5t1 17.5l457 770q10 16 26 16h87q9 0 13 -6t-1 -14l-425 -716q-26 -43 -43 -58.5t-33 -15.5h-69zM178 631l-30 -20q-21 -15 -40 -11.5t-28.5 17t-6.5 33t24 38.5l86 72q5 5 10.5 7.5t14.5 2.5h68q25 0 25 -26v-281q0 -74 -17.5 -104t-50.5 -30h-30
q-25 0 -25 26v276zM685 102h124q25 0 25 -26v-50q0 -26 -25 -26h-272q-16 0 -25.5 8.5t-9.5 25.5v24q0 13 9 21l143 135q28 26 41 52t8 52q-3 13 -9.5 20t-14.5 11t-15.5 5t-12.5 1q-21 0 -39 -7t-34 -16q-17 -9 -32 -5t-23.5 16t-6 28.5t21.5 31.5q29 23 63 34t64 11
q32 0 60 -7.5t49 -22.5t34 -38.5t16 -56.5q3 -41 -13.5 -80t-50.5 -71z" />
    <glyph glyph-name="threequarters" unicode="&#xbe;" 
d="M223 -20q-8 0 -13 6.5t1 17.5l457 770q10 16 26 16h87q9 0 13 -6t-1 -14l-425 -716q-26 -43 -43 -58.5t-33 -15.5h-69zM817 181h27q25 0 25 -26v-50q0 -26 -25 -26h-31v-6q0 -33 -20.5 -53t-43.5 -20h-27q-25 0 -25 26v53h-158q-45 0 -45 40v26q0 17 10 30l202 254
q8 11 19 11h77q15 0 15 -14v-245zM697 181v109l-84 -109h84zM197 519q-29 0 -46.5 11.5t-17.5 31.5v24q0 14 5 19.5t19 5.5h53q10 0 20 2t18 7t13 14.5t5 23.5q0 10 -5 16.5t-13 9.5t-17 4t-16 1q-21 0 -38 -5t-40 -14q-18 -7 -31.5 -0.5t-19.5 19t-3 27t18 23.5
q29 18 58 26.5t56 10.5q36 1 67.5 -4t55.5 -18.5t38 -36t14 -55.5q0 -37 -22 -60.5t-50 -32.5q42 -7 68 -35.5t26 -78.5q0 -66 -49.5 -100t-134.5 -34q-30 0 -69 10t-67 28q-19 12 -22.5 27.5t2.5 28t19.5 18t30.5 -2.5q29 -14 56 -18t50 -4q29 0 44 14t17 34
q2 26 -14.5 44.5t-64.5 18.5h-13z" />
    <glyph glyph-name="questiondown" unicode="&#xbf;" 
d="M558 313q2 -38 -6 -62.5t-27 -42.5l-101 -99q-29 -29 -51 -59t-22 -69q0 -44 33 -64t96 -20q39 0 77.5 11t71.5 28q23 11 41.5 4.5t27 -21.5t4.5 -35t-25 -35q-20 -15 -45 -26t-51.5 -18.5t-54 -11.5t-51.5 -4q-129 0 -194.5 45.5t-65.5 146.5q0 30 5 55.5t16 48.5t27 44
t39 43l94 91q15 14 21.5 24.5t7.5 27.5l1 13q2 29 15.5 48t31.5 19h57q11 0 18.5 -5.5t7.5 -19.5zM581 541q0 -18 -7 -34t-19 -28.5t-28.5 -19.5t-35.5 -7t-35.5 7t-28.5 19.5t-19 28.5t-7 34t7 34t19 28.5t28.5 19.5t35.5 7t35.5 -7t28.5 -19.5t19 -28.5t7 -34z" />
    <glyph glyph-name="AE" unicode="&#xc6;" 
d="M840 770q25 0 25 -26v-56q0 -26 -25 -26h-301v-211h291q25 0 25 -26v-56q0 -26 -25 -26h-291v-206q0 -29 31 -32q35 -3 67 -3.5t64.5 0.5t67.5 4t77 7q22 2 34.5 -11t14.5 -30.5t-8 -34t-33 -20.5q-41 -8 -88.5 -12.5t-95.5 -6.5t-93.5 -1.5t-81.5 4.5q-47 5 -69.5 25.5
t-22.5 66.5v75h-182l-44 -94q-15 -31 -38.5 -52.5t-52.5 -21.5h-57q-14 0 -21.5 9t1.5 26l368 721q7 14 21 14h442v0zM271 274h132v287q-6 -17 -12.5 -33.5t-14.5 -32.5z" />
    <glyph glyph-name="Eth" unicode="&#xd0;" horiz-adv-x="759" 
d="M352 770q87 0 156 -26.5t117 -76.5t73 -122t25 -162t-25 -162t-73 -122t-117 -76.5t-156 -26.5q-25 0 -63 1t-68 4q-47 5 -77 25.5t-30 66.5v248q-57 1 -83 17t-26 45v21q0 25 26 25h83v295q0 26 25 26h213zM419 367q0 -26 -25 -26h-144v-201q0 -29 31 -32q21 -2 33.5 -3
t35.5 -1q125 0 181 72t56 207t-56 207t-181 72h-100v-213h144q25 0 25 -26v-56z" />
    <glyph glyph-name="multiply" unicode="&#xd7;" horiz-adv-x="590" 
d="M53 146q-13 0 -17 9.5t2 17.5l185 219l-184 220q-7 8 -3.5 16t14.5 8h92q11 0 18 -3.5t12 -10.5l122 -145l123 145q6 7 12.5 10.5t17.5 3.5h92q11 0 14.5 -8t-3.5 -16l-184 -220l185 -219q6 -8 2 -17.5t-17 -9.5h-67q-19 0 -40 13.5t-48 43.5l-87 103l-86 -103
q-27 -30 -48 -43.5t-40 -13.5h-67z" />
    <glyph glyph-name="Oslash" unicode="&#xd8;" horiz-adv-x="748" 
d="M152 -60q-13 0 -19 8t-2 19l36 89q-66 51 -99.5 135.5t-33.5 193.5q0 87 22.5 159.5t65.5 125t106.5 81.5t146.5 29q47 0 91 -11l15 37q5 14 22 14h90q14 0 20 -7.5t2 -17.5l-34 -81q66 -51 100.5 -135.5t34.5 -193.5q0 -87 -22.5 -159.5t-65.5 -125t-107 -81.5t-146 -29
q-49 0 -95 11q-13 -28 -27 -44.5t-31 -16.5h-70zM375 98q45 0 82 17t64 52.5t42 89.5t15 128q0 69 -13.5 120.5t-36.5 86.5l-206 -488q25 -6 53 -6zM172 385q0 -69 13 -120t36 -86l203 487q-23 6 -49 6q-45 0 -82 -17t-64 -52.5t-42 -89.5t-15 -128z" />
    <glyph glyph-name="Thorn" unicode="&#xde;" horiz-adv-x="546" 
d="M65 744q0 26 25 26h86q25 0 25 -26v-87q155 -12 237.5 -81t82.5 -191t-83 -191.5t-238 -81.5q-2 -62 -19.5 -87t-47.5 -25h-43q-25 0 -25 26v718zM385 385q0 30 -8.5 56.5t-29.5 47.5t-56.5 36t-89.5 22v-324q54 6 89.5 21t56.5 36.5t29.5 48t8.5 56.5z" />
    <glyph glyph-name="germandbls" unicode="&#xdf;" horiz-adv-x="661" 
d="M201 134q0 -74 -17.5 -104t-50.5 -30h-43q-25 0 -25 26v531q0 48 17 87t51 67.5t84.5 44t116.5 15.5q47 0 94.5 -10t85.5 -33.5t62 -63t24 -97.5q0 -64 -34.5 -107t-85.5 -60q69 -17 107.5 -67.5t38.5 -119.5q0 -48 -15.5 -89t-46.5 -71t-76 -47t-103 -17q-48 0 -85 11.5
t-63 30.5q-15 11 -19 29t2.5 33t21.5 23.5t38 0.5q18 -7 44 -13.5t64 -6.5q45 0 73.5 33t28.5 83q0 60 -34 95t-118 35h-14q-31 0 -51.5 3t-33 10.5t-17.5 19t-5 29.5v21q0 25 26 25h96q66 0 95.5 32t29.5 84q0 24 -11.5 41t-29.5 28.5t-41.5 17t-47.5 5.5q-74 0 -103.5 -30
t-29.5 -92v-403z" />
    <glyph glyph-name="ae" unicode="&#xe6;" 
d="M653 98q27 0 58 2.5t63 13.5q27 9 43 -0.5t21 -27t-2 -36.5t-27 -29q-65 -31 -156 -31q-48 0 -98 15t-89 50q-52 -37 -107.5 -51t-110.5 -14q-116 0 -170 47.5t-54 129.5q0 41 13 77t40.5 62.5t70 42t100.5 15.5q35 0 65 -4t66 -13v38q0 12 -3 24.5t-12 22t-26.5 16
t-45.5 6.5q-43 0 -76 -8t-67 -20q-26 -9 -44 -0.5t-25.5 24.5t-2.5 34.5t26 30.5q18 10 40.5 18.5t47 14.5t50.5 9t51 3q118 0 180 -59q33 29 73.5 44t91.5 15q58 0 106 -20.5t82 -58.5t52.5 -91t18.5 -117q0 -26 -10 -37.5t-28 -11.5h-342q2 -63 37.5 -94.5t99.5 -31.5z
M254 99q34 0 69.5 12t55.5 32v103q-26 5 -58 7.5t-67 2.5q-45 0 -69.5 -19.5t-24.5 -58.5t24.5 -59t69.5 -20zM637 452q-48 0 -81 -27t-41 -93h244q-5 63 -37 91.5t-85 28.5z" />
    <glyph glyph-name="eth" unicode="&#xf0;" horiz-adv-x="598" 
d="M573 275q0 -68 -20 -120.5t-56 -89.5t-86.5 -56t-111.5 -19q-62 0 -112.5 19t-86.5 56t-55.5 89.5t-19.5 120.5q0 67 19.5 120t55.5 90t86.5 56t112.5 19t114 -20q-11 38 -28 66q-13 -11 -24.5 -15t-24.5 -4h-55q-8 0 -12.5 6.5t3.5 15.5l54 64q-12 11 -26.5 21.5
t-31.5 21.5q-18 12 -20 28t7 29t26.5 18.5t37.5 -4.5q39 -20 70 -40l24 28q5 6 10.5 10t14.5 4h73q11 0 13.5 -7.5t-2.5 -14.5l-65 -77q30 -31 52 -70t36 -89t21 -113t7 -143zM161 275q0 -93 37.5 -135t100.5 -42t100.5 42t37.5 135q0 85 -33.5 131t-104.5 46t-104.5 -46
t-33.5 -131z" />
    <glyph glyph-name="divide" unicode="&#xf7;" horiz-adv-x="616" 
d="M581 367q0 -26 -25 -26h-404q-62 0 -90 16t-28 46v21q0 25 26 25h496q25 0 25 -26v-56zM222 196q0 17 6.5 32.5t18.5 27t27.5 18.5t33.5 7q36 0 60.5 -25t24.5 -60t-24.5 -60t-60.5 -25q-18 0 -33.5 7t-27.5 18.5t-18.5 27t-6.5 32.5zM222 594q0 17 6.5 32.5t18.5 27
t27.5 18.5t33.5 7q36 0 60.5 -25t24.5 -60t-24.5 -60t-60.5 -25q-18 0 -33.5 7t-27.5 18.5t-18.5 27t-6.5 32.5z" />
    <glyph glyph-name="oslash" unicode="&#xf8;" horiz-adv-x="598" 
d="M129 -70q-13 0 -19 8t-2 19l28 79q-53 35 -83 95.5t-30 143.5q0 67 20.5 120t57.5 90t88 56t113 19q6 0 12 -0.5t12 -0.5l18 49q5 14 22 14h90q14 0 20 -7.5t2 -17.5l-27 -73q61 -34 96 -97t35 -152q0 -68 -20.5 -120.5t-58 -89.5t-89 -56t-112.5 -19q-23 0 -44 3
q-12 -29 -27 -46t-32 -17h-70zM446 275q0 88 -39 133l-113 -310h8q63 0 103.5 42.5t40.5 134.5zM159 275q0 -72 26 -115l105 291q-65 -4 -98 -49.5t-33 -126.5z" />
    <glyph glyph-name="thorn" unicode="&#xfe;" horiz-adv-x="633" 
d="M610 275q0 -68 -20 -120.5t-56 -89.5t-87 -56t-112 -19q-79 0 -139 31v-98q0 -74 -17.5 -104t-50.5 -30h-43q-25 0 -25 26v948q0 26 25 26h86q25 0 25 -26v-234q60 31 139 31q61 0 112 -19t87 -56t56 -90t20 -120zM197 275q0 -93 37.5 -135t100.5 -42t101 42t38 135
q0 85 -34 131t-105 46t-104.5 -46t-33.5 -131z" />
    <glyph glyph-name="dcroat" unicode="&#x111;" horiz-adv-x="681" 
d="M676 626q0 -26 -25 -26h-85v-466q0 -74 -17.5 -104t-50.5 -30h-43q-13 0 -19 11.5t-6 23.5q-29 -23 -62.5 -34t-68.5 -11q-62 0 -112.5 19t-86.5 54.5t-55.5 86.5t-19.5 115t19.5 115t55.5 86.5t86.5 54.5t112.5 19q38 0 71.5 -8.5t59.5 -21.5v90h-38q-62 0 -90 16
t-28 46v21q0 25 26 25h130v55q0 26 25 26h86q25 0 25 -26v-55h85q25 0 25 -26v-56zM300 98q42 0 78 15.5t52 40.5v229q-19 25 -53.5 37t-76.5 12q-62 0 -100.5 -45.5t-38.5 -121.5t38.5 -121.5t100.5 -45.5z" />
    <glyph glyph-name="Hbar" unicode="&#x126;" horiz-adv-x="799" 
d="M568 354h-317v-220q0 -74 -17.5 -104t-50.5 -30h-43q-25 0 -25 26v514q-58 1 -84 17t-26 45v21q0 25 26 25h84v96q0 26 25 26h86q25 0 25 -26v-96h317v96q0 26 25 26h86q25 0 25 -26v-96h65q25 0 25 -26v-56q0 -26 -25 -26h-65v-406q0 -74 -17.5 -104t-50.5 -30h-43
q-25 0 -25 26v328zM251 460h317v80h-317v-80z" />
    <glyph glyph-name="hbar" unicode="&#x127;" horiz-adv-x="675" 
d="M407 626q0 -26 -25 -26h-131v-105q29 19 64.5 32t80.5 13q113 0 168.5 -47.5t55.5 -155.5v-203q0 -74 -17.5 -104t-50.5 -30h-43q-25 0 -25 26v311q0 55 -26.5 75t-74.5 20q-34 0 -68.5 -9.5t-63.5 -27.5v-261q0 -74 -17.5 -104t-50.5 -30h-43q-25 0 -25 26v574
q-58 1 -84 17t-26 45v21q0 25 26 25h84v55q0 26 25 26h86q25 0 25 -26v-55h131q25 0 25 -26v-56z" />
    <glyph glyph-name="dotlessi" unicode="&#x131;" horiz-adv-x="252" 
d="M58 524q0 26 25 26h86q25 0 25 -26v-390q0 -74 -17.5 -104t-50.5 -30h-43q-25 0 -25 26v498z" />
    <glyph glyph-name="IJ" unicode="&#x132;" horiz-adv-x="615" 
d="M49 744q0 26 25 26h86q25 0 25 -26v-610q0 -74 -17.5 -104t-50.5 -30h-43q-25 0 -25 26v718zM566 196q0 -56 -18 -95t-48.5 -63.5t-70.5 -36t-84 -11.5q-38 0 -68.5 6.5t-57.5 23.5q-17 10 -22.5 29t-0.5 36t19.5 26.5t38.5 0.5q25 -9 44 -11.5t44 -2.5q49 0 68.5 34
t19.5 97v515q0 26 25 26h86q25 0 25 -26v-548z" />
    <glyph glyph-name="ij" unicode="&#x133;" horiz-adv-x="414" 
d="M41 519q0 26 25 26h86q25 0 25 -26v-385q0 -74 -17.5 -104t-50.5 -30h-43q-25 0 -25 26v493zM179 -108q31 0 44.5 21.5t13.5 63.5v542q0 26 25 26h86q25 0 25 -26v-542q0 -92 -42 -142.5t-140 -50.5q-30 0 -55 8.5t-37 17.5q-15 11 -19.5 29t1 34t18.5 25t33 2
q11 -5 25 -6.5t22 -1.5zM27 700q0 40 22.5 64.5t60.5 24.5t60.5 -24.5t22.5 -64.5q0 -38 -22.5 -63.5t-60.5 -25.5t-60.5 24.5t-22.5 64.5zM222 700q0 40 22.5 64.5t60.5 24.5t60.5 -24.5t22.5 -64.5q0 -38 -22.5 -63.5t-60.5 -25.5t-60.5 24.5t-22.5 64.5z" />
    <glyph glyph-name="kgreenlandic" unicode="&#x138;" horiz-adv-x="542" 
d="M60 524q0 26 25 26h86q25 0 25 -26v-131l146 145q12 12 27 12h122q17 0 20 -13t-9 -24l-180 -167q-18 -17 -35 -31.5t-35 -28.5q16 -15 31 -30.5t30 -29.5l202 -192q11 -11 5.5 -22.5t-18.5 -11.5h-95q-21 0 -44.5 10t-58.5 46l-108 115v-37q0 -74 -17.5 -104t-50.5 -30
h-43q-25 0 -25 26v498z" />
    <glyph glyph-name="Ldot" unicode="&#x13f;" horiz-adv-x="556" 
d="M201 137q0 -29 31 -32q35 -3 65.5 -3.5t62 0.5t65.5 4t76 7q22 2 34.5 -11t14.5 -30t-8 -33.5t-33 -21.5q-35 -8 -79 -12.5t-90.5 -6.5t-91.5 -1.5t-81 4.5q-47 5 -74.5 25.5t-27.5 66.5v651q0 26 25 26h86q25 0 25 -26v-607zM270 425q0 16 6.5 31t17.5 26t26.5 18
t32.5 7t32 -7t26.5 -18t18 -26t6.5 -31t-6.5 -31t-18 -26t-26.5 -18t-32 -7t-32.5 7t-26.5 18t-17.5 26t-6.5 31z" />
    <glyph glyph-name="ldot" unicode="&#x140;" horiz-adv-x="466" 
d="M58 763q0 26 25 26h86q25 0 25 -26v-629q0 -74 -17.5 -104t-50.5 -30h-43q-25 0 -25 26v737zM240 425q0 16 6.5 31t17.5 26t26.5 18t32.5 7t32 -7t26.5 -18t18 -26t6.5 -31t-6.5 -31t-18 -26t-26.5 -18t-32 -7t-32.5 7t-26.5 18t-17.5 26t-6.5 31z" />
    <glyph glyph-name="Lslash" unicode="&#x141;" horiz-adv-x="616" 
d="M17 170q-10 0 -13 7t4 16l157 197v354q0 26 25 26h86q25 0 25 -26v-183l44 56q9 14 24 14h78q14 0 15 -8t-4 -16l-157 -197v-273q0 -29 31 -32q35 -3 59.5 -3.5t48.5 0.5t51.5 4t69.5 7q22 2 34.5 -11t14.5 -30t-8 -33.5t-33 -21.5q-69 -15 -149 -19.5t-153 3.5
q-47 5 -74.5 25.5t-27.5 66.5v147l-6 -7q-26 -33 -49.5 -48t-41.5 -15h-51z" />
    <glyph glyph-name="lslash" unicode="&#x142;" horiz-adv-x="434" 
d="M17 170q-10 0 -13 7t4 16l151 209v361q0 26 25 26h86q25 0 25 -26v-173l19 27q9 14 24 14h78q14 0 15 -8t-4 -16l-132 -184v-289q0 -74 -17.5 -104t-50.5 -30h-43q-25 0 -25 26v207q-26 -33 -49.5 -48t-41.5 -15h-51z" />
    <glyph glyph-name="napostrophe" unicode="&#x149;" horiz-adv-x="761" 
d="M717 134q0 -74 -17.5 -104t-50.5 -30h-43q-25 0 -25 26v331q0 55 -26.5 75t-74.5 20q-34 0 -68.5 -11t-63.5 -36v-271q0 -74 -17.5 -104t-50.5 -30h-43q-25 0 -25 26v498q0 26 25 26h85q25 0 25 -26l1 -19q31 25 68 40t82 15q109 0 164 -47.5t55 -155.5v-223v0zM16 570
q0 36 26 61.5t64 25.5q40 0 65 -27t25 -64v-6q0 -61 -20 -110.5t-58 -81.5q-14 -12 -28 -12.5t-22.5 6t-10 18t9.5 22.5q12 12 23.5 37t9.5 51q-38 1 -61 23.5t-23 56.5z" />
    <glyph glyph-name="Eng" unicode="&#x14a;" horiz-adv-x="719" 
d="M654 90q0 -56 -18 -95t-48 -63.5t-70 -36t-84 -11.5q-38 0 -76.5 10t-65.5 27q-17 10 -22.5 29t-0.5 36t19.5 26.5t38.5 0.5q25 -9 52 -15t52 -6q42 0 64.5 17.5t22.5 49.5v7l-281 410q-11 17 -19.5 34.5t-16.5 34.5v-411q0 -74 -17.5 -104t-50.5 -30h-43q-25 0 -25 26
v718q0 10 5 18t19 8h104q11 0 18 -11l273 -400q10 -16 18 -28t16 -29v442q0 26 25 26h86q25 0 25 -26v-654z" />
    <glyph glyph-name="eng" unicode="&#x14b;" horiz-adv-x="620" 
d="M565 -23q0 -92 -42 -142.5t-140 -50.5q-30 0 -55 8.5t-37 17.5q-15 11 -19.5 29t1 34t18.5 25t33 2q11 -5 25 -6.5t22 -1.5q31 0 44.5 21.5t13.5 63.5v380q0 55 -26.5 75t-74.5 20q-34 0 -68.5 -11t-63.5 -36v-271q0 -74 -17.5 -104t-50.5 -30h-43q-25 0 -25 26v498
q0 26 25 26h85q25 0 25 -26l1 -19q31 25 68 40t82 15q109 0 164 -47.5t55 -155.5v-380z" />
    <glyph glyph-name="OE" unicode="&#x152;" 
d="M539 451h291q25 0 25 -26v-56q0 -26 -25 -26h-291v-206q0 -29 31 -32q35 -3 67 -3.5t64.5 0.5t67.5 4t77 7q22 2 34.5 -11t14.5 -30.5t-8 -34t-33 -20.5q-182 -33 -369 -15q-51 -12 -111 -12q-82 0 -145.5 27.5t-106.5 78.5t-65 124t-22 165q0 93 21.5 166.5t64 124.5
t106 77.5t147.5 26.5q22 0 47 -2.5t50 -7.5h369q25 0 25 -26v-56q0 -26 -25 -26h-301v-211zM403 98v573q-8 1 -14.5 1h-12.5q-53 0 -91.5 -21.5t-63.5 -59.5t-37.5 -90.5t-12.5 -115.5t12 -115.5t37 -90.5t64 -59.5t92 -21.5h27z" />
    <glyph glyph-name="oe" unicode="&#x153;" 
d="M668 98q27 0 50.5 2.5t55.5 13.5q27 9 43 -0.5t21 -27t-2 -36.5t-27 -29q-33 -16 -64 -23.5t-77 -7.5q-72 0 -124 24t-84 69q-31 -45 -79 -69t-113 -24q-116 0 -179 74.5t-63 210.5t63 210.5t179 74.5q65 0 113.5 -24t79.5 -70q31 45 78.5 69.5t112.5 24.5
q58 0 103.5 -20.5t76.5 -58.5t47.5 -91t16.5 -117q0 -26 -10 -37.5t-28 -11.5h-310q2 -63 28.5 -94.5t91.5 -31.5zM162 275q0 -46 9 -79.5t24 -55t34 -32t39 -10.5t39 10.5t34 32t24 55t9 79.5q0 85 -29 131t-77 46t-77 -46t-29 -131zM759 332q-5 63 -33.5 91.5t-73.5 28.5
t-73 -28.5t-33 -91.5h213z" />
    <glyph glyph-name="Tbar" unicode="&#x166;" horiz-adv-x="586" 
d="M522 378q0 -26 -25 -26h-136v-218q0 -74 -17.5 -104t-50.5 -30h-43q-25 0 -25 26v326h-41q-62 0 -90 16t-28 46v21q0 25 26 25h133v202h-102q-62 0 -90 16t-28 46v21q0 25 26 25h525q25 0 25 -26v-56q0 -26 -25 -26h-195v-202h136q25 0 25 -26v-56z" />
    <glyph glyph-name="tbar" unicode="&#x167;" horiz-adv-x="357" 
d="M222 571h55q25 0 25 -26v-56q0 -26 -25 -26h-55v-64h40q25 0 25 -26v-56q0 -26 -25 -26h-40v-129q0 -26 3 -41.5t17 -20.5q12 -4 35 3q27 9 43 0t20.5 -26t-2.5 -36.5t-26 -30.5t-45 -16.5t-55 -2.5q-65 6 -95.5 48t-30.5 133v123q-35 6 -50.5 20.5t-15.5 37.5v21
q0 25 26 25h40v66q-42 5 -61.5 19.5t-19.5 40.5v21q0 25 26 25h55v173q0 26 25 26h86q25 0 25 -26v-173z" />
    <glyph glyph-name="afii57929" unicode="&#x2bc;" horiz-adv-x="226" 
d="M23 753q0 36 26 61.5t64 25.5q40 0 65 -27t25 -64v-6q0 -61 -20 -110.5t-58 -81.5q-14 -12 -28 -12.5t-22.5 6t-10 18t9.5 22.5q12 12 23.5 37t9.5 51q-38 1 -61 23.5t-23 56.5z" />
    <glyph glyph-name="caron" unicode="&#x2c7;" horiz-adv-x="494" 
d="M324 792q-19 -16 -31 -22t-25 -6h-45q-20 0 -30 9l-131 114q-6 6 -3 12t12 6h78q12 0 24 -9l42 -36q8 -7 17 -15t15 -14q6 6 15 14t17 15l41 36q12 9 25 9h76q11 0 13 -7t-4 -12z" />
    <glyph glyph-name="uni02D0" unicode="&#x2d0;" horiz-adv-x="480" 
d="M348 660l-108 -180l-108 180h216zM132 40l108 180l108 -180h-216z" />
    <glyph glyph-name="breve" unicode="&#x2d8;" horiz-adv-x="494" 
d="M247 764q-84 0 -128 30.5t-44 84.5v11q0 14 15 14h79q15 0 15 -14v-6q0 -20 16 -28.5t47 -9.5q35 -1 49 9.5t14 28.5v6q0 14 15 14h79q15 0 15 -14v-11q0 -54 -45 -84.5t-127 -30.5z" />
    <glyph glyph-name="dotaccent" unicode="&#x2d9;" horiz-adv-x="326" 
d="M246 801q0 -33 -24 -57.5t-59 -24.5t-59 24.5t-24 57.5t24 57.5t59 24.5t59 -24.5t24 -57.5z" />
    <glyph glyph-name="ring" unicode="&#x2da;" horiz-adv-x="368" 
d="M228 801q0 19 -12 31.5t-32 12.5t-32 -12.5t-12 -31.5t12 -31.5t32 -12.5t32 12.5t12 31.5zM309 801q0 -51 -34.5 -84.5t-90.5 -33.5t-90.5 33.5t-34.5 84.5t34.5 84.5t90.5 33.5t90.5 -33.5t34.5 -84.5z" />
    <glyph glyph-name="ogonek" unicode="&#x2db;" horiz-adv-x="315" 
d="M189 -144q12 0 27 3t26 7q15 6 25 -0.5t14 -17.5t0.5 -24t-13.5 -20q-13 -9 -38.5 -15t-54.5 -6q-57 0 -93 26t-36 77q0 39 20.5 76t52.5 68q8 8 19 8h56q9 0 11 -5.5t-3 -11.5q-15 -19 -25 -34t-16 -28.5t-9.5 -26.5t-5.5 -26q-7 -48 43 -50z" />
    <glyph glyph-name="hungarumlaut" unicode="&#x2dd;" horiz-adv-x="453" 
d="M65 573q-8 0 -14.5 4t-2.5 18l58 226q3 14 20 14h94q10 0 14.5 -6.5t0.5 -17.5l-57 -164q-14 -38 -34 -56t-39 -18h-40zM233 573q-8 0 -14.5 4t-2.5 18l58 226q3 14 20 14h94q10 0 14.5 -6.5t0.5 -17.5l-57 -164q-14 -38 -34 -56t-39 -18h-40z" />
    <glyph glyph-name="Alpha" unicode="&#x391;" horiz-adv-x="656" 
d="M465 168h-274l-31 -94q-11 -33 -26.5 -53.5t-34.5 -20.5h-77q-14 0 -20.5 8.5t0.5 26.5l265 721q5 14 20 14h82q15 0 20 -14l265 -721q7 -18 0.5 -26.5t-20.5 -8.5h-77q-19 0 -35 20.5t-26 53.5zM226 274h204l-80 244q-8 24 -12.5 48.5t-9.5 49.5q-5 -25 -9.5 -49
t-12.5 -49z" />
    <glyph glyph-name="Beta" unicode="&#x392;" horiz-adv-x="661" 
d="M157 1q-47 4 -69.5 25t-22.5 67v651q0 26 25 26h249q126 0 193.5 -55.5t67.5 -147.5q0 -64 -34.5 -107t-85.5 -60q69 -17 107.5 -67.5t38.5 -119.5q0 -52 -20.5 -92.5t-58 -68t-90.5 -42t-117 -14.5h-42t-49.5 1t-49.5 1.5t-42 2.5zM201 343v-203q0 -28 30 -32
q4 -1 15.5 -1.5t24 -1t24.5 -1t18 -0.5q49 0 83 8.5t55 24t30 36.5t9 45q0 60 -41.5 92.5t-127.5 32.5h-120zM201 662v-211h118q70 0 107.5 30.5t37.5 85.5q0 50 -43.5 72.5t-128.5 22.5h-91z" />
    <glyph glyph-name="Gamma" unicode="&#x393;" horiz-adv-x="540" 
d="M60 744q0 26 25 26h416q25 0 25 -26v-56q0 -26 -25 -26h-305v-528q0 -74 -17.5 -104t-50.5 -30h-43q-25 0 -25 26v718z" />
    <glyph glyph-name="uni0394" unicode="&#x394;" horiz-adv-x="656" 
d="M27 0q-14 0 -23 8.5t-2 26.5l265 721q5 14 20 14h82q15 0 20 -14l265 -721q7 -18 0.5 -26.5t-20.5 -8.5h-607zM170 106h315l-135 402q-8 24 -12.5 48.5t-9.5 49.5q-5 -25 -9.5 -49t-12.5 -49z" />
    <glyph glyph-name="Epsilon" unicode="&#x395;" horiz-adv-x="605" 
d="M201 451h315q25 0 25 -26v-56q0 -26 -25 -26h-315v-206q0 -29 31 -32q71 -6 143.5 -3t156.5 11q22 2 34.5 -11t14.5 -30.5t-8 -34t-33 -20.5q-41 -8 -92.5 -12.5t-104 -6.5t-101.5 -1.5t-85 4.5q-47 5 -69.5 25.5t-22.5 66.5v651q0 26 25 26h436q25 0 25 -26v-56
q0 -26 -25 -26h-325v-211z" />
    <glyph glyph-name="Zeta" unicode="&#x396;" horiz-adv-x="587" 
d="M351 631q11 17 22 31h-215q-62 0 -90 16t-28 46v21q0 25 26 25h450q14 0 19.5 -7t5.5 -18v-46q0 -13 -8 -26l-289 -470q-11 -17 -21.5 -32.5t-21.5 -32.5q-8 -13 -2.5 -21.5t20.5 -10.5q58 -6 128 -4.5t158 9.5q28 3 41.5 -10.5t14.5 -31t-10.5 -34t-33.5 -20.5
q-42 -8 -97 -13t-112.5 -6.5t-112 0t-95.5 5.5q-23 2 -40.5 13.5t-26.5 28t-9 36t12 38.5z" />
    <glyph glyph-name="Eta" unicode="&#x397;" horiz-adv-x="719" 
d="M518 352h-317v-218q0 -74 -17.5 -104t-50.5 -30h-43q-25 0 -25 26v718q0 26 25 26h86q25 0 25 -26v-284h317v284q0 26 25 26h86q25 0 25 -26v-610q0 -74 -17.5 -104t-50.5 -30h-43q-25 0 -25 26v326z" />
    <glyph glyph-name="Theta" unicode="&#x398;" horiz-adv-x="748" 
d="M374 -10q-83 0 -146.5 29t-106.5 81.5t-65.5 125t-22.5 159.5t22.5 159.5t65.5 125t106.5 81.5t146.5 29q82 0 146 -29t107 -81.5t65.5 -125t22.5 -159.5t-22.5 -159.5t-65.5 -125t-107 -81.5t-146 -29zM374 98q45 0 82 17t64 52.5t42 89.5t15 128t-15 128t-42 89.5
t-64 52.5t-82 17t-82 -17t-64 -52.5t-42 -89.5t-15 -128t15 -128t42 -89.5t64 -52.5t82 -17zM541 367q0 -26 -25 -26h-193q-62 0 -90 16t-28 46v21q0 25 26 25h285q25 0 25 -26v-56z" />
    <glyph glyph-name="Iota" unicode="&#x399;" horiz-adv-x="254" 
d="M59 744q0 26 25 26h86q25 0 25 -26v-610q0 -74 -17.5 -104t-50.5 -30h-43q-25 0 -25 26v718z" />
    <glyph glyph-name="Kappa" unicode="&#x39a;" horiz-adv-x="634" 
d="M65 744q0 26 25 26h86q25 0 25 -26v-211l234 225q6 5 12.5 8.5t14.5 3.5h119q18 0 21 -13.5t-12 -27.5l-273 -267q-17 -16 -32 -29t-32 -27q17 -15 32 -29t32 -31l304 -312q11 -11 6 -22.5t-20 -11.5h-95q-20 0 -44 13t-61 48l-206 212v-139q0 -74 -17.5 -104t-50.5 -30
h-43q-25 0 -25 26v718z" />
    <glyph glyph-name="Lambda" unicode="&#x39b;" horiz-adv-x="656" 
d="M350 508q-8 24 -12.5 48.5t-9.5 49.5q-5 -25 -9.5 -49t-12.5 -49l-146 -434q-11 -33 -26.5 -53.5t-34.5 -20.5h-77q-14 0 -20.5 8.5t0.5 26.5l265 721q5 14 20 14h82q15 0 20 -14l265 -721q7 -18 0.5 -26.5t-20.5 -8.5h-77q-19 0 -35 20.5t-26 53.5z" />
    <glyph glyph-name="Mu" unicode="&#x39c;" horiz-adv-x="910" 
d="M708 498q-8 -30 -17.5 -65t-22.5 -65l-137 -317q-12 -29 -24 -40t-31 -11h-60q-15 0 -20 14l-153 354q-13 31 -23 66t-19 66v-366q0 -74 -17.5 -104t-50.5 -30h-43q-25 0 -25 26v718q0 26 25 26h96q11 0 15.5 -5.5t8.5 -13.5l206 -475q8 -21 19.5 -47.5t19.5 -47.5
q8 21 20 48t20 47l204 472q5 10 9.5 16t15.5 6h95q25 0 25 -26v-610q0 -74 -17.5 -104t-50.5 -30h-43q-25 0 -25 26v472z" />
    <glyph glyph-name="Nu" unicode="&#x39d;" horiz-adv-x="719" 
d="M523 744q0 26 25 26h86q25 0 25 -26v-670q0 -32 -9 -53t-28 -21h-94q-13 0 -21 13l-270 463q-11 17 -19.5 34.5t-16.5 34.5v-411q0 -74 -17.5 -104t-50.5 -30h-43q-25 0 -25 26v718q0 10 5 18t19 8h104q11 0 18 -11l278 -464q10 -16 18 -33l16 -34v516z" />
    <glyph glyph-name="Xi" unicode="&#x39e;" horiz-adv-x="652" 
d="M607 688q0 -26 -25 -26h-419q-62 0 -90 16t-28 46v21q0 25 26 25h511q25 0 25 -26v-56zM552 369q0 -26 -25 -26h-309q-62 0 -90 16t-28 46v21q0 25 26 25h401q25 0 25 -26v-56zM110 6q-17 1 -32.5 4.5t-27 10t-18.5 17t-7 25.5v28q0 20 9 23.5t16 2.5q64 -5 134 -6
t140 0.5t135.5 4.5t121.5 8q23 2 34.5 -12.5t12.5 -33t-9 -35.5t-31 -20q-47 -8 -108 -13.5t-126 -7.5t-128.5 -1.5t-115.5 5.5z" />
    <glyph glyph-name="Omicron" unicode="&#x39f;" horiz-adv-x="748" 
d="M374 -10q-83 0 -146.5 29t-106.5 81.5t-65.5 125t-22.5 159.5t22.5 159.5t65.5 125t106.5 81.5t146.5 29q82 0 146 -29t107 -81.5t65.5 -125t22.5 -159.5t-22.5 -159.5t-65.5 -125t-107 -81.5t-146 -29zM374 98q45 0 82 17t64 52.5t42 89.5t15 128t-15 128t-42 89.5
t-64 52.5t-82 17t-82 -17t-64 -52.5t-42 -89.5t-15 -128t15 -128t42 -89.5t64 -52.5t82 -17z" />
    <glyph glyph-name="Pi" unicode="&#x3a0;" horiz-adv-x="719" 
d="M518 662h-317v-528q0 -74 -17.5 -104t-50.5 -30h-43q-25 0 -25 26v718q0 26 25 26h539q25 0 25 -26v-610q0 -74 -17.5 -104t-50.5 -30h-43q-25 0 -25 26v636z" />
    <glyph glyph-name="Rho" unicode="&#x3a1;" horiz-adv-x="622" 
d="M65 744q0 26 25 26h259q56 0 100 -17t75 -47.5t47 -73t16 -93.5t-16 -93.5t-47 -72.5t-75 -47t-100 -17h-148v-175q0 -74 -17.5 -104t-50.5 -30h-43q-25 0 -25 26v718zM201 662v-245h91q83 0 121 31.5t38 90.5q0 64 -40.5 93.5t-118.5 29.5h-91z" />
    <glyph glyph-name="Sigma" unicode="&#x3a3;" horiz-adv-x="650" 
d="M187 134q-9 -12 -4.5 -21t19.5 -11q69 -6 148.5 -4t164.5 12q23 3 34 -10.5t12 -30.5t-8 -33t-26 -19q-42 -8 -99.5 -12.5t-118.5 -6.5t-119.5 -1.5t-102.5 4.5q-23 2 -38 14t-21.5 28.5t-4.5 36t14 36.5l203 284l-191 269q-6 9 -12.5 21t-6.5 25v30q0 25 26 25h450
q25 0 25 -26v-56q0 -26 -25 -26h-316l150 -204q7 -10 11 -17t4 -21v-44q0 -8 -4 -16.5t-9 -15.5z" />
    <glyph glyph-name="Tau" unicode="&#x3a4;" horiz-adv-x="586" 
d="M581 688q0 -26 -25 -26h-196v-528q0 -74 -17.5 -104t-50.5 -30h-43q-25 0 -25 26v636h-101q-62 0 -90 16t-28 46v21q0 25 26 25h525q25 0 25 -26v-56z" />
    <glyph glyph-name="Upsilon" unicode="&#x3a5;" horiz-adv-x="627" 
d="M381 363v-229q0 -74 -17.5 -104t-50.5 -30h-43q-25 0 -25 26v337l-233 372q-8 14 -3.5 24.5t21.5 10.5h90q12 0 21 -14l134 -223q10 -15 20 -35.5t18 -37.5q8 17 18 37.5t20 35.5l134 223q9 14 21 14h90q17 0 21.5 -10.5t-3.5 -24.5z" />
    <glyph glyph-name="Phi" unicode="&#x3a6;" horiz-adv-x="728" 
d="M25 385q0 51 18.5 96.5t53 81t85 59.5t114.5 33v89q0 26 25 26h86q25 0 25 -26v-89q64 -9 114.5 -33t85 -59.5t53 -81t18.5 -96.5t-18.5 -96.5t-53 -81.5t-85 -60t-114.5 -33q-2 -63 -19.5 -88.5t-48.5 -25.5h-43q-25 0 -25 26v88q-64 9 -114.5 33t-85 60t-53 81.5
t-18.5 96.5zM569 385q0 57 -33.5 102.5t-106.5 60.5v-326q73 15 106.5 60t33.5 103zM159 385q0 -58 33.5 -103t106.5 -60v326q-73 -15 -106.5 -60.5t-33.5 -102.5z" />
    <glyph glyph-name="Chi" unicode="&#x3a7;" horiz-adv-x="626" 
d="M355 197q-11 17 -22 33.5t-21 33.5q-10 -17 -20.5 -33.5t-21.5 -33.5l-77 -123q-23 -37 -48 -55.5t-47 -18.5h-68q-17 0 -23 12t5 27l156 241q17 27 34 53.5t34 52.5q-17 27 -34 54.5t-34 54.5l-151 241q-8 12 -3.5 23t22.5 11h90q15 0 26 -16l116 -181l22 -34l22 -34
q11 18 22 34t22 34l117 181q11 16 26 16h90q18 0 22.5 -11t-3.5 -23l-152 -243q-17 -26 -33.5 -53t-33.5 -54l34 -52t34 -53l156 -242q11 -15 5 -27t-23 -12h-68q-22 0 -47 18.5t-48 55.5z" />
    <glyph glyph-name="Psi" unicode="&#x3a8;" horiz-adv-x="762" 
d="M568 744q0 26 25 26h84q25 0 25 -26v-314q0 -113 -67.5 -170.5t-185.5 -64.5v-61q0 -74 -17.5 -104t-50.5 -30h-43q-25 0 -25 26v169q-118 7 -185.5 64.5t-67.5 170.5v314q0 26 25 26h84q25 0 25 -26v-306q0 -65 30.5 -95t88.5 -40v441q0 26 25 26h86q25 0 25 -26v-441
q58 10 88.5 40t30.5 95v306z" />
    <glyph glyph-name="uni03A9" unicode="&#x3a9;" horiz-adv-x="800" 
d="M435 0q-11 0 -15.5 6t-4.5 15v56q0 5 2 13t10 13q88 60 134 136t46 181q0 63 -16.5 110t-45.5 79t-69 48t-87 16t-87 -14.5t-69 -45.5t-45.5 -79t-16.5 -114q0 -106 47.5 -183t132.5 -134q8 -5 10 -13t2 -13v-56q0 -21 -19 -21h-182q-62 0 -90 16t-28 46v21q0 25 26 25
h101q-29 28 -54 63.5t-43 76t-28.5 84t-10.5 88.5q0 83 26 149.5t72.5 113.5t111.5 72t144 25t144 -25t111.5 -72t72.5 -113.5t26 -149.5q0 -45 -10.5 -88.5t-29 -84t-43.5 -76t-53 -63.5h101q25 0 25 -26v-56q0 -26 -25 -26h-273z" />
    <glyph glyph-name="alpha" unicode="&#x3b1;" horiz-adv-x="663" 
d="M636 5q-11 -5 -31.5 -10.5t-42.5 -3.5q-73 6 -102 55q-68 -56 -171 -56q-60 0 -108.5 19t-83 56t-53.5 89.5t-19 120.5q0 67 19 120t53.5 90t83 56t108.5 19q85 0 148 -40v4q0 26 25 26h86q25 0 25 -26v-345q0 -45 0.5 -64.5t8.5 -24.5q8 -4 28 2q21 5 33.5 -5t16.5 -26
t-2 -32.5t-22 -23.5zM161 275q0 -93 34 -135t94 -42t94 42t34 135q0 85 -30.5 131t-97.5 46t-97.5 -46t-30.5 -131z" />
    <glyph glyph-name="beta" unicode="&#x3b2;" horiz-adv-x="661" 
d="M65 563q0 50 19 90.5t53.5 68.5t82 43t103.5 15q62 0 112 -14t85 -40.5t54 -65t19 -86.5q0 -27 -7.5 -54.5t-22 -50.5t-36 -40.5t-49.5 -26.5q35 -8 61.5 -27.5t44.5 -45t27 -54t9 -53.5q0 -65 -24.5 -109.5t-64 -71.5t-88.5 -39t-98 -12q-32 0 -70.5 5.5t-73.5 24.5v-96
q0 -74 -17.5 -104t-50.5 -30h-43q-25 0 -25 26v747zM342 451q22 0 42.5 6.5t36.5 20.5t26 35.5t10 50.5q0 28 -10.5 48.5t-29 33.5t-43 19.5t-51.5 6.5q-59 0 -90.5 -30t-31.5 -76v-433q18 -14 50 -25t87 -11q22 0 48 7.5t47.5 23t36 39t14.5 55.5q0 27 -10.5 49t-28 37.5
t-40 24.5t-46.5 10h-11q-62 0 -90 16t-28 46v21q0 25 26 25h86z" />
    <glyph glyph-name="gamma" unicode="&#x3b3;" horiz-adv-x="582" 
d="M177 550q15 0 22.5 -4.5t11.5 -17.5l79 -265q8 -27 17 -55t17 -55q8 27 17 55t17 55l78 265q5 13 12 17.5t22 4.5h75q17 0 21.5 -10t-0.5 -23l-174 -508v-86q0 -74 -17.5 -104t-50.5 -30h-43q-25 0 -25 26v194l-145 418q-3 10 -8 13t-10 3h-6q-33 0 -57.5 17.5
t-24.5 43.5v21q0 25 26 25h146z" />
    <glyph glyph-name="delta" unicode="&#x3b4;" horiz-adv-x="598" 
d="M98 647q0 59 50.5 96t158.5 37q43 0 96.5 -8t100.5 -25q22 -8 28.5 -26.5t1 -36.5t-21.5 -29t-38 -4q-45 14 -78.5 19.5t-73.5 5.5q-48 0 -68 -9t-20 -26q0 -26 26 -44.5t87 -39.5q118 -41 172 -119.5t54 -182.5q0 -60 -20 -109t-56 -83.5t-86.5 -53.5t-111.5 -19
q-62 0 -112.5 18.5t-86.5 53t-55.5 83.5t-19.5 110q0 48 13.5 89.5t38 74.5t58 57.5t73.5 39.5q-110 47 -110 131zM160 258q0 -77 38 -119t101 -42t101 42t38 119q0 64 -32.5 112.5t-112.5 72.5q-133 -53 -133 -185z" />
    <glyph glyph-name="epsilon" unicode="&#x3b5;" horiz-adv-x="504" 
d="M258 98q42 0 80 8t80 23q22 8 38.5 0t23 -23.5t1.5 -34t-26 -31.5q-36 -23 -86.5 -36.5t-110.5 -13.5q-51 0 -93 10.5t-72 32.5t-46 56t-16 81q0 15 4 33.5t12 37t20.5 35t30.5 27.5q-25 19 -39.5 46.5t-14.5 54.5q0 45 19 75t51 48t73.5 25.5t87.5 7.5q22 0 44.5 -4.5
t43.5 -11t39 -14.5t31 -15q22 -13 27 -32t-2.5 -35t-23.5 -25t-36 -1q-28 11 -59 20.5t-64 9.5q-45 0 -69 -14t-26 -40q-2 -20 10.5 -33.5t32.5 -13.5h125q25 0 25 -26v-56q0 -26 -25 -26h-125q-25 0 -40 -20t-16 -42q-2 -43 24 -63t67 -20z" />
    <glyph glyph-name="zeta" unicode="&#x3b6;" horiz-adv-x="512" 
d="M129 541q24 26 55.5 58.5t62.5 62.5h-124q-62 0 -90 16t-28 46v21q0 25 26 25h434q10 0 16 -6.5t7.5 -15.5t-0.5 -18.5t-9 -15.5q-55 -51 -104 -97.5t-85 -83.5q-63 -63 -89 -112.5t-26 -86.5q0 -23 9 -42t28.5 -37t50 -36.5t72.5 -40.5q49 -26 82 -53t53 -55.5t28.5 -58
t8.5 -60.5q0 -41 -16 -72t-44.5 -52.5t-67.5 -32.5t-84 -11q-19 0 -42 2t-46 5.5t-44 9t-37 12.5q-21 9 -28 28t-2.5 36.5t21 28t43.5 3.5q28 -8 54 -11t51 -3q48 0 74.5 11.5t31.5 45.5q3 18 -2.5 33.5t-20 30t-38.5 30t-60 34.5q-45 24 -84 51t-67 58t-44 67t-16 78
q0 27 4.5 52.5t15 51t27.5 51t43 53.5z" />
    <glyph glyph-name="eta" unicode="&#x3b7;" horiz-adv-x="620" 
d="M565 -76q0 -74 -17.5 -104t-50.5 -30h-43q-25 0 -25 26v541q0 55 -26.5 75t-74.5 20q-34 0 -68.5 -11t-63.5 -36v-271q0 -74 -17.5 -104t-50.5 -30h-43q-25 0 -25 26v498q0 26 25 26h85q25 0 25 -26l1 -19q31 25 68 40t82 15q109 0 164 -47.5t55 -155.5v-433z" />
    <glyph glyph-name="theta" unicode="&#x3b8;" horiz-adv-x="698" 
d="M349 -10q-75 0 -133.5 27.5t-98.5 78.5t-61 123.5t-21 163.5q0 93 21 167t61 125t98.5 78t133.5 27t133.5 -27.5t98.5 -79t61 -124.5t21 -164t-21 -164t-61 -124.5t-98.5 -79t-133.5 -27.5zM349 98q34 0 63.5 13t52.5 41t38 72t20 107h-348q4 -63 19.5 -107.5t38.5 -72.5
t52.5 -40.5t63.5 -12.5zM349 672q-68 0 -116 -56t-58 -177h348q-5 63 -20 107t-38 72t-52.5 41t-63.5 13z" />
    <glyph glyph-name="iota" unicode="&#x3b9;" horiz-adv-x="321" 
d="M285 10q-22 -13 -50.5 -17t-50.5 -2q-64 4 -94.5 40t-30.5 125v368q0 26 25 26h86q25 0 25 -26v-335q0 -43 0.5 -60.5t10.5 -25.5q5 -5 13 -5.5t16 1t15.5 3.5t11.5 2q20 2 32 -9t15 -27t-3 -32.5t-21 -25.5z" />
    <glyph glyph-name="kappa" unicode="&#x3ba;" horiz-adv-x="537" 
d="M487 550q25 0 25 -26v-56q0 -26 -25 -26h-36q-15 0 -27 -10l-92 -86q-18 -17 -35.5 -31.5t-35.5 -28.5q16 -15 30.5 -30t31.5 -30l202 -192q11 -11 5.5 -22.5t-18.5 -11.5h-95q-21 0 -44.5 10t-58.5 46l-118 119v-41q0 -74 -17.5 -104t-50.5 -30h-43q-25 0 -25 26v498
q0 26 25 26h86q25 0 25 -26v-134l152 144q17 16 41 16h98z" />
    <glyph glyph-name="lambda" unicode="&#x3bb;" horiz-adv-x="634" 
d="M517 121q10 -24 30 -27q8 -2 16.5 -0.5t17.5 3.5q18 5 31.5 -4.5t18.5 -25t0.5 -33t-22.5 -28.5q-10 -6 -22 -9.5t-24.5 -5t-24 -1.5h-20.5q-41 2 -71 20t-48 63l-90 227q-8 20 -15 42.5t-14 42.5q-5 -19 -12 -42.5t-15 -42.5l-96 -239q-10 -24 -25 -42.5t-34 -18.5h-71
q-15 0 -20.5 8.5t-1.5 19.5l206 496l-53 129q-4 10 -14 10h-5q-31 0 -55 18t-24 43v21q0 25 26 25h125q17 0 29.5 -9t22.5 -32z" />
    <glyph glyph-name="uni03BC" unicode="&#x3bc;" horiz-adv-x="620" 
d="M60 524q0 26 25 26h86q25 0 25 -26v-331q0 -48 26.5 -71.5t74.5 -23.5q28 0 52 10t42 28t28 42.5t10 53.5v292q0 26 25 26h86q25 0 25 -26v-390q0 -74 -17.5 -104t-50.5 -30h-41q-13 0 -18 6.5t-7 19.5l-2 18q-35 -33 -70 -43.5t-80 -10.5q-47 0 -83 9v-76
q0 -74 -17.5 -104t-50.5 -30h-43q-25 0 -25 26v709z" />
    <glyph glyph-name="nu" unicode="&#x3bd;" horiz-adv-x="559" 
d="M277 263q8 -27 17 -59t17 -59q8 27 17 59t17 59l78 265q4 13 11.5 17.5t22.5 4.5h75q17 0 21.5 -10t-0.5 -23l-158 -465q-11 -31 -23 -41.5t-32 -10.5h-76q-18 0 -23 14l-142 413q-3 10 -6.5 13t-5.5 3h-2q-33 0 -56.5 17.5t-23.5 43.5v21q0 25 26 25h140q20 -1 27 -22z
" />
    <glyph glyph-name="xi" unicode="&#x3be;" horiz-adv-x="512" 
d="M140 600q0 17 8.5 34.5t24.5 27.5h-50q-62 0 -90 16t-28 46v21q0 25 26 25h414q18 0 27.5 -11.5t10.5 -26t-7.5 -27.5t-24.5 -16q-54 -10 -88.5 -20t-54 -20.5t-27 -22.5t-7.5 -26q0 -12 5.5 -20.5t20 -15.5t39.5 -11.5t63 -7.5q20 -1 20 -24v-58q0 -23 -22 -25
q-66 -6 -111 -17t-72.5 -26.5t-39.5 -36.5t-12 -46q0 -23 12 -39.5t35 -31.5t55 -30.5t73 -35.5q49 -24 81.5 -49t52 -51.5t27 -55.5t6.5 -62q-2 -86 -62.5 -130.5t-169.5 -42.5q-19 0 -40.5 2.5t-43 6.5t-41.5 10t-35 14q-19 9 -24.5 27t-1 34.5t19 26t35.5 3.5
q32 -10 64 -14t57 -4q60 0 84.5 18.5t24.5 48.5q0 19 -5.5 34t-19 28.5t-36.5 28t-59 31.5q-44 21 -84.5 44.5t-71.5 52t-49 62t-18 74.5q0 74 57.5 119.5t179.5 59.5q-69 10 -98.5 37.5t-29.5 71.5z" />
    <glyph glyph-name="omicron" unicode="&#x3bf;" horiz-adv-x="598" 
d="M573 275q0 -68 -20.5 -120.5t-57 -89.5t-86.5 -56t-110 -19t-110 19t-86.5 56t-57 89.5t-20.5 120.5q0 67 20.5 120t57 90t86.5 56t110 19q59 0 109.5 -19t87 -56t57 -90t20.5 -120zM161 275q0 -46 10.5 -79.5t29 -55t43.5 -32t55 -10.5t55 10.5t43.5 32t29 55t10.5 79.5
q0 85 -35.5 131t-102.5 46t-102.5 -46t-35.5 -131z" />
    <glyph glyph-name="pi" unicode="&#x3c0;" horiz-adv-x="690" 
d="M674 468q0 -26 -25 -26h-101v-263q0 -45 10.5 -61.5t27.5 -19.5q13 -2 22.5 0.5t17.5 5.5q24 8 39 -1.5t19.5 -26t-0.5 -35.5t-21 -29q-15 -11 -39 -16.5t-41 -5.5q-39 0 -70.5 9t-54 28.5t-34.5 51t-12 77.5v286h-132v-308q0 -74 -17.5 -104t-50.5 -30h-43q-25 0 -25 26
v416h-11q-62 0 -90 16t-28 46v21q0 25 26 25h608q25 0 25 -26v-56z" />
    <glyph glyph-name="rho" unicode="&#x3c1;" horiz-adv-x="633" 
d="M60 278q0 67 21 119.5t57.5 88.5t86.5 55t109 19t109.5 -19t87 -56t57 -90t20.5 -120q0 -68 -20.5 -120.5t-57 -89.5t-86.5 -56t-110 -19q-17 0 -37 2.5t-39 8.5t-35.5 15t-26.5 22v-114q0 -74 -17.5 -104t-50.5 -30h-43q-25 0 -25 26v462zM196 275q0 -46 10.5 -79.5
t29 -55t43.5 -32t55 -10.5t55 10.5t43.5 32t29 55t10.5 79.5q0 85 -35.5 131t-102.5 46t-102.5 -46t-35.5 -131z" />
    <glyph glyph-name="sigma" unicode="&#x3c3;" horiz-adv-x="607" 
d="M602 478q0 -26 -25 -26h-61q30 -35 43.5 -79t13.5 -98q0 -68 -20.5 -120.5t-57 -89.5t-86.5 -56t-110 -19t-110 19t-86.5 56t-57 89.5t-20.5 120.5q0 65 19.5 118t55.5 90t86.5 57t112.5 20h278q25 0 25 -26v-56zM161 275q0 -46 10.5 -79.5t29 -55t43.5 -32t55 -10.5
t55 10.5t43.5 32t29 55t10.5 79.5q0 85 -35.5 131t-102.5 46t-102.5 -46t-35.5 -131z" />
    <glyph glyph-name="tau" unicode="&#x3c4;" horiz-adv-x="437" 
d="M432 468q0 -26 -25 -26h-130v-263q0 -45 10.5 -61.5t27.5 -19.5q13 -2 21.5 0.5t16.5 5.5q24 8 39 -1.5t19.5 -26t-0.5 -35.5t-21 -29q-15 -11 -38 -16.5t-40 -5.5q-39 0 -70.5 9t-54 28.5t-34.5 51t-12 77.5v286h-19q-62 0 -90 16t-28 46v21q0 25 26 25h377q25 0 25 -26
v-56z" />
    <glyph glyph-name="upsilon" unicode="&#x3c5;" horiz-adv-x="595" 
d="M433 305q0 47 -7.5 89t-25.5 87q-12 28 -2 47.5t29 27t41.5 1.5t35.5 -30q26 -48 45.5 -105.5t19.5 -116.5q0 -80 -21 -139t-57.5 -98t-85.5 -58.5t-104 -19.5q-50 0 -92.5 16t-73 44.5t-48 67.5t-17.5 86v242q-65 12 -65 58v21q0 25 26 25h150q25 0 25 -26v-323
q0 -43 23.5 -73t71.5 -30q21 0 44 10t42.5 33.5t32.5 63.5t13 100z" />
    <glyph glyph-name="phi" unicode="&#x3c6;" horiz-adv-x="708" 
d="M422 100q28 4 49.5 14.5t36.5 30t23.5 49.5t11.5 72q3 40 -2.5 74t-17 58t-26.5 37.5t-32 13.5q-13 0 -21.5 -6t-13 -14.5t-6.5 -18.5t-2 -19v-291zM165 269q0 -73 32 -118t89 -50v323q0 34 13 60t34 42.5t48 25t55 8.5q121 0 182 -74t61 -220q0 -61 -18.5 -111
t-52.5 -86t-81 -56t-105 -21v-69q0 -74 -17.5 -104t-50.5 -30h-43q-25 0 -25 26v177q-65 3 -113.5 25.5t-80.5 60t-48 87t-15 104.5q0 37 9.5 77.5t27.5 78t44.5 69.5t61.5 52q30 17 52 13.5t32 -19.5t6.5 -38.5t-23.5 -42.5q-41 -41 -57.5 -89t-16.5 -101z" />
    <glyph glyph-name="chi" unicode="&#x3c7;" horiz-adv-x="631" 
d="M171 550q22 0 31 -16l95 -176q7 -12 13 -24.5t11 -24.5q7 12 13.5 24.5t14.5 24.5l106 176q11 16 26 16h90q18 0 22.5 -11t-3.5 -23l-183 -312q-4 -6 -7 -11t-9 -13q5 -7 9 -13.5t8 -13.5l131 -244q5 -8 11 -13.5t17 -5.5q5 0 9.5 0.5t9.5 1.5q16 3 27 -8.5t14 -27.5
t-1.5 -32.5t-17.5 -24.5q-14 -9 -43.5 -13.5t-61.5 0.5q-26 5 -48.5 19t-45.5 52l-83 158q-5 9 -7.5 16t-6.5 17q-4 -10 -8 -17t-9 -16l-88 -152q-23 -37 -48 -55.5t-47 -18.5h-68q-17 0 -22.5 12t4.5 27l197 325q5 7 9.5 14t9.5 14q-5 6 -8 12l-6 12l-119 229q-2 3 -4.5 6
t-5.5 3h-1q-43 0 -63 17.5t-20 43.5v21q0 23 26 25h130z" />
    <glyph glyph-name="psi" unicode="&#x3c8;" horiz-adv-x="740" 
d="M551 524q0 26 25 26h84q25 0 25 -26v-288q0 -109 -64.5 -170.5t-182.5 -72.5v-70q0 -74 -17.5 -104t-50.5 -30h-43q-25 0 -25 26v178q-118 11 -182.5 72.5t-64.5 170.5v288q0 26 25 26h84q25 0 25 -26v-261q0 -122 113 -156v637q0 26 25 26h86q25 0 25 -26v-637
q55 17 84 55t29 101v261z" />
    <glyph glyph-name="omega" unicode="&#x3c9;" horiz-adv-x="730" 
d="M160 271q0 -18 4.5 -47.5t15 -57.5t28 -48t44.5 -20q28 0 36.5 28.5t8.5 70.5v231q0 26 25 26h86q25 0 25 -26v-264q0 -29 11 -47.5t34 -18.5q19 0 35 14t28 36.5t19 51t9 57.5q3 54 -4 113.5t-28 111.5q-12 28 -2 47.5t29 27t41.5 1.5t35.5 -30q69 -124 64 -269
q-2 -57 -15.5 -106t-41 -85t-70 -57t-100.5 -21q-39 0 -65.5 6t-47.5 29q-23 -23 -50.5 -29t-62.5 -6q-63 0 -106.5 23.5t-70.5 62t-39 88t-12 100.5q0 75 16 139.5t49 124.5q13 24 35.5 30t41.5 -1.5t29 -27t-2 -47.5q-20 -51 -26.5 -103.5t-6.5 -107.5z" />
    <glyph glyph-name="afii10023" unicode="&#x401;" horiz-adv-x="605" 
d="M200 451h315q25 0 25 -26v-56q0 -26 -25 -26h-315v-206q0 -29 31 -32q71 -6 143.5 -3t156.5 11q22 2 34.5 -11t14.5 -30.5t-8 -34t-33 -20.5q-41 -8 -92.5 -12.5t-104 -6.5t-101.5 -1.5t-85 4.5q-47 5 -69.5 25.5t-22.5 66.5v651q0 26 25 26h436q25 0 25 -26v-56
q0 -26 -25 -26h-325v-211zM351 861q0 25 18 43t44 18t44 -18t18 -43t-18 -43t-44 -18t-44 18t-18 43zM155 861q0 25 18 43t44 18t44 -18t18 -43t-18 -43t-44 -18t-44 18t-18 43z" />
    <glyph glyph-name="afii10017" unicode="&#x410;" horiz-adv-x="656" 
d="M465 168h-274l-31 -94q-11 -33 -26.5 -53.5t-34.5 -20.5h-77q-14 0 -20.5 8.5t0.5 26.5l265 721q5 14 20 14h82q15 0 20 -14l265 -721q7 -18 0.5 -26.5t-20.5 -8.5h-77q-19 0 -35 20.5t-26 53.5zM226 274h204l-80 244q-8 24 -12.5 48.5t-9.5 49.5q-5 -25 -9.5 -49
t-12.5 -49z" />
    <glyph glyph-name="afii10018" unicode="&#x411;" horiz-adv-x="661" 
d="M378 0q-93 -3 -185 0q-63 2 -95.5 28.5t-32.5 85.5v630q0 26 25 26h434q25 0 25 -26v-56q0 -26 -25 -26h-323v-211h177q56 0 102 -16.5t78.5 -46.5t50 -71.5t17.5 -91.5t-18 -91t-50.5 -70t-78 -45.5t-101.5 -18.5zM226 108q26 -2 53 -3t53 1q73 5 115.5 31t42.5 88
q0 63 -43 90.5t-116 27.5h-130v-209q0 -25 25 -26z" />
    <glyph glyph-name="afii10019" unicode="&#x412;" horiz-adv-x="661" 
d="M157 1q-47 4 -69.5 25t-22.5 67v651q0 26 25 26h249q126 0 193.5 -55.5t67.5 -147.5q0 -64 -34.5 -107t-85.5 -60q69 -17 107.5 -67.5t38.5 -119.5q0 -52 -20.5 -92.5t-58 -68t-90.5 -42t-117 -14.5h-42t-49.5 1t-49.5 1.5t-42 2.5zM201 343v-203q0 -28 30 -32
q4 -1 12 -1.5t17.5 -1t18 -1t14.5 -0.5q100 0 148.5 24t48.5 85q0 60 -43 95t-128 35h-118zM201 662v-211h118q70 0 107.5 30.5t37.5 85.5q0 50 -43.5 72.5t-128.5 22.5h-91z" />
    <glyph glyph-name="afii10020" unicode="&#x413;" horiz-adv-x="540" 
d="M65 744q0 26 25 26h406q25 0 25 -26v-56q0 -26 -25 -26h-295v-528q0 -74 -17.5 -104t-50.5 -30h-43q-25 0 -25 26v718z" />
    <glyph glyph-name="afii10021" unicode="&#x414;" horiz-adv-x="769" 
d="M5 61q0 26 25 26h54q77 138 77 283v374q0 26 25 26h479q25 0 25 -26v-657h49q25 0 25 -26v-87q0 -60 -17.5 -87t-50.5 -27h-43q-25 0 -25 26v93h-487v-5q0 -60 -17.5 -87t-50.5 -27h-43q-23 0 -25 26v175zM300 370q0 -74 -19 -145.5t-54 -137.5h327v575h-254v-292z" />
    <glyph glyph-name="afii10022" unicode="&#x415;" horiz-adv-x="605" 
d="M201 451h315q25 0 25 -26v-56q0 -26 -25 -26h-315v-206q0 -29 31 -32q71 -6 143.5 -3t156.5 11q22 2 34.5 -11t14.5 -30.5t-8 -34t-33 -20.5q-41 -8 -92.5 -12.5t-104 -6.5t-101.5 -1.5t-85 4.5q-47 5 -69.5 25.5t-22.5 66.5v651q0 26 25 26h436q25 0 25 -26v-56
q0 -26 -25 -26h-325v-211z" />
    <glyph glyph-name="afii10024" unicode="&#x416;" horiz-adv-x="1034" 
d="M449 306l-242 -249q-35 -37 -59.5 -47t-44.5 -10h-82q-15 0 -20 11.5t6 22.5l304 312q17 17 32 31t32 29q-17 14 -32 27t-32 29l-273 267q-15 14 -12 27.5t21 13.5h109q8 0 14.5 -3.5t12.5 -8.5l266 -255v241q0 26 25 26h86q25 0 25 -26v-241l266 255q6 5 12.5 8.5
t14.5 3.5h109q18 0 21 -13.5t-12 -27.5l-273 -267q-17 -16 -32 -29t-32 -27q17 -15 32 -29t32 -31l304 -312q11 -11 6 -22.5t-20 -11.5h-82q-20 0 -44.5 10t-59.5 47l-242 250v-173q0 -74 -17.5 -104t-50.5 -30h-43q-25 0 -25 26v280z" />
    <glyph glyph-name="afii10025" unicode="&#x417;" horiz-adv-x="574" 
d="M265 98q28 0 53.5 8.5t44 24.5t29.5 39.5t11 54.5q0 67 -41 97.5t-121 30.5h-22q-45 0 -64 17.5t-19 44.5v21q0 25 26 25h85q60 0 93 31.5t33 84.5q0 49 -31.5 72t-79.5 23q-21 0 -38 -1.5t-32.5 -5t-32.5 -9t-39 -13.5q-24 -9 -42.5 -1t-26 24t-2 36t29.5 34
q17 10 40 18t48 14t50 9t45 3q119 0 183 -52t64 -146q0 -62 -34.5 -107t-94.5 -63q71 -16 115 -64.5t44 -127.5q0 -52 -19.5 -94.5t-55.5 -72.5t-86.5 -46.5t-112.5 -16.5q-60 0 -112 12t-98 38q-22 12 -27 31.5t2.5 36t26 24.5t44.5 -2q44 -18 81 -25t83 -7z" />
    <glyph glyph-name="afii10026" unicode="&#x418;" horiz-adv-x="719" 
d="M518 542q-8 -17 -16.5 -35.5t-19.5 -35.5l-266 -436q-10 -16 -25 -25.5t-36 -9.5h-65q-25 0 -25 26v718q0 26 25 26h86q25 0 25 -26v-515q8 16 16.5 31.5t18.5 31.5l277 467q7 11 18 11h99q14 0 19 -8t5 -18v-610q0 -74 -17.5 -104t-50.5 -30h-43q-25 0 -25 26v516v0z
" />
    <glyph glyph-name="afii10027" unicode="&#x419;" horiz-adv-x="719" 
d="M518 542q-8 -17 -16.5 -35.5t-19.5 -35.5l-266 -436q-10 -16 -25 -25.5t-36 -9.5h-65q-25 0 -25 26v718q0 26 25 26h86q25 0 25 -26v-515q8 16 16.5 31.5t18.5 31.5l277 467q7 11 18 11h99q14 0 19 -8t5 -18v-610q0 -74 -17.5 -104t-50.5 -30h-43q-25 0 -25 26v516v0z
M368 764q-84 0 -128 30.5t-44 84.5v11q0 14 15 14h79q15 0 15 -14v-6q0 -20 16 -28.5t47 -9.5q35 -1 49 9.5t14 28.5v6q0 14 15 14h79q15 0 15 -14v-11q0 -54 -45 -84.5t-127 -30.5z" />
    <glyph glyph-name="afii10028" unicode="&#x41a;" horiz-adv-x="634" 
d="M65 744q0 26 25 26h86q25 0 25 -26v-220l244 234q6 5 12.5 8.5t14.5 3.5h109q18 0 21 -13.5t-12 -27.5l-273 -267q-17 -16 -32 -29t-32 -27q17 -15 32 -29t32 -31l304 -312q11 -11 6 -22.5t-20 -11.5h-82q-20 0 -44.5 10t-59.5 47l-220 227v-150q0 -74 -17.5 -104
t-50.5 -30h-43q-25 0 -25 26v718z" />
    <glyph glyph-name="afii10029" unicode="&#x41b;" horiz-adv-x="745" 
d="M141 744q0 26 25 26h489q25 0 25 -26v-610q0 -74 -17.5 -104t-50.5 -30h-43q-25 0 -25 26v636h-267v-283q0 -107 -37 -193t-123 -168q-26 -24 -50 -27.5t-39 7.5t-16.5 32.5t18.5 46.5q28 36 49.5 71t36 71.5t20.5 76t5 83.5v365z" />
    <glyph glyph-name="afii10030" unicode="&#x41c;" horiz-adv-x="910" 
d="M708 498q-8 -30 -17.5 -65t-22.5 -65l-137 -317q-12 -29 -24 -40t-31 -11h-60q-15 0 -20 14l-153 354q-13 31 -23 66t-19 66v-366q0 -74 -17.5 -104t-50.5 -30h-43q-25 0 -25 26v718q0 26 25 26h86q11 0 15.5 -5.5t8.5 -13.5l216 -475q8 -21 19.5 -47.5t19.5 -47.5
q8 21 20 48t20 47l214 472q5 10 9.5 16t15.5 6h85q25 0 25 -26v-610q0 -74 -17.5 -104t-50.5 -30h-43q-25 0 -25 26v472z" />
    <glyph glyph-name="afii10031" unicode="&#x41d;" horiz-adv-x="719" 
d="M518 352h-317v-218q0 -74 -17.5 -104t-50.5 -30h-43q-25 0 -25 26v718q0 26 25 26h86q25 0 25 -26v-284h317v284q0 26 25 26h86q25 0 25 -26v-610q0 -74 -17.5 -104t-50.5 -30h-43q-25 0 -25 26v326z" />
    <glyph glyph-name="afii10032" unicode="&#x41e;" horiz-adv-x="748" 
d="M374 -10q-83 0 -146.5 29t-106.5 81.5t-65.5 125t-22.5 159.5t22.5 159.5t65.5 125t106.5 81.5t146.5 29q82 0 146 -29t107 -81.5t65.5 -125t22.5 -159.5t-22.5 -159.5t-65.5 -125t-107 -81.5t-146 -29zM374 98q45 0 82 17t64 52.5t42 89.5t15 128t-15 128t-42 89.5
t-64 52.5t-82 17t-82 -17t-64 -52.5t-42 -89.5t-15 -128t15 -128t42 -89.5t64 -52.5t82 -17z" />
    <glyph glyph-name="afii10033" unicode="&#x41f;" horiz-adv-x="719" 
d="M201 662v-528q0 -74 -17.5 -104t-50.5 -30h-43q-25 0 -25 26v718q0 26 25 26h539q25 0 25 -26v-610q0 -74 -17.5 -104t-50.5 -30h-43q-25 0 -25 26v636h-317z" />
    <glyph glyph-name="afii10034" unicode="&#x420;" horiz-adv-x="622" 
d="M65 744q0 26 25 26h259q56 0 100 -17t75 -47.5t47 -73t16 -93.5t-16 -93.5t-47 -72.5t-75 -47t-100 -17h-148v-175q0 -74 -17.5 -104t-50.5 -30h-43q-25 0 -25 26v718zM201 662v-245h91q83 0 121 31.5t38 90.5q0 64 -40.5 93.5t-118.5 29.5h-91z" />
    <glyph glyph-name="afii10035" unicode="&#x421;" horiz-adv-x="620" 
d="M376 98q48 0 85.5 7.5t73.5 21.5q21 8 36 -2t20 -27.5t-0.5 -37t-24.5 -29.5q-38 -20 -87 -30.5t-105 -10.5q-82 0 -145.5 29t-106.5 81t-65 124.5t-22 160.5q0 90 23 162.5t66.5 124.5t106.5 80t143 28q39 0 85 -8t81 -21q23 -9 32 -28t4.5 -37t-21.5 -29.5t-46 -3.5
q-35 9 -71 14t-62 5q-53 0 -91.5 -21.5t-63.5 -59.5t-37.5 -90.5t-12.5 -115.5t12 -115.5t37 -90.5t64 -59.5t92 -21.5z" />
    <glyph glyph-name="afii10036" unicode="&#x422;" horiz-adv-x="586" 
d="M581 688q0 -26 -25 -26h-196v-528q0 -74 -17.5 -104t-50.5 -30h-43q-25 0 -25 26v636h-101q-62 0 -90 16t-28 46v21q0 25 26 25h525q25 0 25 -26v-56z" />
    <glyph glyph-name="afii10037" unicode="&#x423;" horiz-adv-x="543" 
d="M143 0q-14 0 -21 9t-1 23l81 195l-199 516q-4 11 1.5 19t20.5 8h77q20 0 26 -16l116 -303q8 -19 15 -42.5t12 -42.5q7 20 14 42t15 43l117 305q6 14 21 14h82q14 0 19 -8.5t1 -18.5l-265 -669q-16 -37 -31.5 -55.5t-33.5 -18.5h-67z" />
    <glyph glyph-name="afii10038" unicode="&#x424;" horiz-adv-x="758" 
d="M25 385q0 120 76.5 188.5t209.5 82.5v93q0 26 25 26h86q25 0 25 -26v-93q67 -7 120 -27.5t90.5 -54.5t57.5 -81.5t20 -107.5t-20 -107.5t-57.5 -82t-90.5 -55t-120 -27.5q-2 -63 -19.5 -88t-48.5 -25h-43q-25 0 -25 26v87q-133 14 -209.5 83t-76.5 189zM599 385
q0 63 -37.5 105.5t-117.5 54.5v-321q80 13 117.5 55t37.5 106zM161 385q0 -63 37 -105t116 -55v320q-79 -13 -116 -55t-37 -105z" />
    <glyph glyph-name="afii10039" unicode="&#x425;" horiz-adv-x="626" 
d="M354 197q-11 17 -22 33.5t-21 33.5q-10 -17 -20.5 -33.5t-21.5 -33.5l-77 -123q-23 -37 -48 -55.5t-47 -18.5h-68q-17 0 -23 12t5 27l156 241q17 27 34 53.5t34 52.5q-17 27 -34 54.5t-34 54.5l-151 241q-8 12 -3.5 23t22.5 11h90q15 0 26 -16l116 -181l22 -34l22 -34
q11 18 22 34t22 34l117 181q11 16 26 16h90q18 0 22.5 -11t-3.5 -23l-152 -243q-17 -26 -33.5 -53t-33.5 -54l34 -52t34 -53l156 -242q10 -16 4.5 -27.5t-22.5 -11.5h-68q-22 0 -47 18.5t-48 55.5z" />
    <glyph glyph-name="afii10040" unicode="&#x426;" horiz-adv-x="733" 
d="M201 87h317v657q0 26 25 26h86q25 0 25 -26v-655h49q25 0 25 -26v-69q0 -74 -17.5 -104t-50.5 -30h-43q-25 0 -25 26v93h-492q-35 0 -35 30v735q0 26 25 26h86q25 0 25 -26v-657z" />
    <glyph glyph-name="afii10041" unicode="&#x427;" horiz-adv-x="634" 
d="M453 284q-28 -31 -68 -46t-76 -15q-57 0 -103.5 13t-78.5 44.5t-49.5 85t-17.5 134.5v244q0 26 25 26h86q25 0 25 -26v-222q0 -50 5.5 -85.5t19 -58.5t35 -34.5t53.5 -12.5q27 -1 53 7.5t46 25t32.5 40.5t12.5 54v286q0 26 25 26h86q25 0 25 -26v-610q0 -74 -17.5 -104
t-50.5 -30h-43q-25 0 -25 26v258z" />
    <glyph glyph-name="afii10042" unicode="&#x428;" horiz-adv-x="902" 
d="M519 108h182v636q0 26 25 26h86q25 0 25 -26v-610q0 -74 -17.5 -104t-50.5 -30h-669q-35 0 -35 30v714q0 26 25 26h86q25 0 25 -26v-636h182v636q0 26 25 26h86q25 0 25 -26v-636z" />
    <glyph glyph-name="afii10043" unicode="&#x429;" horiz-adv-x="916" 
d="M383 744q0 26 25 26h86q25 0 25 -26v-636h182v636q0 26 25 26h86q25 0 25 -26v-636h49q25 0 25 -26v-88q0 -74 -17.5 -104t-50.5 -30h-43q-25 0 -25 26v114h-675q-35 0 -35 30v714q0 26 25 26h86q25 0 25 -26v-636h182v636z" />
    <glyph glyph-name="afii10044" unicode="&#x42a;" horiz-adv-x="731" 
d="M448 0q-83 -2 -165 0q-63 2 -95.5 28.5t-32.5 85.5v548h-32q-62 0 -90 16t-28 46v21q0 25 26 25h235q25 0 25 -26v-303h157q56 0 102 -15.5t78.5 -44.5t50 -70t17.5 -91t-18 -90.5t-50.5 -69t-78 -44t-101.5 -16.5zM291 134q0 -25 25 -26q42 -2 85 0q73 2 116 27.5
t43 84.5q0 61 -43 87t-116 26h-110v-199z" />
    <glyph glyph-name="afii10045" unicode="&#x42b;" horiz-adv-x="825" 
d="M640 744q0 26 25 26h86q25 0 25 -26v-610q0 -74 -17.5 -104t-50.5 -30h-43q-25 0 -25 26v718zM368 0q-88 -2 -175 0q-63 1 -95.5 28t-32.5 86v630q0 26 25 26h86q25 0 25 -26v-303h167q56 0 102 -15.5t78.5 -44.5t50 -70t17.5 -91t-18 -90.5t-50.5 -69t-78 -44
t-101.5 -16.5zM201 134q0 -25 25 -26q47 -1 95 0q73 2 116 27.5t43 84.5q0 62 -43 87.5t-116 25.5h-120v-199z" />
    <glyph glyph-name="afii10046" unicode="&#x42c;" horiz-adv-x="661" 
d="M378 0q-44 -1 -92.5 -1t-92.5 1q-63 1 -95.5 28t-32.5 86v630q0 26 25 26h86q25 0 25 -26v-303h177q56 0 102 -15.5t78.5 -44.5t50 -70t17.5 -91t-18 -90.5t-50.5 -69t-78 -44t-101.5 -16.5zM201 134q0 -25 25 -26q24 -1 52.5 -1t52.5 1q73 2 116 27.5t43 84.5
q0 62 -43 87.5t-116 25.5h-130v-199z" />
    <glyph glyph-name="afii10047" unicode="&#x42d;" horiz-adv-x="620" 
d="M244 98q49 0 85.5 18t61 50t38.5 77.5t18 99.5h-235q-62 0 -90 16t-28 46v21q0 25 26 25h325q-6 49 -21 90t-40 70t-60 45t-80 16q-26 0 -62 -5t-71 -14q-29 -8 -46 3.5t-21.5 29.5t4.5 37t32 28q35 13 81 21t85 8q80 0 143 -28t106.5 -80t66.5 -124.5t23 -162.5
q0 -88 -22 -160.5t-65 -124.5t-106.5 -81t-145.5 -29q-56 0 -105 10.5t-87 30.5q-20 10 -25 29.5t0 37t20 27.5t36 2q36 -14 73.5 -21.5t85.5 -7.5z" />
    <glyph glyph-name="afii10048" unicode="&#x42e;" horiz-adv-x="953" 
d="M587 -10q-78 0 -137.5 26t-100.5 72.5t-64 111.5t-28 144h-61v-210q0 -74 -17.5 -104t-50.5 -30h-43q-25 0 -25 26v718q0 26 25 26h86q25 0 25 -26v-294h63q7 74 31.5 134.5t65.5 104t98.5 67.5t132.5 24q82 0 144.5 -29t103.5 -81.5t62 -125t21 -159.5t-21 -159.5
t-62 -125t-103.5 -81.5t-144.5 -29zM587 98q89 0 141 69.5t52 217.5t-52 217.5t-141 69.5t-141 -69.5t-52 -217.5t52 -217.5t141 -69.5z" />
    <glyph glyph-name="afii10049" unicode="&#x42f;" horiz-adv-x="639" 
d="M308 319l-124 -244q-38 -75 -73 -75h-71q-19 0 -25 11.5t2 27.5l155 298q-66 25 -103 78.5t-37 128.5q0 50 17.5 91.5t50 71.5t78.5 46.5t102 16.5h269q25 0 25 -26v-610q0 -74 -17.5 -104t-50.5 -30h-43q-25 0 -25 26v293h-130zM438 427v235h-111q-73 0 -116 -27.5
t-43 -90.5q0 -62 43 -89.5t116 -27.5h111z" />
    <glyph glyph-name="afii10065" unicode="&#x430;" horiz-adv-x="596" 
d="M405 28q-40 -20 -75.5 -29t-65.5 -9q-124 0 -179 47.5t-55 129.5q0 41 13.5 77t42 62.5t72.5 42t106 15.5q35 0 70 -4t71 -13v38q0 12 -2.5 24.5t-12.5 22t-29.5 16t-52.5 6.5q-43 0 -81.5 -9.5t-72.5 -21.5q-26 -9 -43.5 0t-25 25.5t-2.5 35.5t26 31q18 10 42 18.5
t50.5 14.5t54 9t52.5 3q48 0 90.5 -10t74 -30t50 -50t18.5 -71v-265q0 -74 -17.5 -104t-50.5 -30h-43q-25 0 -25 26v2zM270 99q17 0 36 3t37.5 9t34.5 14t27 18v103q-29 5 -64.5 7.5t-70.5 2.5q-104 0 -104 -78q0 -79 104 -79z" />
    <glyph glyph-name="afii10066" unicode="&#x431;" horiz-adv-x="588" 
d="M573 275q0 -68 -20 -120.5t-56 -89.5t-86.5 -56t-111.5 -19q-62 0 -112.5 19t-86.5 56t-55.5 89.5t-19.5 120.5q0 88 12 173t42.5 152.5t83.5 111t136 48.5q43 2 74.5 9t62.5 21q22 10 37.5 3t22 -21t2.5 -31.5t-19 -29.5q-20 -15 -46 -26t-74 -17q-25 -3 -50 -11
t-47 -23t-38.5 -38t-23.5 -56q20 9 45.5 14.5t53.5 5.5q61 0 111.5 -19t86.5 -56t56 -90t20 -120zM161 275q0 -93 37.5 -135t100.5 -42t100.5 42t37.5 135q0 85 -33.5 131t-104.5 46t-104.5 -46t-33.5 -131z" />
    <glyph glyph-name="afii10067" unicode="&#x432;" horiz-adv-x="561" 
d="M146 5q-42 5 -64 29t-22 57v424q0 35 34 35h227q89 0 136.5 -39.5t47.5 -105.5q0 -45 -25 -75t-59 -39q51 -10 80.5 -49t29.5 -88q0 -74 -54 -112.5t-146 -43.5q-12 -1 -34 -1t-48 1t-53 2.5t-50 4.5zM196 234v-103q0 -19 21 -22q3 -1 11.5 -1.5t18.5 -1t19 -0.5h13
q63 0 89.5 15t26.5 48q0 35 -24 50t-83 15h-92zM196 444v-104h80q93 0 93 51q0 14 -4.5 24t-15.5 16.5t-31 9.5t-51 3h-71z" />
    <glyph glyph-name="afii10068" unicode="&#x433;" horiz-adv-x="441" 
d="M60 524q0 26 25 26h326q25 0 25 -26v-56q0 -26 -25 -26h-215v-308q0 -74 -17.5 -104t-50.5 -30h-43q-25 0 -25 26v498z" />
    <glyph glyph-name="afii10069" unicode="&#x434;" horiz-adv-x="633" 
d="M74 86q47 89 47 188v251q0 10 5.5 17.5t19.5 7.5h375q15 0 20.5 -7.5t5.5 -17.5v-439h45q13 0 19.5 -6.5t6.5 -17.5v-88q0 -67 -17.5 -90.5t-50.5 -23.5h-43q-25 0 -25 26v94h-342v-6q0 -60 -17.5 -87t-50.5 -27h-42q-25 0 -25 26v174q0 26 25 26h44zM258 274
q0 -48 -13 -96.5t-36 -91.5h204v359h-155v-171z" />
    <glyph glyph-name="afii10070" unicode="&#x435;" horiz-adv-x="578" 
d="M418 332q-5 62 -41 91t-88 29q-53 0 -89 -29t-41 -91h259zM305 98q35 0 65.5 4t62.5 15q27 9 43 -1.5t21 -28t-2 -37t-27 -29.5q-33 -16 -75 -23.5t-88 -7.5q-63 0 -115 19t-89 55t-57.5 89.5t-20.5 122.5q0 64 20 116.5t55 89.5t84 57.5t107 20.5t107 -20.5t84 -58.5
t55 -91t20 -117q0 -26 -10 -37.5t-28 -11.5h-356q2 -63 40 -94.5t104 -31.5z" />
    <glyph glyph-name="afii10072" unicode="&#x436;" horiz-adv-x="851" 
d="M358 188l-140 -136q-18 -18 -32.5 -28t-26.5 -15.5t-22.5 -7t-20.5 -1.5h-82q-13 0 -18.5 11.5t5.5 22.5l202 192q17 15 31.5 30t30.5 30q-18 14 -35.5 28.5t-35.5 31.5l-180 167q-12 11 -9 24t20 13h110q15 0 27 -12l176 -161v147q0 26 25 26h86q25 0 25 -26v-145
l174 159q12 12 27 12h110q17 0 20 -13t-9 -24l-180 -167q-18 -17 -35.5 -31.5t-35.5 -28.5q16 -15 30.5 -30t31.5 -30l202 -192q11 -11 5.5 -22.5t-18.5 -11.5h-82q-11 0 -21.5 1.5t-22.5 7t-26 15.5t-32 28l-138 134v-52q0 -74 -17.5 -104t-50.5 -30h-43q-25 0 -25 26v162z
" />
    <glyph glyph-name="afii10073" unicode="&#x437;" horiz-adv-x="504" 
d="M225 345q38 0 60 15t22 43q0 29 -23 39t-57 10q-23 0 -54 -8.5t-57 -16.5q-27 -9 -45 -0.5t-24.5 25t-0.5 35t27 30.5q41 22 89 32.5t85 10.5q93 0 145 -37.5t52 -105.5q0 -45 -25 -73.5t-67 -41.5q54 -12 88 -50.5t34 -95.5q0 -42 -17.5 -73t-48.5 -51.5t-72 -31
t-87 -10.5q-43 0 -96.5 9t-100.5 35q-22 12 -28 31.5t0.5 36t23.5 25.5t41 0q27 -11 67 -20t73 -9q46 0 75 16.5t32 45.5q4 40 -26.5 58.5t-87.5 18.5h-18q-38 0 -55.5 18t-17.5 44v21q0 25 26 25h68z" />
    <glyph glyph-name="afii10074" unicode="&#x438;" horiz-adv-x="575" 
d="M196 222q5 11 11.5 22.5t13.5 22.5l169 272q2 4 6 7.5t11 3.5h82q26 0 26 -25v-391q0 -74 -17.5 -104t-50.5 -30h-43q-25 0 -25 26v298q-11 -22 -23 -43l-156 -249q-8 -14 -24 -23t-32 -9h-59q-25 0 -25 24v500q0 26 25 26h86q25 0 25 -26v-302z" />
    <glyph glyph-name="afii10075" unicode="&#x439;" horiz-adv-x="575" 
d="M196 222q5 11 11.5 22.5t13.5 22.5l169 272q2 4 6 7.5t11 3.5h82q26 0 26 -25v-391q0 -74 -17.5 -104t-50.5 -30h-43q-25 0 -25 26v298q-11 -22 -23 -43l-156 -249q-8 -14 -24 -23t-32 -9h-59q-25 0 -25 24v500q0 26 25 26h86q25 0 25 -26v-302zM295 554q-84 0 -128 30.5
t-44 84.5v11q0 14 15 14h79q15 0 15 -14v-6q0 -20 16 -28.5t47 -9.5q35 -1 49 9.5t14 28.5v6q0 14 15 14h79q15 0 15 -14v-11q0 -54 -45 -84.5t-127 -30.5z" />
    <glyph glyph-name="afii10076" unicode="&#x43a;" horiz-adv-x="537" 
d="M60 524q0 26 25 26h86q25 0 25 -26v-131l146 145q12 12 27 12h122q17 0 20 -13t-9 -24l-180 -167q-18 -17 -35.5 -31.5t-35.5 -28.5q16 -15 30.5 -30t31.5 -30l202 -192q11 -11 5.5 -22.5t-18.5 -11.5h-95q-21 0 -44.5 10t-58.5 46l-108 115v-37q0 -74 -17.5 -104
t-50.5 -30h-43q-25 0 -25 26v498z" />
    <glyph glyph-name="afii10077" unicode="&#x43b;" horiz-adv-x="580" 
d="M85 524q0 26 25 26h385q25 0 25 -26v-390q0 -74 -17.5 -104t-50.5 -30h-43q-25 0 -25 26v416h-163v-182q0 -72 -26.5 -138.5t-81.5 -113.5q-20 -17 -42.5 -20t-38 6t-19 27.5t13.5 43.5q30 44 44 91t14 104v264v0z" />
    <glyph glyph-name="afii10078" unicode="&#x43c;" horiz-adv-x="750" 
d="M690 134q0 -74 -17.5 -104t-50.5 -30h-43q-25 0 -25 26v317l-28 -93l-82 -205q-8 -20 -20.5 -32.5t-30.5 -12.5h-51q-5 0 -11 3.5t-8 10.5l-96 236l-31 95v-211q0 -74 -17.5 -104t-50.5 -30h-43q-25 0 -25 26v498q0 26 25 26h109q15 0 22 -17l132 -297q6 -15 14 -39
l13 -39q3 7 6.5 17.5t8 21.5t8.5 21.5t7 17.5l130 299q7 15 21 15h109q25 0 25 -26v-390z" />
    <glyph glyph-name="afii10079" unicode="&#x43d;" horiz-adv-x="575" 
d="M379 234h-182v-100q0 -74 -17.5 -104t-50.5 -30h-43q-25 0 -25 26v498q0 26 25 26h86q25 0 25 -26v-184h182v184q0 26 25 26h86q25 0 25 -26v-390q0 -74 -17.5 -104t-50.5 -30h-43q-25 0 -25 26v208z" />
    <glyph glyph-name="afii10080" unicode="&#x43e;" horiz-adv-x="598" 
d="M573 275q0 -68 -20 -120.5t-56 -89.5t-86.5 -56t-111.5 -19q-62 0 -112.5 19t-86.5 56t-55.5 89.5t-19.5 120.5q0 67 19.5 120t55.5 90t86.5 56t112.5 19q61 0 111.5 -19t86.5 -56t56 -90t20 -120zM161 275q0 -93 37.5 -135t100.5 -42t100.5 42t37.5 135q0 85 -33.5 131
t-104.5 46t-104.5 -46t-33.5 -131z" />
    <glyph glyph-name="afii10081" unicode="&#x43f;" horiz-adv-x="575" 
d="M196 442v-308q0 -74 -17.5 -104t-50.5 -30h-43q-25 0 -25 26v498q0 26 25 26h405q25 0 25 -26v-390q0 -74 -17.5 -104t-50.5 -30h-43q-25 0 -25 26v416h-183z" />
    <glyph glyph-name="afii10082" unicode="&#x440;" horiz-adv-x="626" 
d="M60 524q0 26 25 26h87q20 0 22 -15l2 -15q24 21 58.5 30.5t72.5 9.5q61 0 111.5 -20.5t86.5 -58t56 -90t20 -116.5t-18.5 -116.5t-53.5 -90t-86 -58t-116 -20.5q-35 0 -72.5 12t-58.5 32v-111q0 -74 -17.5 -104t-50.5 -30h-43q-25 0 -25 26v709zM327 98q31 0 56.5 13.5
t43.5 37.5t28 56t10 70q0 44 -12.5 77t-32 55t-44 33.5t-49.5 11.5q-45 1 -76.5 -13t-54.5 -36v-249q16 -25 52 -40.5t79 -15.5z" />
    <glyph glyph-name="afii10083" unicode="&#x441;" horiz-adv-x="495" 
d="M299 98q36 0 65 4t54 10t38.5 -5.5t16.5 -29t-4.5 -35.5t-24.5 -26q-31 -14 -65.5 -20t-79.5 -6q-67 0 -118.5 20.5t-86 58t-52 90t-17.5 116.5t17.5 116.5t52 90t86 58t118.5 20.5q39 0 69.5 -5.5t54.5 -12.5q20 -6 30 -24t7.5 -36t-19 -30.5t-49.5 -7.5q-21 4 -49 6
t-44 2q-63 0 -100.5 -45.5t-37.5 -131.5t37.5 -131.5t100.5 -45.5z" />
    <glyph glyph-name="afii10084" unicode="&#x442;" horiz-adv-x="464" 
d="M459 468q0 -26 -25 -26h-134v-308q0 -74 -17.5 -104t-50.5 -30h-43q-25 0 -25 26v416h-41q-62 0 -90 16t-28 46v21q0 25 26 25h403q25 0 25 -26v-56z" />
    <glyph glyph-name="afii10085" unicode="&#x443;" horiz-adv-x="526" 
d="M129 -211q-14 0 -21 9t-1 23l85 205l-192 497q-4 11 2 19t21 8h76q20 0 26 -16l109 -284q8 -19 15 -42.5t12 -42.5q7 20 14 42t15 43l109 286q6 14 21 14h79q16 0 21.5 -8.5t1.5 -18.5l-261 -660q-16 -37 -31.5 -55.5t-33.5 -18.5h-67z" />
    <glyph glyph-name="afii10086" unicode="&#x444;" horiz-adv-x="884" 
d="M510 520q23 19 51.5 29.5t64.5 10.5q55 0 98.5 -20.5t73.5 -58t46 -90t16 -116.5t-16 -116.5t-46 -90t-73.5 -58t-98.5 -20.5q-36 0 -64.5 10.5t-51.5 29.5v-107q0 -74 -17.5 -104t-50.5 -30h-43q-25 0 -25 26v214q-23 -18 -51.5 -28.5t-63.5 -10.5q-56 0 -99.5 20.5
t-73.5 58t-45.5 90t-15.5 116.5t15.5 116.5t45.5 90t73.5 58t99.5 20.5q35 0 63.5 -10.5t51.5 -28.5v242q0 26 25 26h86q25 0 25 -26v-243zM725 275q0 82 -26 129.5t-81 47.5t-81 -42t-26 -135t26 -135t81 -42t81 47.5t26 129.5zM160 275q0 -82 26 -129.5t81 -47.5
q54 0 80.5 41t26.5 136q0 93 -26 135t-81 42t-81 -47.5t-26 -129.5z" />
    <glyph glyph-name="afii10087" unicode="&#x445;" horiz-adv-x="508" 
d="M112 550q13 0 24 -14l86 -116q8 -11 16.5 -22t15.5 -22q7 11 15.5 22t16.5 22l86 116q11 14 24 14h83q20 0 24 -11.5t-4 -22.5l-142 -193q-8 -11 -15.5 -21.5t-16.5 -21.5q9 -11 16.5 -20.5t15.5 -20.5l147 -197q14 -18 7 -30t-24 -12h-59q-19 0 -42.5 17.5t-49.5 52.5
l-51 69q-8 11 -15.5 22t-15.5 22q-8 -11 -15.5 -22t-15.5 -22l-51 -69q-53 -70 -92 -70h-59q-17 0 -24 12t7 30l146 196q8 11 15.5 21t16.5 21q-8 11 -16 21.5t-16 21.5l-141 193q-8 11 -4 22.5t24 11.5h83z" />
    <glyph glyph-name="afii10088" unicode="&#x446;" horiz-adv-x="592" 
d="M95 0q-35 0 -35 30v494q0 26 25 26h86q25 0 25 -26v-416h183v416q0 26 25 26h86q25 0 25 -26v-414h47q25 0 25 -26v-90q0 -74 -17.5 -104t-50.5 -30h-43q-25 0 -25 26v114h-356z" />
    <glyph glyph-name="afii10089" unicode="&#x447;" horiz-adv-x="568" 
d="M187 357q0 -27 5 -45t15.5 -28.5t25.5 -15.5t35 -6q33 -2 61.5 10t42.5 37v215q0 26 25 26h86q25 0 25 -26v-390q0 -74 -17.5 -104t-50.5 -30h-43q-25 0 -25 26v172q-23 -23 -55.5 -33.5t-66.5 -10.5q-94 0 -146.5 47.5t-52.5 155.5v167q0 26 25 26h86q25 0 25 -26v-167z
" />
    <glyph glyph-name="afii10090" unicode="&#x448;" horiz-adv-x="786" 
d="M326 524q0 26 25 26h84q25 0 25 -26v-416h138v416q0 26 25 26h84q23 0 25 -26v-390q0 -74 -17.5 -104t-50.5 -30h-569q-35 0 -35 30v494q0 26 25 26h84q25 0 25 -26v-416h132v416z" />
    <glyph glyph-name="afii10091" unicode="&#x449;" horiz-adv-x="803" 
d="M326 524q0 26 25 26h84q25 0 25 -26v-416h132v416q0 26 25 26h84q25 0 25 -26v-414h47q25 0 25 -26v-90q0 -74 -17.5 -104t-50.5 -30h-43q-25 0 -25 26v114h-567q-35 0 -35 30v494q0 26 25 26h84q25 0 25 -26v-416h132v416z" />
    <glyph glyph-name="afii10092" unicode="&#x44a;" horiz-adv-x="605" 
d="M361 0q-25 -1 -54 -1t-54 1q-63 2 -95.5 28.5t-32.5 85.5v328h-2q-62 0 -90 16t-28 46v21q0 25 26 25h205q25 0 25 -26v-193h92q49 0 89.5 -9.5t70 -29.5t46 -51t16.5 -74q0 -86 -51 -124.5t-163 -42.5zM261 134q0 -25 25 -26q13 -1 30.5 -1t30.5 1q52 3 72 19t20 40
q0 26 -19.5 41t-73.5 15h-85v-89z" />
    <glyph glyph-name="afii10093" unicode="&#x44b;" horiz-adv-x="713" 
d="M196 134q0 -25 25 -26q13 -1 36 -1t36 1q52 3 72 19t20 40q0 26 -19.5 41t-73.5 15h-96v-89zM535 524q0 26 25 26h86q25 0 25 -26v-390q0 -74 -17.5 -104t-50.5 -30h-43q-25 0 -25 26v498zM299 331q49 0 89.5 -9.5t70 -29.5t46 -51t16.5 -74q0 -86 -51 -124.5t-163 -42.5
q-25 -1 -59.5 -1t-59.5 1q-63 2 -95.5 28.5t-32.5 85.5v410q0 26 25 26h86q25 0 25 -26v-193h103z" />
    <glyph glyph-name="afii10094" unicode="&#x44c;" horiz-adv-x="561" 
d="M196 134q0 -25 25 -26q6 0 17.5 -0.5t23.5 -0.5t23.5 0.5t17.5 0.5q52 3 72 19t20 40q0 26 -19.5 41t-73.5 15h-106v-89zM309 331q49 0 89.5 -9.5t70 -29.5t46 -51t16.5 -74q0 -86 -51 -124.5t-163 -42.5q-12 0 -29.5 -0.5t-35.5 -0.5t-35 0.5t-29 0.5q-63 2 -95.5 28.5
t-32.5 85.5v410q0 26 25 26h86q25 0 25 -26v-193h113z" />
    <glyph glyph-name="afii10095" unicode="&#x44d;" horiz-adv-x="495" 
d="M196 98q53 0 88.5 33t45.5 96h-136q-62 0 -90 16t-28 46v19q0 25 26 25h226q-12 58 -46.5 88.5t-85.5 30.5q-16 0 -44 -2t-49 -6q-33 -5 -49.5 7.5t-19 30.5t7.5 36t30 24q24 7 54.5 12.5t69.5 5.5q67 0 118.5 -20.5t86 -58t52 -90t17.5 -116.5t-17.5 -116.5t-52 -90
t-86 -58t-118.5 -20.5q-45 0 -79.5 6t-65.5 20q-17 8 -24.5 26t-4.5 35.5t16.5 29t38.5 5.5t54 -10t65 -4z" />
    <glyph glyph-name="afii10096" unicode="&#x44e;" horiz-adv-x="804" 
d="M780 275q0 -136 -70 -210.5t-194 -74.5q-112 0 -180 61.5t-82 175.5h-63v-93q0 -74 -17.5 -104t-50.5 -30h-43q-25 0 -25 26v498q0 26 25 26h86q25 0 25 -26v-191h65q15 109 82.5 168t177.5 59q124 0 194 -74.5t70 -210.5zM388 275q0 -93 33.5 -135t94.5 -42t94.5 42
t33.5 135q0 85 -29.5 131t-98.5 46t-98.5 -46t-29.5 -131z" />
    <glyph glyph-name="afii10097" unicode="&#x44f;" horiz-adv-x="544" 
d="M350 209h-100l-72 -134q-41 -75 -93 -75h-51q-19 0 -25 11.5t2 27.5l105 192q-43 21 -68.5 59.5t-25.5 89.5q0 37 14 68.5t38.5 54t58.5 35t74 12.5h252q25 0 25 -26v-390q0 -74 -17.5 -104t-50.5 -30h-41q-25 0 -25 26v183zM350 315v129h-98q-53 0 -73.5 -17.5
t-20.5 -47.5t20.5 -47t73.5 -17h98z" />
    <glyph glyph-name="afii10071" unicode="&#x451;" horiz-adv-x="578" 
d="M129 651q0 25 18 43t44 18t44 -18t18 -43t-18 -43t-44 -18t-44 18t-18 43zM325 651q0 25 18 43t44 18t44 -18t18 -43t-18 -43t-44 -18t-44 18t-18 43zM418 332q-5 62 -41 91t-88 29q-53 0 -89 -29t-41 -91h259zM305 98q35 0 65.5 4t62.5 15q27 9 43 -1.5t21 -28t-2 -37
t-27 -29.5q-33 -16 -75 -23.5t-88 -7.5q-63 0 -115 19t-89 55t-57.5 89.5t-20.5 122.5q0 64 20 116.5t55 89.5t84 57.5t107 20.5t107 -20.5t84 -58.5t55 -91t20 -117q0 -26 -10 -37.5t-28 -11.5h-356q2 -63 40 -94.5t104 -31.5z" />
    <glyph glyph-name="uni2010" unicode="&#x2010;" horiz-adv-x="486" 
d="M451 367q0 -26 -25 -26h-273q-62 0 -90 16t-28 46v21q0 25 26 25h365q25 0 25 -26v-56z" />
    <glyph glyph-name="afii00208" unicode="&#x2015;" 
d="M905 367q0 -26 -25 -26h-747q-62 0 -90 16t-28 46v21q0 25 26 25h839q25 0 25 -26v-56z" />
    <glyph glyph-name="uni2016" unicode="&#x2016;" 
d="M580 -61q0 -38 -10 -66t-38 -28h-33q-15 0 -15 14v972q0 14 4.5 19t18.5 5h50q14 0 18.5 -5t4.5 -19v-892zM436 -61q0 -38 -10 -66t-38 -28h-33q-15 0 -15 14v972q0 14 4.5 19t18.5 5h50q14 0 18.5 -5t4.5 -19v-892z" />
    <glyph glyph-name="quoteleft" unicode="&#x2018;" horiz-adv-x="286" 
d="M253 625q0 -36 -26 -61.5t-64 -25.5q-40 0 -65 27t-25 64v6q0 61 20 110.5t58 81.5q14 12 28 12.5t22.5 -6t10 -18t-9.5 -22.5q-12 -12 -23.5 -37t-9.5 -51q38 -1 61 -23.5t23 -56.5z" />
    <glyph glyph-name="quoteright" unicode="&#x2019;" horiz-adv-x="286" 
d="M33 753q0 36 26 61.5t64 25.5q40 0 65 -27t25 -64v-6q0 -61 -20 -110.5t-58 -81.5q-14 -12 -28 -12.5t-22.5 6t-10 18t9.5 22.5q12 12 23.5 37t9.5 51q-38 1 -61 23.5t-23 56.5z" />
    <glyph glyph-name="quotedblleft" unicode="&#x201c;" horiz-adv-x="452" 
d="M231 625q0 -36 -26 -61.5t-64 -25.5q-40 0 -65 27t-25 64v6q0 61 20 110.5t58 81.5q14 12 28 12.5t22.5 -6t10 -18t-9.5 -22.5q-12 -12 -23.5 -37t-9.5 -51q38 -1 61 -23.5t23 -56.5zM441 625q0 -36 -26 -61.5t-64 -25.5q-40 0 -65 27t-25 64v6q0 61 20 110.5t58 81.5
q14 12 28 12.5t22.5 -6t10 -18t-9.5 -22.5q-12 -12 -23.5 -37t-9.5 -51q38 -1 61 -23.5t23 -56.5z" />
    <glyph glyph-name="quotedblright" unicode="&#x201d;" horiz-adv-x="452" 
d="M221 753q0 36 26 61.5t64 25.5q40 0 65 -27t25 -64v-6q0 -61 -20 -110.5t-58 -81.5q-14 -12 -28 -12.5t-22.5 6t-10 18t9.5 22.5q12 12 23.5 37t9.5 51q-38 1 -61 23.5t-23 56.5zM11 753q0 36 26 61.5t64 25.5q40 0 65 -27t25 -64v-6q0 -61 -20 -110.5t-58 -81.5
q-14 -12 -28 -12.5t-22.5 6t-10 18t9.5 22.5q12 12 23.5 37t9.5 51q-38 1 -61 23.5t-23 56.5z" />
    <glyph glyph-name="dagger" unicode="&#x2020;" horiz-adv-x="540" 
d="M525 461q0 -26 -25 -26h-162v-512q0 -74 -17.5 -104t-50.5 -30h-43q-25 0 -25 26v620h-69q-62 0 -90 16t-28 46v21q0 25 26 25h161v201q0 26 25 26h86q25 0 25 -26v-201h162q25 0 25 -26v-56z" />
    <glyph glyph-name="daggerdbl" unicode="&#x2021;" horiz-adv-x="540" 
d="M525 139q0 -26 -25 -26h-162v-190q0 -74 -17.5 -104t-50.5 -30h-43q-25 0 -25 26v298h-69q-62 0 -90 16t-28 46v21q0 25 26 25h161v214h-69q-62 0 -90 16t-28 46v21q0 25 26 25h161v201q0 26 25 26h86q25 0 25 -26v-201h162q25 0 25 -26v-56q0 -26 -25 -26h-162v-214h162
q25 0 25 -26v-56z" />
    <glyph glyph-name="twodotenleader" unicode="&#x2025;" 
d="M320 48q0 -18 -7 -34t-19 -28.5t-28.5 -19.5t-35.5 -7t-35.5 7t-28.5 19.5t-19 28.5t-7 34t7 34t19 28.5t28.5 19.5t35.5 7t35.5 -7t28.5 -19.5t19 -28.5t7 -34zM780 48q0 -18 -7 -34t-19 -28.5t-28.5 -19.5t-35.5 -7t-35.5 7t-28.5 19.5t-19 28.5t-7 34t7 34t19 28.5
t28.5 19.5t35.5 7t35.5 -7t28.5 -19.5t19 -28.5t7 -34z" />
    <glyph glyph-name="ellipsis" unicode="&#x2026;" 
d="M244 48q0 -18 -7 -34t-19 -28.5t-28.5 -19.5t-35.5 -7t-35.5 7t-28.5 19.5t-19 28.5t-7 34t7 34t19 28.5t28.5 19.5t35.5 7t35.5 -7t28.5 -19.5t19 -28.5t7 -34zM550 48q0 -18 -7 -34t-19 -28.5t-28.5 -19.5t-35.5 -7t-35.5 7t-28.5 19.5t-19 28.5t-7 34t7 34t19 28.5
t28.5 19.5t35.5 7t35.5 -7t28.5 -19.5t19 -28.5t7 -34zM856 48q0 -18 -7 -34t-19 -28.5t-28.5 -19.5t-35.5 -7t-35.5 7t-28.5 19.5t-19 28.5t-7 34t7 34t19 28.5t28.5 19.5t35.5 7t35.5 -7t28.5 -19.5t19 -28.5t7 -34z" />
    <glyph glyph-name="perthousand" unicode="&#x2030;" 
d="M186 64q-23 -40 -46 -57t-37 -17h-26q-9 0 -16 7.5t1 21.5l411 746q4 7 8 11t12 4h58q11 0 15 -6.5t-1 -16.5zM15 565q0 51 11 91t30.5 67.5t45.5 42t57 14.5q64 0 104 -56t40 -159t-40 -159t-104 -56q-31 0 -57 14.5t-45.5 42t-30.5 67.5t-11 91zM203 565q0 59 -13.5 85
t-30.5 26q-20 0 -32 -26t-12 -85t12 -85t32 -26q17 0 30.5 26t13.5 85zM319 205q0 51 11 91t30.5 67.5t45.5 42t57 14.5q64 0 104 -56t40 -159t-40 -159t-104 -56q-31 0 -57 14.5t-45.5 42t-30.5 67.5t-11 91zM507 205q0 59 -13.5 85t-30.5 26q-20 0 -32 -26t-12 -85t12 -85
t32 -26q17 0 30.5 26t13.5 85zM617 205q0 51 11 91t30.5 67.5t45.5 42t57 14.5q64 0 104 -56t40 -159t-40 -159t-104 -56q-31 0 -57 14.5t-45.5 42t-30.5 67.5t-11 91zM805 205q0 59 -13.5 85t-30.5 26q-20 0 -32 -26t-12 -85t12 -85t32 -26q17 0 30.5 26t13.5 85z" />
    <glyph glyph-name="minute" unicode="&#x2032;" horiz-adv-x="271" 
d="M55 573q-6 0 -12 3.5t-3 14.5l58 226q4 18 24 18h91q13 0 15.5 -7.5t-0.5 -15.5l-57 -165q-14 -38 -33 -56t-37 -18h-46z" />
    <glyph glyph-name="second" unicode="&#x2033;" horiz-adv-x="414" 
d="M42 573q-6 0 -12 3.5t-3 14.5l58 226q4 18 24 18h91q13 0 15.5 -7.5t-0.5 -15.5l-57 -165q-14 -38 -33 -56t-37 -18h-46zM211 573q-6 0 -12 3.5t-3 14.5l58 226q4 18 24 18h91q13 0 15.5 -7.5t-0.5 -15.5l-57 -165q-14 -38 -33 -56t-37 -18h-46z" />
    <glyph glyph-name="uni203B" unicode="&#x203b;" 
d="M535 352l267 -328q11 -14 5 -26.5t-23 -12.5h-51q-29 0 -56.5 20t-55.5 54l-161 199l-161 -199q-28 -34 -55.5 -54t-56.5 -20h-51q-17 0 -23 12.5t5 26.5l266 328l-265 329q-9 11 -4 22.5t23 11.5h90q15 0 26 -16l206 -254l206 254q6 7 12 11.5t14 4.5h90q18 0 23 -11.5
t-4 -22.5zM285 350q0 -18 -7 -34t-19 -28.5t-28.5 -19.5t-35.5 -7t-35.5 7t-28.5 19.5t-19 28.5t-7 34t7 34t19 28.5t28.5 19.5t35.5 7t35.5 -7t28.5 -19.5t19 -28.5t7 -34zM550 60q0 -18 -7 -34t-19 -28.5t-28.5 -19.5t-35.5 -7t-35.5 7t-28.5 19.5t-19 28.5t-7 34t7 34
t19 28.5t28.5 19.5t35.5 7t35.5 -7t28.5 -19.5t19 -28.5t7 -34zM550 638q0 -18 -7 -34t-19 -28.5t-28.5 -19.5t-35.5 -7t-35.5 7t-28.5 19.5t-19 28.5t-7 34t7 34t19 28.5t28.5 19.5t35.5 7t35.5 -7t28.5 -19.5t19 -28.5t7 -34zM815 350q0 -18 -7 -34t-19 -28.5t-28.5 -19.5
t-35.5 -7t-35.5 7t-28.5 19.5t-19 28.5t-7 34t7 34t19 28.5t28.5 19.5t35.5 7t35.5 -7t28.5 -19.5t19 -28.5t7 -34z" />
    <glyph glyph-name="uni203E" unicode="&#x203e;" 
d="M875 779q0 -26 -25 -26h-707q-62 0 -90 16t-28 46v21q0 25 26 25h799q25 0 25 -26v-56z" />
    <glyph glyph-name="uni2074" unicode="&#x2074;" horiz-adv-x="415" 
d="M348 572h27q25 0 25 -26v-50q0 -26 -25 -26h-31v-6q0 -33 -20.5 -53t-43.5 -20h-27q-25 0 -25 26v53h-158q-45 0 -45 40v26q0 17 10 30l202 254q8 11 19 11h77q15 0 15 -14v-245zM228 572v109l-84 -109h84z" />
    <glyph glyph-name="uni207F" unicode="&#x207f;" horiz-adv-x="480" 
d="M435 525q0 -74 -17.5 -104t-50.5 -30h-30q-25 0 -25 26v255q0 65 -58 65q-45 0 -86 -29v-183q0 -74 -17.5 -104t-50.5 -30h-30q-25 0 -25 26v387q0 25 25 25h61q20 0 24 -16l3 -12q23 17 51 27.5t60 10.5q75 0 120.5 -39t45.5 -113v-162z" />
    <glyph glyph-name="uni2081" unicode="&#x2081;" horiz-adv-x="415" 
d="M170 239l-30 -20q-21 -15 -40 -11.5t-28.5 17t-6.5 33t24 38.5l86 72q5 5 10.5 7.5t14.5 2.5h68q25 0 25 -26v-281q0 -74 -17.5 -104t-50.5 -30h-30q-25 0 -25 26v276z" />
    <glyph glyph-name="uni2082" unicode="&#x2082;" horiz-adv-x="415" 
d="M225 39h124q25 0 25 -26v-50q0 -26 -25 -26h-272q-16 0 -25.5 8.5t-9.5 25.5v24q0 13 9 21l143 135q28 26 41 52t8 52q-3 13 -9.5 20t-14.5 11t-15.5 5t-12.5 1q-21 0 -39 -7t-34 -16q-17 -9 -32 -5t-23.5 16t-6 28.5t21.5 31.5q29 23 63 34t64 11q32 0 60 -7.5t49 -22.5
t34 -38.5t16 -56.5q3 -41 -13.5 -80t-50.5 -71z" />
    <glyph glyph-name="uni2083" unicode="&#x2083;" horiz-adv-x="415" 
d="M167 127q-29 0 -46.5 11.5t-17.5 31.5v24q0 14 5 19.5t19 5.5h53q10 0 20 2t18 7t13 14.5t5 23.5q0 10 -5 16.5t-13 9.5t-17 4t-16 1q-21 0 -38 -5t-40 -14q-18 -7 -31.5 -0.5t-19.5 19t-3 27t18 23.5q29 18 58 26.5t56 10.5q36 1 67.5 -4t55.5 -18.5t38 -36t14 -55.5
q0 -37 -22 -60.5t-50 -32.5q42 -7 68 -35.5t26 -78.5q0 -66 -49.5 -100t-134.5 -34q-30 0 -69 10t-67 28q-19 12 -22.5 27.5t2.5 28t19.5 18t30.5 -2.5q29 -14 56 -18t50 -4q29 0 44 14t17 34q2 26 -14.5 44.5t-64.5 18.5h-13z" />
    <glyph glyph-name="uni2084" unicode="&#x2084;" horiz-adv-x="415" 
d="M348 118h27q25 0 25 -26v-50q0 -26 -25 -26h-31v-6q0 -33 -20.5 -53t-43.5 -20h-27q-25 0 -25 26v53h-158q-45 0 -45 40v26q0 17 10 30l202 254q8 11 19 11h77q15 0 15 -14v-245zM228 118v109l-84 -109h84z" />
    <glyph glyph-name="uni20A9" unicode="&#x20a9;" 
d="M912 367q0 -26 -25 -26h-97l-61 -289q-7 -30 -21 -41t-34 -11h-83q-22 0 -26 21l-64 323h-83l-54 -292q-7 -30 -21 -41t-34 -11h-86q-20 0 -24 20l-70 321h-4q-62 0 -90 16t-28 46v19q0 25 26 25h73l-65 300q-2 10 3 16.5t15 6.5h83q24 0 27 -20l53 -306h106l60 305
q4 21 25 21h98q17 0 20 -14l60 -312h105l52 306q2 10 9 15t16 5h86q8 0 13.5 -6t3.5 -17l-64 -300h75q25 0 25 -26v-54zM299 292l10 52h-69l9 -52l25 -120zM670 292l9 52h-69l10 -52l25 -120zM459 572l-17 -100l-6 -28h45l-5 28z" />
    <glyph glyph-name="Euro" unicode="&#x20ac;" horiz-adv-x="679" 
d="M259 222q23 -58 67 -91t111 -33q48 0 93.5 7.5t81.5 21.5q21 8 36 -2t20 -27.5t-0.5 -37t-24.5 -29.5q-38 -20 -95 -30.5t-113 -10.5q-124 0 -203.5 62t-112.5 170q-60 0 -87 16t-27 46v21q0 25 26 25h67q-1 14 -1.5 27.5t-0.5 27.5t0.5 27.5t1.5 27.5q-48 3 -70.5 19
t-22.5 43v21q0 25 26 25h88q34 109 114.5 170.5t201.5 61.5q19 0 42.5 -1.5t47.5 -5t46 -8t40 -10.5q23 -8 32 -27t4.5 -37t-21.5 -30t-46 -4q-18 4 -37.5 7t-39 5t-36.5 2.5t-30 0.5q-66 0 -110.5 -33.5t-67.5 -90.5h266q12 0 16 -7t1 -15l-22 -62q-5 -14 -14 -19t-23 -5
h-249q-1 -14 -1.5 -27.5t-0.5 -27.5t0.5 -28t1.5 -27h236q12 0 16 -7t1 -15l-22 -62q-5 -14 -14 -19t-23 -5h-169z" />
    <glyph glyph-name="uni2103" unicode="&#x2103;" horiz-adv-x="736" 
d="M491 98q48 0 85.5 7.5t73.5 21.5q21 8 36 -2t20 -27.5t-0.5 -37t-24.5 -29.5q-38 -20 -87 -30.5t-105 -10.5q-165 0 -252 89t-87 266q0 175 89 265t250 90q39 0 85 -6.5t81 -19.5q23 -9 32 -28t4.5 -37t-21.5 -29.5t-46 -3.5q-35 9 -71 12.5t-62 3.5q-53 0 -91.5 -18
t-63.5 -50.5t-37.5 -78t-12.5 -100.5q0 -54 12 -99.5t37 -78.5t64 -51t92 -18zM186 703q0 19 -12 31.5t-32 12.5t-32 -12.5t-12 -31.5t12 -31.5t32 -12.5t32 12.5t12 31.5zM267 703q0 -51 -34 -84.5t-91 -33.5t-91 33.5t-34 84.5t34 84.5t91 33.5t91 -33.5t34 -84.5z" />
    <glyph glyph-name="uni2109" unicode="&#x2109;" horiz-adv-x="752" 
d="M281 744q0 26 25 26h396q25 0 25 -26v-56q0 -26 -25 -26h-285v-206h275q25 0 25 -26v-56q0 -26 -25 -26h-275v-214q0 -74 -17.5 -104t-50.5 -30h-43q-25 0 -25 26v718zM267 703q0 -51 -34 -84.5t-91 -33.5t-91 33.5t-34 84.5t34 84.5t91 33.5t91 -33.5t34 -84.5zM186 703
q0 19 -12 31.5t-32 12.5t-32 -12.5t-12 -31.5t12 -31.5t32 -12.5t32 12.5t12 31.5z" />
    <glyph glyph-name="afii61289" unicode="&#x2113;" horiz-adv-x="498" 
d="M65 127q-23 -7 -38.5 5.5t-19 33t5.5 41.5t34 30q14 5 25.5 10t22.5 10q-18 93 -18 198q0 84 14.5 145t40.5 101t62 59.5t80 19.5q82 0 130.5 -53.5t48.5 -165.5q0 -53 -15 -102.5t-42 -94.5t-66 -84.5t-87 -72.5l8 -22t9 -22q8 -20 19.5 -38t33.5 -26q11 -4 21.5 -3.5
t19.5 2.5q22 6 37 -3t20.5 -24t0 -32.5t-23.5 -28.5q-19 -11 -43.5 -15.5t-46.5 -4.5q-49 0 -87.5 29.5t-65.5 85.5q-5 10 -9.5 20.5t-9.5 21.5q-31 -11 -61 -20zM211 455q0 -60 6 -117q27 26 45.5 53.5t30 56t17.5 57t9 56.5q6 64 -7.5 87.5t-37.5 23.5q-11 0 -22 -10.5
t-20 -35.5t-15 -66.5t-6 -104.5z" />
    <glyph glyph-name="afii61352" unicode="&#x2116;" 
d="M337 744q0 26 25 26h76q25 0 25 -26v-670q0 -32 -9 -53t-28 -21h-54q-13 0 -21 13l-164 402q-10 22 -19 47.5t-17 46.5v-375q0 -74 -17.5 -104t-50.5 -30h-33q-25 0 -25 26v718q0 10 5 18t19 8h84q11 0 18 -11l152 -359q8 -17 18.5 -43.5t15.5 -43.5v431zM903 377
q0 -116 -55.5 -173t-148.5 -57q-43 0 -80 12.5t-64.5 40.5t-43.5 71.5t-16 105.5t16 105.5t43.5 71.5t64.5 40.5t80 12.5t80 -13t64.5 -40.5t43.5 -71.5t16 -105zM621 377q0 -63 20.5 -92.5t57.5 -29.5t57.5 29.5t20.5 92.5q0 24 -4 46t-13 39t-24 27t-37 10t-37 -10
t-24 -27t-13 -39t-4 -46zM895 26q0 -26 -25 -26h-249q-62 0 -90 16t-28 46v21q0 25 26 25h341q25 0 25 -26v-56z" />
    <glyph glyph-name="uni2121" unicode="&#x2121;" 
d="M455 688q0 -26 -25 -26h-142v-528q0 -74 -17.5 -104t-50.5 -30h-23q-25 0 -25 26v636h-49q-62 0 -90 16t-28 46v21q0 25 26 25h399q25 0 25 -26v-56zM454 347h114q25 0 25 -26v-56q0 -26 -25 -26h-114v-100q0 -14 4 -22.5t19 -9.5q25 -2 54 -0.5t49 4.5q24 3 37 -9
t15 -29.5t-8 -34.5t-32 -24q-11 -3 -31 -6t-42.5 -5t-46 -2.5t-42.5 0.5q-47 3 -69.5 24.5t-22.5 67.5v441q0 26 25 26h215q25 0 25 -26v-56q0 -26 -25 -26h-124v-105zM759 139q0 -14 4 -22.5t19 -9.5q23 -2 45 0t33 4q23 5 36 -7t15 -30t-7.5 -35.5t-31.5 -24.5
q-23 -7 -61 -11t-76 -2q-47 3 -69.5 24.5t-22.5 67.5v441q0 26 25 26h66q23 0 25 -26v-395z" />
    <glyph glyph-name="trademark" unicode="&#x2122;" horiz-adv-x="816" 
d="M664 599q-3 -14 -8 -28t-10 -27l-45 -114q-6 -15 -12 -20.5t-15 -5.5h-41q-8 0 -11 2.5t-5 7.5l-50 130q-5 14 -9.5 28t-9.5 28v-109q0 -37 -14.5 -62t-34.5 -25h-41q-18 0 -18 18v345q0 10 6 16.5t17 6.5h78q9 0 12 -3.5t5 -7.5l75 -192q6 -14 12 -30.5t11 -30.5
q5 14 11 30.5t12 30.5l75 192q2 5 6 8t12 3h77q11 0 17 -6.5t6 -16.5v-276q0 -37 -15 -62t-34 -25h-42q-17 0 -17 18v177zM321 729q0 -13 -12 -13h-87v-225q0 -37 -14.5 -62t-34.5 -25h-42q-17 0 -17 18v294h-40q-31 0 -50 10.5t-19 30.5v18q0 15 14 15h290q12 0 12 -13v-48
z" />
    <glyph glyph-name="Omega" unicode="&#x2126;" horiz-adv-x="778" 
d="M743 420q0 -45 -10 -88.5t-27.5 -84t-41.5 -76t-52 -63.5h96q25 0 25 -26v-56q0 -26 -25 -26h-244q-24 0 -24 26v55q0 7 2 14t10 12q44 30 74 67t48.5 78t26.5 84t8 84q0 59 -16.5 106t-46 80t-70 50.5t-87.5 17.5t-87.5 -17.5t-70 -50.5t-46 -80t-16.5 -106q0 -41 8 -84
t26.5 -84t48.5 -78t74 -67q8 -5 10 -11.5t2 -14.5v-56q0 -25 -24 -25h-151q-62 0 -90 16t-28 46v21q0 25 26 25h95q-29 28 -53 63.5t-41.5 76t-27 84t-9.5 88.5q0 83 26 149.5t72.5 113.5t111.5 72t144 25t144 -25t111.5 -72t72.5 -113.5t26 -149.5z" />
    <glyph glyph-name="uni212B" unicode="&#x212b;" horiz-adv-x="656" 
d="M458 162h-261l-32 -88q-13 -35 -30 -54.5t-36 -19.5h-67q-14 0 -23.5 8.5t-1.5 26.5l260 638q6 14 20 14h82q14 0 20 -14l260 -638q8 -18 -1.5 -26.5t-23.5 -8.5h-66q-20 0 -37.5 21t-29.5 53zM452 815q0 -51 -34 -84t-90 -33t-90 33t-34 84t34 84t90 33t90 -33t34 -84z
M237 270h181l-68 185q-8 24 -12.5 43.5t-9.5 44.5q-5 -25 -9.5 -44t-12.5 -44zM372 815q0 19 -12 31.5t-32 12.5t-32 -12.5t-12 -31.5t12 -31.5t32 -12.5t32 12.5t12 31.5z" />
    <glyph glyph-name="onethird" unicode="&#x2153;" 
d="M630 191q-29 0 -46.5 11.5t-17.5 31.5v24q0 14 5 19.5t19 5.5h53q10 0 20 2t18 7t13 14.5t5 23.5q0 10 -5 16.5t-13 9.5t-17 4t-16 1q-21 0 -38 -5t-40 -14q-18 -7 -31.5 -0.5t-19.5 19t-3 27t18 23.5q29 18 58 26.5t56 10.5q36 1 67.5 -4t55.5 -18.5t38 -36t14 -55.5
q0 -37 -22 -60.5t-50 -32.5q42 -7 68 -35.5t26 -78.5q0 -66 -49.5 -100t-134.5 -34q-30 0 -69 10t-67 28q-19 12 -22.5 27.5t2.5 28t19.5 18t30.5 -2.5q29 -14 56 -18t50 -4q29 0 44 14t17 34q2 26 -14.5 44.5t-64.5 18.5h-13zM147 -20q-8 0 -13 6.5t1 17.5l457 770
q10 16 26 16h87q9 0 13 -6t-1 -14l-425 -716q-26 -43 -43 -58.5t-33 -15.5h-69zM178 631l-30 -20q-21 -15 -40 -11.5t-28.5 17t-6.5 33t24 38.5l86 72q5 5 10.5 7.5t14.5 2.5h68q25 0 25 -26v-281q0 -74 -17.5 -104t-50.5 -30h-30q-25 0 -25 26v276z" />
    <glyph glyph-name="twothirds" unicode="&#x2154;" 
d="M202 -20q-8 0 -13 6.5t1 17.5l457 770q10 16 26 16h87q9 0 13 -6t-1 -14l-425 -716q-26 -43 -43 -58.5t-33 -15.5h-69zM229 430h124q25 0 25 -26v-50q0 -26 -25 -26h-272q-16 0 -25.5 8.5t-9.5 25.5v24q0 13 9 21l143 135q28 26 41 52t8 52q-3 13 -9.5 20t-14.5 11
t-15.5 5t-12.5 1q-21 0 -39 -7t-34 -16q-17 -9 -32 -5t-23.5 16t-6 28.5t21.5 31.5q29 23 63 34t64 11q32 0 60 -7.5t49 -22.5t34 -38.5t16 -56.5q3 -41 -13.5 -80t-50.5 -71zM680 191q-29 0 -46.5 11.5t-17.5 31.5v24q0 14 5 19.5t19 5.5h53q10 0 20 2t18 7t13 14.5t5 23.5
q0 10 -5 16.5t-13 9.5t-17 4t-16 1q-21 0 -38 -5t-40 -14q-18 -7 -31.5 -0.5t-19.5 19t-3 27t18 23.5q29 18 58 26.5t56 10.5q36 1 67.5 -4t55.5 -18.5t38 -36t14 -55.5q0 -37 -22 -60.5t-50 -32.5q42 -7 68 -35.5t26 -78.5q0 -66 -49.5 -100t-134.5 -34q-30 0 -69 10
t-67 28q-19 12 -22.5 27.5t2.5 28t19.5 18t30.5 -2.5q29 -14 56 -18t50 -4q29 0 44 14t17 34q2 26 -14.5 44.5t-64.5 18.5h-13z" />
    <glyph glyph-name="oneeighth" unicode="&#x215b;" 
d="M675 453q41 0 71 -10t49.5 -26.5t29 -38.5t9.5 -46q0 -13 -4 -27t-12.5 -26.5t-20 -22.5t-26.5 -15q38 -13 60 -44.5t22 -71.5q0 -60 -43.5 -98t-134.5 -38q-88 0 -133 38t-45 98q0 40 23 72t59 44q-32 11 -47.5 37.5t-15.5 52.5q0 24 10 46t29.5 39t49.5 27t70 10z
M144 -20q-8 0 -13 6.5t1 17.5l457 770q10 16 26 16h87q9 0 13 -6t-1 -14l-425 -716q-26 -43 -43 -58.5t-33 -15.5h-69zM185 631l-30 -20q-21 -15 -40 -11.5t-28.5 17t-6.5 33t24 38.5l86 72q5 5 10.5 7.5t14.5 2.5h68q25 0 25 -26v-281q0 -74 -17.5 -104t-50.5 -30h-30
q-25 0 -25 26v276zM675 69q29 0 43 16t14 42t-14 42.5t-43 16.5t-43 -16.5t-14 -42.5t14 -42t43 -16zM675 368q-18 0 -28 -11.5t-10 -30.5t10 -30t28 -11q17 0 27.5 11t10.5 30t-10.5 30.5t-27.5 11.5z" />
    <glyph glyph-name="threeeighths" unicode="&#x215c;" 
d="M191 -20q-8 0 -13 6.5t1 17.5l457 770q10 16 26 16h87q9 0 13 -6t-1 -14l-425 -716q-26 -43 -43 -58.5t-33 -15.5h-69zM192 519q-29 0 -46.5 11.5t-17.5 31.5v24q0 14 5 19.5t19 5.5h53q10 0 20 2t18 7t13 14.5t5 23.5q0 10 -5 16.5t-13 9.5t-17 4t-16 1q-21 0 -38 -5
t-40 -14q-18 -7 -31.5 -0.5t-19.5 19t-3 27t18 23.5q29 18 58 26.5t56 10.5q36 1 67.5 -4t55.5 -18.5t38 -36t14 -55.5q0 -37 -22 -60.5t-50 -32.5q42 -7 68 -35.5t26 -78.5q0 -66 -49.5 -100t-134.5 -34q-30 0 -69 10t-67 28q-19 12 -22.5 27.5t2.5 28t19.5 18t30.5 -2.5
q29 -14 56 -18t50 -4q29 0 44 14t17 34q2 26 -14.5 44.5t-64.5 18.5h-13zM700 453q41 0 71 -10t49.5 -26.5t29 -38.5t9.5 -46q0 -13 -4 -27t-12.5 -26.5t-20 -22.5t-26.5 -15q38 -13 60 -44.5t22 -71.5q0 -60 -43.5 -98t-134.5 -38q-88 0 -133 38t-45 98q0 40 23 72t59 44
q-32 11 -47.5 37.5t-15.5 52.5q0 24 10 46t29.5 39t49.5 27t70 10zM700 69q29 0 43 16t14 42t-14 42.5t-43 16.5t-43 -16.5t-14 -42.5t14 -42t43 -16zM700 368q-18 0 -28 -11.5t-10 -30.5t10 -30t28 -11q17 0 27.5 11t10.5 30t-10.5 30.5t-27.5 11.5z" />
    <glyph glyph-name="fiveeighths" unicode="&#x215d;" 
d="M184 -20q-8 0 -13 6.5t1 17.5l457 770q10 16 26 16h87q9 0 13 -6t-1 -14l-425 -716q-26 -43 -43 -58.5t-33 -15.5h-69zM112 749q0 16 17 16h207q25 0 25 -26v-50q0 -26 -25 -26h-127l-2 -50q5 1 11 1h11q78 0 119 -39.5t41 -105.5q0 -33 -12.5 -60t-35 -46.5t-54 -30
t-69.5 -10.5q-28 0 -63.5 6.5t-60.5 23.5q-12 7 -15 21t1.5 27t16 20.5t28.5 2.5q26 -8 48 -11t42 -3q34 0 53 15.5t19 44.5t-18 43t-54 17q-22 2 -45.5 0.5t-40.5 -4.5q-29 -5 -26 19zM695 453q41 0 71 -10t49.5 -26.5t29 -38.5t9.5 -46q0 -13 -4 -27t-12.5 -26.5
t-20 -22.5t-26.5 -15q38 -13 60 -44.5t22 -71.5q0 -60 -43.5 -98t-134.5 -38q-88 0 -133 38t-45 98q0 40 23 72t59 44q-32 11 -47.5 37.5t-15.5 52.5q0 24 10 46t29.5 39t49.5 27t70 10zM695 69q29 0 43 16t14 42t-14 42.5t-43 16.5t-43 -16.5t-14 -42.5t14 -42t43 -16z
M695 368q-18 0 -28 -11.5t-10 -30.5t10 -30t28 -11q17 0 27.5 11t10.5 30t-10.5 30.5t-27.5 11.5z" />
    <glyph glyph-name="seveneighths" unicode="&#x215e;" 
d="M167 678q-29 0 -52.5 11t-23.5 40v16q0 20 19 20h273q21 0 21 -17v-29q0 -17 -7 -32l-136 -295q-17 -38 -31 -50.5t-34 -12.5h-61q-11 0 -16 6t0 17l149 326h-101zM144 -20q-8 0 -13 6.5t1 17.5l457 770q10 16 26 16h87q9 0 13 -6t-1 -14l-425 -716q-26 -43 -43 -58.5
t-33 -15.5h-69zM685 453q41 0 71 -10t49.5 -26.5t29 -38.5t9.5 -46q0 -13 -4 -27t-12.5 -26.5t-20 -22.5t-26.5 -15q38 -13 60 -44.5t22 -71.5q0 -60 -43.5 -98t-134.5 -38q-88 0 -133 38t-45 98q0 40 23 72t59 44q-32 11 -47.5 37.5t-15.5 52.5q0 24 10 46t29.5 39t49.5 27
t70 10zM685 69q29 0 43 16t14 42t-14 42.5t-43 16.5t-43 -16.5t-14 -42.5t14 -42t43 -16zM685 368q-18 0 -28 -11.5t-10 -30.5t10 -30t28 -11q17 0 27.5 11t10.5 30t-10.5 30.5t-27.5 11.5z" />
    <glyph glyph-name="uni2160" unicode="&#x2160;" 
d="M392 744q0 26 25 26h86q25 0 25 -26v-610q0 -74 -17.5 -104t-50.5 -30h-43q-25 0 -25 26v718z" />
    <glyph glyph-name="uni2161" unicode="&#x2161;" 
d="M259 744q0 26 25 26h86q25 0 25 -26v-610q0 -74 -17.5 -104t-50.5 -30h-43q-25 0 -25 26v718zM525 744q0 26 25 26h86q25 0 25 -26v-610q0 -74 -17.5 -104t-50.5 -30h-43q-25 0 -25 26v718z" />
    <glyph glyph-name="uni2162" unicode="&#x2162;" 
d="M161 744q0 26 25 26h86q25 0 25 -26v-610q0 -74 -17.5 -104t-50.5 -30h-43q-25 0 -25 26v718zM392 744q0 26 25 26h86q25 0 25 -26v-610q0 -74 -17.5 -104t-50.5 -30h-43q-25 0 -25 26v718zM623 744q0 26 25 26h86q25 0 25 -26v-610q0 -74 -17.5 -104t-50.5 -30h-43
q-25 0 -25 26v718z" />
    <glyph glyph-name="uni2163" unicode="&#x2163;" 
d="M715 745q3 11 9.5 18t22.5 7h81q20 0 24 -10.5t-1 -24.5l-202 -683q-11 -30 -23 -41t-32 -11h-77q-17 0 -22 14l-217 723q-5 14 0 23.5t21 9.5h78q16 0 24.5 -4t13.5 -21l118 -413q4 -14 8 -32t8.5 -37t8 -37.5t6.5 -31.5q3 13 7 31.5t8.5 37.5t9 37t8.5 32zM114 744
q0 26 25 26h86q25 0 25 -26v-610q0 -74 -17.5 -104t-50.5 -30h-43q-25 0 -25 26v718z" />
    <glyph glyph-name="uni2164" unicode="&#x2164;" 
d="M650 745q3 11 9.5 18t22.5 7h81q20 0 24 -10.5t-1 -24.5l-242 -683q-11 -30 -23 -41t-32 -11h-77q-17 0 -22 14l-257 723q-5 14 0 23.5t21 9.5h78q16 0 24.5 -4t13.5 -21l158 -473q8 -27 17 -59t15 -59q6 27 15 59t17 59z" />
    <glyph glyph-name="uni2165" unicode="&#x2165;" 
d="M506 745q3 11 9.5 18t22.5 7h81q20 0 23.5 -10.5t-0.5 -24.5l-202 -683q-11 -30 -23 -41t-32 -11h-77q-17 0 -22 14l-217 723q-5 14 0 23.5t21 9.5h78q16 0 24.5 -4t13.5 -21l118 -413q4 -14 8 -32t8.5 -37t8 -37.5t6.5 -31.5q3 13 7 31.5t8.5 37.5t9 37t8.5 32zM670 744
q0 26 25 26h86q25 0 25 -26v-610q0 -74 -17.5 -104t-50.5 -30h-43q-25 0 -25 26v718z" />
    <glyph glyph-name="uni2166" unicode="&#x2166;" 
d="M402 745q3 11 9.5 18t22.5 7h81q20 0 23.5 -10.5t-0.5 -24.5l-167 -683q-11 -30 -23 -41t-32 -11h-77q-17 0 -22 14l-182 723q-5 14 0 23.5t21 9.5h78q16 0 24.5 -4t13.5 -21l83 -407q3 -14 7 -33t8.5 -39.5t8.5 -39.5t7 -32l7.5 32.5t9 39.5t9 39t7.5 33zM566 744
q0 26 25 26h82q25 0 25 -26v-610q0 -74 -17.5 -104t-50.5 -30h-39q-25 0 -25 26v718zM752 744q0 26 25 26h82q25 0 25 -26v-610q0 -74 -17.5 -104t-50.5 -30h-39q-25 0 -25 26v718z" />
    <glyph glyph-name="uni2167" unicode="&#x2167;" 
d="M304 745q3 11 9.5 18t22.5 7h71q20 0 23.5 -10.5t-0.5 -24.5l-137 -683q-11 -30 -18.5 -41t-26.5 -11h-67q-17 0 -22 14l-152 723q-3 14 1 23.5t20 9.5h68q16 0 25.5 -3.5t12.5 -21.5l56 -354q3 -14 6.5 -36.5t7.5 -47.5t8 -48t6 -36q3 13 6.5 36t8 48t8.5 47.5t7 36.5z
M453 744q0 26 25 26h66q25 0 25 -26v-610q0 -74 -17.5 -104t-50.5 -30h-23q-25 0 -25 26v718zM623 744q0 26 25 26h66q25 0 25 -26v-610q0 -74 -17.5 -104t-50.5 -30h-23q-25 0 -25 26v718zM793 744q0 26 25 26h66q25 0 25 -26v-610q0 -74 -17.5 -104t-50.5 -30h-23
q-25 0 -25 26v718z" />
    <glyph glyph-name="uni2168" unicode="&#x2168;" 
d="M86 744q0 26 25 26h86q25 0 25 -26v-610q0 -74 -17.5 -104t-50.5 -30h-43q-25 0 -25 26v718zM588 197q-11 17 -22 33.5t-21 33.5q-10 -17 -20.5 -33.5t-21.5 -33.5l-77 -123q-23 -37 -48 -55.5t-47 -18.5h-68q-17 0 -23 12t5 27l156 241q17 27 34 53.5t34 52.5
q-17 27 -34 54.5t-34 54.5l-151 241q-8 12 -3.5 23t22.5 11h90q15 0 26 -16l116 -181l22 -34l22 -34q11 18 22 34t22 34l117 181q11 16 26 16h90q18 0 22.5 -11t-3.5 -23l-152 -243q-17 -26 -33.5 -53t-33.5 -54l34 -52t34 -53l156 -242q10 -16 4.5 -27.5t-22.5 -11.5h-68
q-22 0 -47 18.5t-48 55.5z" />
    <glyph glyph-name="uni2169" unicode="&#x2169;" 
d="M502 197q-11 17 -22 33.5t-21 33.5q-10 -17 -20.5 -33.5t-21.5 -33.5l-77 -123q-23 -37 -48 -55.5t-47 -18.5h-68q-17 0 -23 12t5 27l156 241q17 27 34 53.5t34 52.5q-17 27 -34 54.5t-34 54.5l-151 241q-8 12 -3.5 23t22.5 11h90q15 0 26 -16l116 -181l22 -34l22 -34
q11 18 22 34t22 34l117 181q11 16 26 16h90q18 0 22.5 -11t-3.5 -23l-152 -243q-17 -26 -33.5 -53t-33.5 -54l34 -52t34 -53l156 -242q10 -16 4.5 -27.5t-22.5 -11.5h-68q-22 0 -47 18.5t-48 55.5z" />
    <glyph glyph-name="uni2170" unicode="&#x2170;" 
d="M392 519q0 26 25 26h86q25 0 25 -26v-385q0 -74 -17.5 -104t-50.5 -30h-43q-25 0 -25 26v493zM370 700q0 18 7 34t19 28.5t28.5 19.5t35.5 7t35.5 -7t28.5 -19.5t19 -28.5t7 -34t-7 -34t-19 -28.5t-28.5 -19.5t-35.5 -7t-35.5 7t-28.5 19.5t-19 28.5t-7 34z" />
    <glyph glyph-name="uni2171" unicode="&#x2171;" 
d="M261 519q0 26 25 26h86q25 0 25 -26v-385q0 -74 -17.5 -104t-50.5 -30h-43q-25 0 -25 26v493zM239 700q0 18 7 34t19 28.5t28.5 19.5t35.5 7t35.5 -7t28.5 -19.5t19 -28.5t7 -34t-7 -34t-19 -28.5t-28.5 -19.5t-35.5 -7t-35.5 7t-28.5 19.5t-19 28.5t-7 34zM523 519
q0 26 25 26h86q25 0 25 -26v-385q0 -74 -17.5 -104t-50.5 -30h-43q-25 0 -25 26v493zM501 700q0 18 7 34t19 28.5t28.5 19.5t35.5 7t35.5 -7t28.5 -19.5t19 -28.5t7 -34t-7 -34t-19 -28.5t-28.5 -19.5t-35.5 -7t-35.5 7t-28.5 19.5t-19 28.5t-7 34z" />
    <glyph glyph-name="uni2172" unicode="&#x2172;" 
d="M161 519q0 26 25 26h86q25 0 25 -26v-385q0 -74 -17.5 -104t-50.5 -30h-43q-25 0 -25 26v493zM139 700q0 18 7 34t19 28.5t28.5 19.5t35.5 7t35.5 -7t28.5 -19.5t19 -28.5t7 -34t-7 -34t-19 -28.5t-28.5 -19.5t-35.5 -7t-35.5 7t-28.5 19.5t-19 28.5t-7 34zM392 519
q0 26 25 26h86q25 0 25 -26v-385q0 -74 -17.5 -104t-50.5 -30h-43q-25 0 -25 26v493zM370 700q0 18 7 34t19 28.5t28.5 19.5t35.5 7t35.5 -7t28.5 -19.5t19 -28.5t7 -34t-7 -34t-19 -28.5t-28.5 -19.5t-35.5 -7t-35.5 7t-28.5 19.5t-19 28.5t-7 34zM623 519q0 26 25 26h86
q25 0 25 -26v-385q0 -74 -17.5 -104t-50.5 -30h-43q-25 0 -25 26v493zM601 700q0 18 7 34t19 28.5t28.5 19.5t35.5 7t35.5 -7t28.5 -19.5t19 -28.5t7 -34t-7 -34t-19 -28.5t-28.5 -19.5t-35.5 -7t-35.5 7t-28.5 19.5t-19 28.5t-7 34z" />
    <glyph glyph-name="uni2173" unicode="&#x2173;" 
d="M138 519q0 26 25 26h86q25 0 25 -26v-385q0 -74 -17.5 -104t-50.5 -30h-43q-25 0 -25 26v493zM116 700q0 18 7 34t19 28.5t28.5 19.5t35.5 7t35.5 -7t28.5 -19.5t19 -28.5t7 -34t-7 -34t-19 -28.5t-28.5 -19.5t-35.5 -7t-35.5 7t-28.5 19.5t-19 28.5t-7 34zM634 52
q-11 -31 -23 -41.5t-32 -10.5h-76q-18 0 -23 14l-178 503q-5 13 -0.5 23t21.5 10h75q15 0 22 -4.5t12 -17.5l84 -265q8 -27 17 -55t17 -55q8 27 17 55t17 55l83 265q5 13 12 17.5t22 4.5h75q17 0 21.5 -10t-0.5 -23z" />
    <glyph glyph-name="uni2174" unicode="&#x2174;" 
d="M544 52q-11 -31 -23 -41.5t-32 -10.5h-76q-18 0 -23 14l-178 503q-5 13 -0.5 23t21.5 10h75q15 0 22 -4.5t12 -17.5l84 -265q8 -27 17 -55t17 -55q8 27 17 55t17 55l83 265q5 13 12 17.5t22 4.5h75q17 0 21.5 -10t-0.5 -23z" />
    <glyph glyph-name="uni2175" unicode="&#x2175;" 
d="M455 52q-11 -31 -23 -41.5t-32 -10.5h-76q-18 0 -23 14l-178 503q-5 13 -0.5 23t21.5 10h75q15 0 22 -4.5t12 -17.5l84 -265q8 -27 17 -55t17 -55q8 27 17 55t17 55l83 265q5 13 12 17.5t22 4.5h75q17 0 21.5 -10t-0.5 -23zM646 519q0 26 25 26h86q25 0 25 -26v-385
q0 -74 -17.5 -104t-50.5 -30h-43q-25 0 -25 26v493zM624 700q0 18 7 34t19 28.5t28.5 19.5t35.5 7t35.5 -7t28.5 -19.5t19 -28.5t7 -34t-7 -34t-19 -28.5t-28.5 -19.5t-35.5 -7t-35.5 7t-28.5 19.5t-19 28.5t-7 34z" />
    <glyph glyph-name="uni2176" unicode="&#x2176;" 
d="M364 52q-9 -32 -22 -42t-33 -10h-76q-18 0 -23 14l-143 503q-5 13 -0.5 23t21.5 10h75q15 0 23 -4t11 -18l59 -265q6 -28 12.5 -55t11.5 -55q5 28 11.5 55t12.5 55l58 265q3 14 11 18t23 4h75q17 0 21 -10t0 -23zM520 519q0 26 25 26h82q25 0 25 -26v-385
q0 -74 -17.5 -104t-50.5 -30h-39q-25 0 -25 26v493zM503 700q0 40 22.5 64.5t60.5 24.5t60.5 -24.5t22.5 -64.5q0 -38 -22.5 -63.5t-60.5 -25.5t-60.5 24.5t-22.5 64.5zM706 519q0 26 25 26h82q25 0 25 -26v-385q0 -74 -17.5 -104t-50.5 -30h-39q-25 0 -25 26v493zM684 700
q0 36 25 62.5t63 26.5t63 -26.5t25 -62.5t-25 -62.5t-63 -26.5t-63 26.5t-25 62.5z" />
    <glyph glyph-name="uni2177" unicode="&#x2177;" 
d="M431 519q0 26 25 26h66q25 0 25 -26v-385q0 -74 -17.5 -104t-50.5 -30h-23q-25 0 -25 26v493zM412 700q0 36 19.5 62.5t57.5 26.5t57.5 -26.5t19.5 -62.5t-19.5 -62.5t-57.5 -26.5t-57.5 26.5t-19.5 62.5zM771 519q0 26 25 26h66q25 0 25 -26v-385q0 -74 -17.5 -104
t-50.5 -30h-23q-25 0 -25 26v493zM292 52q-8 -32 -21.5 -42t-33.5 -10h-66q-18 0 -23 14l-138 503q-4 13 0 23t21 10h65q15 0 23 -4t11 -18l59 -265q6 -28 12.5 -55t11.5 -55q5 28 11.5 55t12.5 55l58 265q3 14 11 18t23 4h65q17 0 21 -10t0 -23zM601 519q0 26 25 26h66
q25 0 25 -26v-385q0 -74 -17.5 -104t-50.5 -30h-23q-25 0 -25 26v493zM582 700q0 36 19.5 62.5t57.5 26.5t57.5 -26.5t19.5 -62.5t-19.5 -62.5t-57.5 -26.5t-57.5 26.5t-19.5 62.5zM752 700q0 36 19.5 62.5t57.5 26.5t57.5 -26.5t19.5 -62.5t-19.5 -62.5t-57.5 -26.5
t-57.5 26.5t-19.5 62.5z" />
    <glyph glyph-name="uni2178" unicode="&#x2178;" 
d="M146 519q0 26 25 26h86q25 0 25 -26v-385q0 -74 -17.5 -104t-50.5 -30h-43q-25 0 -25 26v493zM124 700q0 18 7 34t19 28.5t28.5 19.5t35.5 7t35.5 -7t28.5 -19.5t19 -28.5t7 -34t-7 -34t-19 -28.5t-28.5 -19.5t-35.5 -7t-35.5 7t-28.5 19.5t-19 28.5t-7 34zM415 550
q13 0 24 -14l86 -116q8 -11 16.5 -22t15.5 -22q7 11 15.5 22t16.5 22l86 116q11 14 24 14h83q20 0 24 -11.5t-4 -22.5l-142 -193q-8 -11 -15.5 -21.5t-16.5 -21.5q9 -11 16.5 -20.5t15.5 -20.5l147 -197q14 -18 7 -30t-24 -12h-59q-19 0 -42.5 17.5t-49.5 52.5l-51 69
q-8 11 -15.5 22t-15.5 22q-8 -11 -15.5 -22t-15.5 -22l-51 -69q-53 -70 -92 -70h-59q-17 0 -24 12t7 30l146 196q8 11 15.5 21t16.5 21q-8 11 -16 21.5t-16 21.5l-141 193q-8 11 -4 22.5t24 11.5h83z" />
    <glyph glyph-name="uni2179" unicode="&#x2179;" 
d="M318 550q13 0 24 -14l86 -116q8 -11 16.5 -22t15.5 -22q7 11 15.5 22t16.5 22l86 116q11 14 24 14h83q20 0 24 -11.5t-4 -22.5l-142 -193q-8 -11 -15.5 -21.5t-16.5 -21.5q9 -11 16.5 -20.5t15.5 -20.5l147 -197q14 -18 7 -30t-24 -12h-59q-19 0 -42.5 17.5t-49.5 52.5
l-51 69q-8 11 -15.5 22t-15.5 22q-8 -11 -15.5 -22t-15.5 -22l-51 -69q-53 -70 -92 -70h-59q-17 0 -24 12t7 30l146 196q8 11 15.5 21t16.5 21q-8 11 -16 21.5t-16 21.5l-141 193q-8 11 -4 22.5t24 11.5h83z" />
    <glyph glyph-name="arrowleft" unicode="&#x2190;" 
d="M2 350l139 144q12 12 22.5 4t5.5 -24l-26 -71h750q25 0 25 -26v-55q0 -26 -25 -26h-750l26 -70q5 -16 -5.5 -24t-22.5 4z" />
    <glyph glyph-name="arrowup" unicode="&#x2191;" horiz-adv-x="587" 
d="M232 701l-63 -23q-16 -5 -24 5.5t4 22.5l144 139l144 -139q12 -12 4 -22.5t-24 -5.5l-62 22v-711q0 -74 -17.5 -104t-50.5 -30h-30q-25 0 -25 26v820z" />
    <glyph glyph-name="arrowright" unicode="&#x2192;" 
d="M779 206q-12 -12 -22.5 -4t-5.5 24l25 70h-656q-62 0 -90 16t-28 46v20q0 25 26 25h749l-26 71q-5 16 5.5 24t22.5 -4l139 -144z" />
    <glyph glyph-name="arrowdown" unicode="&#x2193;" horiz-adv-x="587" 
d="M293 -145l-144 139q-12 12 -4 22.5t24 5.5l63 -23v820q0 26 25 26h73q25 0 25 -26v-819l62 22q16 5 24 -5.5t-4 -22.5z" />
    <glyph glyph-name="arrowboth" unicode="&#x2194;" 
d="M2 350l139 144q12 12 22.5 4t5.5 -24l-26 -71h634l-26 71q-5 16 5.5 24t22.5 -4l139 -144l-139 -144q-12 -12 -22.5 -4t-5.5 24l25 70h-633l26 -70q5 -16 -5.5 -24t-22.5 4z" />
    <glyph glyph-name="arrowupdn" unicode="&#x2195;" horiz-adv-x="587" 
d="M437 706q12 -12 4 -22.5t-24 -5.5l-62 22v-700l62 22q16 5 24 -5.5t-4 -22.5l-144 -139l-144 139q-12 12 -4 22.5t24 5.5l63 -23v702l-63 -23q-16 -5 -24 5.5t4 22.5l144 139z" />
    <glyph glyph-name="uni2196" unicode="&#x2196;" 
d="M229 832q17 -1 18 -14.5t-14 -19.5l-63 -26l739 -822q18 -19 -2 -36l-22 -20q-24 -22 -57.5 -11.5t-82.5 66.5l-667 740l-30 -57q-8 -15 -21 -12.5t-12 19.5l14 200z" />
    <glyph glyph-name="uni2197" unicode="&#x2197;" 
d="M891 839l14 -200q1 -17 -12 -19.5t-21 12.5l-31 57l-666 -740q-25 -28 -45.5 -44t-37.5 -22t-31 -3t-26 14l-22 20q-20 17 -2 36l739 822l-63 26q-15 6 -14 19.5t18 14.5z" />
    <glyph glyph-name="uni2198" unicode="&#x2198;" 
d="M691 -134q-17 1 -18 14.5t14 19.5l65 27l-740 824q-17 20 2 36l54 48q19 16 36 -2l739 -821l29 54q4 7 10 10.5t11.5 2.5t9 -6t2.5 -14l-14 -200z" />
    <glyph glyph-name="uni2199" unicode="&#x2199;" 
d="M29 -141l-14 200q-1 9 2.5 14t9 6t11.5 -2.5t10 -10.5l29 -54l739 821q17 18 36 2l54 -48q19 -16 2 -36l-741 -824l66 -27q15 -6 14 -19.5t-18 -14.5z" />
    <glyph glyph-name="arrowdblright" unicode="&#x21d2;" 
d="M918 350l-281 -269q-13 -12 -28.5 -10t-26 12.5t-12.5 26.5t13 33l51 59h-514q-62 0 -90 16t-28 46v19q0 25 26 25h698l37 42l-37 42h-606q-62 0 -90 16t-28 46v19q0 25 26 25h606l-51 59q-14 16 -12.5 32.5t12 27t26.5 11.5t30 -12z" />
    <glyph glyph-name="arrowdblboth" unicode="&#x21d4;" 
d="M281 616q14 13 30 12t26.5 -11.5t12 -27t-12.5 -32.5l-52 -59h349l-51 59q-14 16 -12.5 32.5t12 27t26.5 11.5t30 -12l279 -266l-281 -269q-13 -12 -28.5 -10t-26 12.5t-12.5 26.5t13 33l51 59h-349l52 -59q15 -17 13 -33t-12.5 -26.5t-26 -12.5t-28.5 10l-281 269z
M726 392h-533l-36 -42l36 -42h533l37 42z" />
    <glyph glyph-name="universal" unicode="&#x2200;" horiz-adv-x="656" 
d="M191 602h275l30 94q11 33 26.5 53.5t34.5 20.5h77q14 0 20.5 -8.5t-0.5 -26.5l-265 -721q-5 -14 -20 -14h-82q-15 0 -20 14l-265 721q-7 18 -0.5 26.5t20.5 8.5h77q19 0 35 -20.5t26 -53.5zM432 496h-207l81 -254q8 -24 12.5 -48.5t9.5 -49.5q5 25 9.5 49t12.5 49z" />
    <glyph glyph-name="partialdiff" unicode="&#x2202;" horiz-adv-x="545" 
d="M266 496q-23 0 -39.5 -2t-43.5 -7q-24 -5 -39 5t-19.5 25.5t3 31.5t29.5 25q51 20 112 20q105 0 153 -50t48 -153q0 -77 -17 -131.5t-47 -89t-71.5 -50.5t-89.5 -16q-36 0 -67 9t-54 27t-36 45.5t-13 64.5q0 63 39.5 107.5t111.5 60.5q26 6 54 7.5t52 -0.5
q-2 33 -21.5 52t-44.5 19zM298 327q-42 0 -64.5 -21.5t-22.5 -47.5q0 -22 13.5 -34t34.5 -12q32 0 55 30.5t24 82.5q-11 2 -21.5 2h-18.5z" />
    <glyph glyph-name="existential" unicode="&#x2203;" horiz-adv-x="605" 
d="M405 310h-315q-25 0 -25 26v56q0 26 25 26h315v206q0 29 -31 32q-71 6 -143.5 3t-156.5 -11q-22 -2 -34.5 11t-14.5 30.5t8 34t33 20.5q41 7 92.5 12t104 7t101.5 1.5t85 -4.5q47 -5 69.5 -25.5t22.5 -66.5v-651q0 -26 -25 -26h-436q-25 0 -25 26v56q0 26 25 26h325v211z
" />
    <glyph glyph-name="Delta" unicode="&#x2206;" 
d="M882 0h-844l422 735zM706 97l-264 462l-266 -462h530z" />
    <glyph glyph-name="gradient" unicode="&#x2207;" 
d="M37 721h846l-423 -737zM204 630l274 -483l276 483h-550z" />
    <glyph glyph-name="element" unicode="&#x2208;" 
d="M414 545q-71 0 -113.5 -23t-55.5 -80h540q25 0 25 -26v-56q0 -26 -25 -26h-542q12 -60 55 -84.5t116 -24.5h376q25 0 25 -26v-56q0 -26 -25 -26h-376q-78 0 -136.5 19t-97.5 54.5t-58 85t-19 109.5t19 109.5t58 85t97.5 54.5t136.5 19h376q25 0 25 -26v-56q0 -25 -25 -26
h-376z" />
    <glyph glyph-name="suchthat" unicode="&#x220b;" 
d="M504 653q78 0 136.5 -19t97.5 -54.5t58 -85t19 -109.5t-19 -109.5t-58 -85t-97.5 -54.5t-136.5 -19h-281q-62 0 -90 16t-28 46v21q0 25 26 25h373q72 0 115 24.5t55 84.5h-446q-62 0 -90 16t-28 46v21q0 25 26 25h537q-14 57 -56 80t-113 23h-281q-62 0 -90 16t-28 46v21
q0 23 26 25h373z" />
    <glyph glyph-name="product" unicode="&#x220f;" horiz-adv-x="736" 
d="M720 770q2 -9 3 -23t1 -28q0 -30 -15.5 -43.5t-44.5 -13.5h-60v-622q0 -26 -25 -26h-111v648h-200v-622q0 -26 -25 -26h-111v648h-115q-5 20 -5 51q0 30 15.5 43.5t44.5 13.5h648v0z" />
    <glyph glyph-name="summation" unicode="&#x2211;" horiz-adv-x="613" 
d="M30 756q0 14 15 14h511q25 0 25 -26v-56q0 -26 -25 -26h-355q10 -14 15 -22l202 -305q8 -13 8 -24v-23q0 -12 -8 -24l-176 -270q-8 -13 -21 -32t-22 -32t-4.5 -22t19.5 -10q81 -6 163 -5t178 9q25 2 39 -12t16.5 -32t-8.5 -34.5t-36 -20.5q-47 -8 -109.5 -12.5t-128 -6.5
t-129 -1t-112.5 5q-23 2 -38 12t-21 25t-4 33t13 35l259 406l-257 395q-5 7 -6.5 13t-2.5 14v35z" />
    <glyph glyph-name="radical" unicode="&#x221a;" horiz-adv-x="540" 
d="M99 272h-18q-35 0 -56 20t-21 47v18q0 21 22 21h130q12 0 19 -3t10 -13l49 -182q6 -25 11 -44.5t10 -45.5q4 26 7.5 45.5t9.5 44.5l148 681q3 14 19 14h82q11 0 14.5 -5.5t1.5 -12.5l-201 -834q-8 -29 -23.5 -46t-40.5 -17h-64q-15 0 -20 14z" />
    <glyph glyph-name="proportional" unicode="&#x221d;" horiz-adv-x="740" 
d="M252 252q39 0 76 22.5t69 75.5q-32 52 -69 75t-76 23q-45 0 -69 -27t-24 -71t24 -71t69 -27zM685 144q-66 0 -126 30.5t-95 83.5q-33 -46 -88.5 -79t-123.5 -33q-55 0 -97 16.5t-71 44.5t-44 65t-15 78q0 39 15 76t44 65.5t71 45.5t97 17q33 0 64 -9t58.5 -24t50 -35.5
t39.5 -43.5q31 51 90 81.5t131 30.5q17 0 23.5 -7.5t6.5 -23.5v-47q0 -16 -7.5 -23t-27.5 -7q-46 0 -84.5 -28t-64.5 -68q10 -17 26.5 -34t36.5 -31.5t42 -23.5t44 -9q20 0 27.5 -7t7.5 -23v-47q0 -16 -6.5 -23.5t-23.5 -7.5z" />
    <glyph glyph-name="infinity" unicode="&#x221e;" 
d="M539 357q22 -53 60.5 -78t72.5 -25q38 0 60.5 27t22.5 69t-22.5 69t-60.5 27q-34 0 -69.5 -18.5t-63.5 -70.5zM469 260q-40 -51 -97 -82.5t-133 -31.5q-48 0 -86.5 15.5t-65.5 43t-41.5 64.5t-14.5 81q0 43 14.5 80.5t41.5 65t65.5 43t86.5 15.5q38 0 68.5 -8.5
t57.5 -24.5t51 -39.5t49 -52.5q39 62 89.5 93.5t126.5 31.5q48 0 86.5 -15.5t65.5 -43t41.5 -65t14.5 -80.5q0 -44 -14.5 -81t-41.5 -64.5t-65.5 -43t-86.5 -15.5q-72 0 -123 31t-89 83zM385 339q-29 56 -66 81.5t-71 25.5q-38 0 -60.5 -27t-22.5 -69t22.5 -69t60.5 -27
q34 0 71 21t66 64z" />
    <glyph glyph-name="angle" unicode="&#x2220;" 
d="M115 0q-14 0 -19.5 13.5t5.5 27.5l480 604q11 14 29 14h115q14 0 16.5 -10t-5.5 -20l-408 -516h483q25 0 25 -26v-61q0 -26 -25 -26h-696z" />
    <glyph glyph-name="uni2225" unicode="&#x2225;" 
d="M570 -61q0 -38 -10 -66t-38 -28h-23q-15 0 -15 14v972q0 14 4.5 19t18.5 5h40q14 0 18.5 -5t4.5 -19v-892zM436 -61q0 -38 -10 -66t-38 -28h-23q-15 0 -15 14v972q0 14 4.5 19t18.5 5h40q14 0 18.5 -5t4.5 -19v-892z" />
    <glyph glyph-name="logicaland" unicode="&#x2227;" horiz-adv-x="786" 
d="M415 468q-8 24 -12.5 48.5t-9.5 49.5q-5 -25 -9.5 -49t-12.5 -49l-127 -394q-11 -33 -29 -53.5t-37 -20.5h-67q-14 0 -23 8.5t-2 26.5l246 661q5 14 20 14h82q15 0 20 -14l246 -661q7 -18 -2 -26.5t-23 -8.5h-67q-19 0 -37.5 20.5t-28.5 53.5z" />
    <glyph glyph-name="logicalor" unicode="&#x2228;" horiz-adv-x="786" 
d="M561 685q5 14 14.5 19.5t23.5 5.5h80q16 0 21 -9.5t0 -23.5l-229 -618q-8 -21 -17.5 -33t-20 -17.5t-20.5 -7t-17 -1.5h-44q-15 0 -20 14l-246 663q-5 14 0 23.5t21 9.5h80q14 0 24 -4.5t15 -20.5l143 -433q8 -25 13.5 -48.5t10.5 -49.5q4 23 10 48.5t14 49.5z" />
    <glyph glyph-name="intersection" unicode="&#x2229;" horiz-adv-x="776" 
d="M535 391q0 50 -7 91t-24.5 70t-45.5 44.5t-70 15.5t-70 -15.5t-45 -44.5t-24.5 -70t-7.5 -91v-265q0 -70 -18 -98t-50 -28h-43q-25 0 -25 26v377q0 85 20 145t57 98.5t89 56t117 17.5t117.5 -17.5t89 -56t56.5 -98.5t20 -145v-269q0 -74 -17.5 -104t-50.5 -30h-43
q-25 0 -25 26v365z" />
    <glyph glyph-name="union" unicode="&#x222a;" horiz-adv-x="776" 
d="M671 307q0 -85 -20 -145t-56.5 -98.5t-89 -56t-117.5 -17.5t-117 17.5t-89 56t-57 98.5t-20 145v377q0 26 25 26h86q25 0 25 -26v-365q0 -50 7.5 -91t24.5 -70t45 -44.5t70 -15.5t70 15.5t45.5 44.5t24.5 70t7 91v365q0 26 25 26h86q25 0 25 -26v-377z" />
    <glyph glyph-name="integral" unicode="&#x222b;" horiz-adv-x="508" 
d="M186 644q0 67 39 101.5t103 34.5q22 0 46.5 -5.5t41.5 -16.5q20 -12 25 -30.5t-1 -34.5t-21.5 -24.5t-36.5 -0.5q-11 5 -21.5 7t-19.5 0q-14 -4 -16.5 -20t-2.5 -43v-693q0 -67 -39 -101.5t-103 -34.5q-22 0 -46.5 5.5t-41.5 16.5q-20 12 -25 30.5t1 34.5t21.5 24.5
t36.5 0.5q11 -5 21.5 -7t19.5 0q14 4 17 20t2 43v693z" />
    <glyph glyph-name="uni222C" unicode="&#x222c;" horiz-adv-x="744" 
d="M176 644q0 67 39 101.5t103 34.5q22 0 46.5 -5.5t41.5 -16.5q20 -12 25 -30.5t-1 -34.5t-21.5 -24.5t-36.5 -0.5q-11 5 -21.5 7t-19.5 0q-14 -4 -16.5 -20t-2.5 -43v-693q0 -67 -39 -101.5t-103 -34.5q-22 0 -46.5 5.5t-41.5 16.5q-20 12 -25 30.5t1 34.5t21.5 24.5
t36.5 0.5q11 -5 21.5 -7t19.5 0q14 4 17 20t2 43v693zM433 644q0 67 39 101.5t103 34.5q22 0 46.5 -5.5t41.5 -16.5q20 -12 25 -30.5t-1 -34.5t-21.5 -24.5t-36.5 -0.5q-11 5 -21.5 7t-19.5 0q-14 -4 -16.5 -20t-2.5 -43v-693q0 -67 -39 -101.5t-103 -34.5q-22 0 -46.5 5.5
t-41.5 16.5q-20 12 -25 30.5t1 34.5t21.5 24.5t36.5 0.5q11 -5 21.5 -7t19.5 0q14 4 17 20t2 43v693z" />
    <glyph glyph-name="uni222E" unicode="&#x222e;" horiz-adv-x="718" 
d="M291 24q-62 8 -111 29t-83.5 53.5t-53 75t-18.5 93.5q0 50 18.5 92.5t53 75t83.5 54t111 29.5v118q0 67 39 101.5t103 34.5q22 0 46.5 -5.5t41.5 -16.5q20 -12 25 -30.5t-1 -34.5t-21.5 -24.5t-36.5 -0.5q-11 5 -21.5 7t-19.5 0q-14 -4 -16.5 -20t-2.5 -43v-86
q61 -8 110.5 -29.5t84 -54t53 -75t18.5 -92.5q0 -51 -18.5 -93.5t-53 -75t-84 -53.5t-110.5 -29v-105q0 -67 -39 -101.5t-103 -34.5q-22 0 -46.5 5.5t-41.5 16.5q-20 12 -25 30.5t1 34.5t21.5 24.5t36.5 0.5q11 -5 21.5 -7t19.5 0q14 4 17 20t2 43v73zM557 275
q0 53 -33 90.5t-100 50.5v-282q67 13 100 50t33 91zM161 275q0 -54 33 -91t100 -50v282q-67 -13 -100 -50.5t-33 -90.5z" />
    <glyph glyph-name="therefore" unicode="&#x2234;" 
d="M550 571q0 -18 -7 -34t-19 -28.5t-28.5 -19.5t-35.5 -7t-35.5 7t-28.5 19.5t-19 28.5t-7 34t7 34t19 28.5t28.5 19.5t35.5 7t35.5 -7t28.5 -19.5t19 -28.5t7 -34zM309 130q0 -18 -7 -34t-19 -28.5t-28.5 -19.5t-35.5 -7t-35.5 7t-28.5 19.5t-19 28.5t-7 34t7 34t19 28.5
t28.5 19.5t35.5 7t35.5 -7t28.5 -19.5t19 -28.5t7 -34zM791 130q0 -18 -7 -34t-19 -28.5t-28.5 -19.5t-35.5 -7t-35.5 7t-28.5 19.5t-19 28.5t-7 34t7 34t19 28.5t28.5 19.5t35.5 7t35.5 -7t28.5 -19.5t19 -28.5t7 -34z" />
    <glyph glyph-name="uni2235" unicode="&#x2235;" 
d="M550 130q0 -18 -7 -34t-19 -28.5t-28.5 -19.5t-35.5 -7t-35.5 7t-28.5 19.5t-19 28.5t-7 34t7 34t19 28.5t28.5 19.5t35.5 7t35.5 -7t28.5 -19.5t19 -28.5t7 -34zM309 571q0 -18 -7 -34t-19 -28.5t-28.5 -19.5t-35.5 -7t-35.5 7t-28.5 19.5t-19 28.5t-7 34t7 34t19 28.5
t28.5 19.5t35.5 7t35.5 -7t28.5 -19.5t19 -28.5t7 -34zM791 571q0 -18 -7 -34t-19 -28.5t-28.5 -19.5t-35.5 -7t-35.5 7t-28.5 19.5t-19 28.5t-7 34t7 34t19 28.5t28.5 19.5t35.5 7t35.5 -7t28.5 -19.5t19 -28.5t7 -34z" />
    <glyph glyph-name="uni2236" unicode="&#x2236;" horiz-adv-x="480" 
d="M348 660l-108 -180l-108 180h216zM132 40l108 180l108 -180h-216z" />
    <glyph glyph-name="similar" unicode="&#x223c;" 
d="M460 411q35 -24 65 -41t57 -17q18 0 26 14t8 34q0 14 15 14h104q15 0 15 -14q0 -41 -12.5 -70.5t-34.5 -48.5t-51.5 -28.5t-63.5 -9.5q-64 0 -129 44q-35 24 -62.5 41t-49.5 17q-20 0 -32 -12.5t-12 -35.5q0 -14 -15 -14h-104q-15 0 -15 14q0 34 12 63t33 50t51 32.5
t66 11.5q64 0 129 -44z" />
    <glyph glyph-name="uni223D" unicode="&#x223d;" 
d="M460 288q-65 -44 -129 -44q-36 0 -66 11.5t-51 32.5t-33 50t-12 63q0 14 15 14h104q15 0 15 -14q0 -23 12 -35.5t32 -12.5q22 0 49.5 17t62.5 41q65 44 129 44q34 0 63.5 -9.5t51.5 -28.5t34.5 -49t12.5 -70q0 -14 -15 -14h-104q-15 0 -15 14q0 20 -8 34t-26 14
q-27 0 -57 -17t-65 -41z" />
    <glyph glyph-name="uni2252" unicode="&#x2252;" 
d="M748 487q0 -26 -25 -26h-433q-62 0 -90 16t-28 46v19q0 25 26 25h525q25 0 25 -26v-54zM748 249q0 -26 -25 -26h-433q-62 0 -90 16t-28 46v19q0 25 26 25h525q25 0 25 -26v-54zM214 692q0 17 6.5 32.5t18.5 27t27.5 18.5t33.5 7q36 0 60.5 -25t24.5 -60t-24.5 -60
t-60.5 -25q-18 0 -33.5 7t-27.5 18.5t-18.5 27t-6.5 32.5zM534 98q0 17 6.5 32.5t18.5 27t27.5 18.5t33.5 7q36 0 60.5 -25t24.5 -60t-24.5 -60t-60.5 -25q-18 0 -33.5 7t-27.5 18.5t-18.5 27t-6.5 32.5z" />
    <glyph glyph-name="notequal" unicode="&#x2260;" horiz-adv-x="720" 
d="M269 301l77 171h-288q-4 5 -5 18q-5 41 14.5 56t52.5 15h267l72 159q9 21 32 21h82l-82 -180h172q4 -5 5 -18q4 -41 -15 -56t-52 -15h-150l-78 -171h290q4 -5 5 -18q4 -41 -15 -56t-52 -15h-268l-72 -159q-9 -21 -32 -21h-82l81 180h-170q-4 5 -5 18q-5 41 14.5 56
t52.5 15h149z" />
    <glyph glyph-name="equivalence" unicode="&#x2261;" 
d="M748 549q0 -26 -25 -26h-433q-62 0 -90 16t-28 46v15q0 25 26 25h525q25 0 25 -26v-50zM748 370q0 -26 -25 -26h-433q-62 0 -90 16t-28 46v15q0 25 26 25h525q25 0 25 -26v-50zM748 191q0 -26 -25 -26h-433q-62 0 -90 16t-28 46v16q0 25 26 25h525q25 0 25 -26v-51z" />
    <glyph glyph-name="lessequal" unicode="&#x2264;" horiz-adv-x="774" 
d="M685 78q0 -26 -25 -26h-437q-62 0 -90 16t-28 46v21q0 25 26 25h529q25 0 25 -26v-56zM471 699q11 8 23.5 11t24.5 3h147q9 0 9 -7.5t-5 -10.5l-355 -235l354 -234q8 -5 7 -12t-9 -7h-120q-15 0 -28 1.5t-25.5 5t-27.5 10.5t-34 18l-337 218z" />
    <glyph glyph-name="greaterequal" unicode="&#x2265;" horiz-adv-x="770" 
d="M665 78q0 -26 -25 -26h-437q-62 0 -90 16t-28 46v21q0 25 26 25h529q25 0 25 -26v-56zM675 460l-337 -218q-20 -11 -34.5 -18t-27 -10.5t-25.5 -5t-28 -1.5h-120q-8 0 -9 7t7 12l354 234l-355 235q-5 3 -5 10.5t9 7.5h147q23 0 48 -14z" />
    <glyph glyph-name="uni226A" unicode="&#x226a;" 
d="M533 776q14 14 28 14h76q8 0 10.5 -5t-2.5 -10l-407 -425l412 -423q4 -5 1.5 -11t-11.5 -6h-38q-26 0 -49.5 10t-54.5 42l-378 388zM721 776q14 14 28 14h76q8 0 10.5 -5t-2.5 -10l-407 -425l412 -423q4 -5 1.5 -11t-11.5 -6h-38q-26 0 -49.5 10t-54.5 42l-378 388z" />
    <glyph glyph-name="uni226B" unicode="&#x226b;" 
d="M800 350l-378 -388q-31 -32 -54.5 -42t-49.5 -10h-38q-9 0 -11.5 6t1.5 11l412 423l-407 425q-5 5 -2.5 10t10.5 5h76q14 0 28 -14zM612 350l-378 -388q-31 -32 -54.5 -42t-49.5 -10h-38q-9 0 -11.5 6t1.5 11l412 423l-407 425q-5 5 -2.5 10t10.5 5h76q14 0 28 -14z" />
    <glyph glyph-name="propersubset" unicode="&#x2282;" 
d="M414 545q-175 0 -175 -160t175 -160h376q25 0 25 -26v-56q0 -26 -25 -26h-376q-78 0 -136.5 19t-97.5 54.5t-58 85t-19 109.5t19 109.5t58 85t97.5 54.5t136.5 19h376q25 0 25 -26v-56q0 -25 -25 -26h-376z" />
    <glyph glyph-name="propersuperset" unicode="&#x2283;" 
d="M223 117q-62 0 -90 16t-28 46v21q0 25 26 25h375q175 0 175 160t-175 160h-283q-62 0 -90 16t-28 46v21q0 25 26 25h375q78 0 136.5 -19t97.5 -54.5t58 -85t19 -109.5t-19 -109.5t-58 -85t-97.5 -54.5t-136.5 -19h-283z" />
    <glyph glyph-name="reflexsubset" unicode="&#x2286;" 
d="M414 605q-86 0 -130.5 -28.5t-44.5 -101.5q0 -37 11 -62t33 -40t55 -21.5t76 -6.5h376q25 0 25 -26v-56q0 -26 -25 -26h-386q-157 0 -229 62.5t-72 175.5t72 175.5t229 62.5h386q25 0 25 -26v-56q0 -25 -25 -26h-376zM825 78q0 -26 -25 -26h-569q-62 0 -90 16t-28 46v21
q0 25 26 25h661q25 0 25 -26v-56z" />
    <glyph glyph-name="reflexsuperset" unicode="&#x2287;" 
d="M807 78q0 -26 -25 -26h-569q-62 0 -90 16t-28 46v21q0 25 26 25h661q25 0 25 -26v-56zM516 713q157 0 229 -62.5t72 -175.5t-72 -175.5t-229 -62.5h-293q-62 0 -90 16t-28 46v21q0 25 26 25h375q43 0 76 6.5t55 21.5t33 40t11 62q0 73 -44.5 101.5t-130.5 28.5h-283
q-62 0 -90 16t-28 46v21q0 23 26 25h385z" />
    <glyph glyph-name="uni2299" unicode="&#x2299;" 
d="M894 350q0 -97 -33.5 -175t-92 -133.5t-138 -85.5t-170.5 -30q-92 0 -171 30t-137.5 85.5t-92 133.5t-33.5 175t33.5 175.5t92 134t137.5 85.5t171 30q91 0 170.5 -30t138 -85.5t92 -134t33.5 -175.5zM813 350q0 77 -27 141.5t-74.5 111t-112 72.5t-139.5 26t-140 -26
t-112 -72.5t-74 -111t-27 -141.5t27 -141.5t74 -111t112 -72t140 -25.5t139.5 25.5t112 72t74.5 111t27 141.5zM678 350q0 -47 -17 -86.5t-46.5 -68.5t-69.5 -45t-85 -16t-85 16t-69.5 45t-46.5 68.5t-17 86.5t17 87t46.5 69t69.5 45t85 16t85 -16t69.5 -45t46.5 -69t17 -87
z" />
    <glyph glyph-name="perpendicular" unicode="&#x22a5;" horiz-adv-x="806" 
d="M771 21q0 -26 -25 -26h-593q-62 0 -90 16t-28 46v21q0 25 26 25h274v530q0 26 25 26h86q25 0 25 -26v-530h275q25 0 25 -26v-56z" />
    <glyph glyph-name="uni22EF" unicode="&#x22ef;" 
d="M540 385q0 -32 -22.5 -55.5t-57.5 -23.5t-57.5 23.5t-22.5 55.5t22.5 55.5t57.5 23.5t57.5 -23.5t22.5 -55.5zM846 385q0 -32 -22.5 -55.5t-57.5 -23.5t-57.5 23.5t-22.5 55.5t22.5 55.5t57.5 23.5t57.5 -23.5t22.5 -55.5zM234 385q0 -32 -22.5 -55.5t-57.5 -23.5
t-57.5 23.5t-22.5 55.5t22.5 55.5t57.5 23.5t57.5 -23.5t22.5 -55.5z" />
    <glyph glyph-name="uni2312" unicode="&#x2312;" 
d="M460 245q65 0 116 -18.5t86.5 -49t54 -69t18.5 -78.5v-16q0 -14 -15 -14h-104q-15 0 -15 14v11q0 25 -10.5 46t-29 36t-44.5 23.5t-57 8.5q-64 0 -102.5 -31.5t-38.5 -82.5v-11q0 -14 -15 -14h-104q-15 0 -15 14v16q0 40 18.5 78.5t53.5 69t86.5 49t116.5 18.5z" />
    <glyph glyph-name="uni2460" unicode="&#x2460;" 
d="M424 61q-25 0 -25 26v389l-23 -14q-24 -11 -43.5 -4t-29 22.5t-5.5 35.5t26 37l105 79q6 5 11.5 7.5t13.5 2.5h55q25 0 25 -26v-421q0 -74 -17.5 -104t-50.5 -30h-42v0zM11 350q0 97 32.5 178t91.5 139.5t141.5 91.5t183.5 33t183.5 -33t141.5 -91.5t91.5 -139.5
t32.5 -178t-32.5 -178t-91.5 -139.5t-141.5 -91.5t-183.5 -33t-183.5 33t-141.5 91.5t-91.5 139.5t-32.5 178zM827 350q0 82 -27.5 149.5t-76 116t-116 75.5t-147.5 27t-147.5 -27t-116.5 -75.5t-76 -116t-27 -149.5t27 -150t76 -116.5t116.5 -75t147.5 -26.5t147.5 26.5
t116 75t76 116.5t27.5 150z" />
    <glyph glyph-name="uni2461" unicode="&#x2461;" 
d="M304 78q-11 0 -21.5 8.5t-10.5 22.5v40q0 17 12 29l141 148q54 57 76 98t20 76q-1 16 -7 27t-15.5 18t-21.5 10.5t-25 4.5q-18 1 -31 -1.5t-25 -7t-23.5 -10.5t-25.5 -12q-22 -9 -39 -1.5t-25 23t-4.5 34.5t22.5 31q36 23 73 36.5t78 13.5q94 0 147.5 -46t57.5 -120
q3 -63 -20 -112.5t-69 -98.5l-106 -105h168q24 0 24 -25v-57q0 -24 -24 -24h-326zM11 350q0 97 32.5 178t91.5 139.5t141.5 91.5t183.5 33t183.5 -33t141.5 -91.5t91.5 -139.5t32.5 -178t-32.5 -178t-91.5 -139.5t-141.5 -91.5t-183.5 -33t-183.5 33t-141.5 91.5
t-91.5 139.5t-32.5 178zM827 350q0 82 -27.5 149.5t-76 116t-116 75.5t-147.5 27t-147.5 -27t-116.5 -75.5t-76 -116t-27 -149.5t27 -150t76 -116.5t116.5 -75t147.5 -26.5t147.5 26.5t116 75t76 116.5t27.5 150z" />
    <glyph glyph-name="uni2462" unicode="&#x2462;" 
d="M448 156q35 0 61 19t28 55q2 45 -23.5 63.5t-73.5 18.5h-4q-34 0 -55 15t-21 41v28q0 22 24 22h61q16 0 30 5.5t24 15t16 24t5 32.5q-1 19 -7 30.5t-16 18t-23 8.5t-28 2q-26 0 -47.5 -8t-47.5 -18q-20 -7 -36 1t-22.5 23t-1.5 33t29 31q31 17 67.5 24.5t66.5 8.5
q92 2 142.5 -38.5t50.5 -111.5q0 -44 -22 -79.5t-60 -49.5q45 -11 75 -48t30 -95q0 -79 -57 -126t-165 -47q-45 0 -80.5 9t-70.5 29q-17 9 -21 27.5t2.5 35.5t22.5 26.5t39 -0.5q19 -8 34 -13t27.5 -7.5t23.5 -3.5t23 -1zM11 350q0 97 32.5 178t91.5 139.5t141.5 91.5
t183.5 33t183.5 -33t141.5 -91.5t91.5 -139.5t32.5 -178t-32.5 -178t-91.5 -139.5t-141.5 -91.5t-183.5 -33t-183.5 33t-141.5 91.5t-91.5 139.5t-32.5 178zM827 350q0 82 -27.5 149.5t-76 116t-116 75.5t-147.5 27t-147.5 -27t-116.5 -75.5t-76 -116t-27 -149.5t27 -150
t76 -116.5t116.5 -75t147.5 -26.5t147.5 26.5t116 75t76 116.5t27.5 150z" />
    <glyph glyph-name="uni2463" unicode="&#x2463;" 
d="M629 296q24 0 24 -25v-53q0 -25 -24 -25h-52v-16q0 -63 -16 -85.5t-48 -22.5h-46q-24 0 -24 25v99h-186q-15 0 -27 10t-12 25v32q0 14 8 24l246 355q7 12 21 12h62q11 0 16.5 -6.5t5.5 -17.5v-331h52zM443 296v149l-98 -149h98zM11 350q0 97 32.5 178t91.5 139.5
t141.5 91.5t183.5 33t183.5 -33t141.5 -91.5t91.5 -139.5t32.5 -178t-32.5 -178t-91.5 -139.5t-141.5 -91.5t-183.5 -33t-183.5 33t-141.5 91.5t-91.5 139.5t-32.5 178zM827 350q0 82 -27.5 149.5t-76 116t-116 75.5t-147.5 27t-147.5 -27t-116.5 -75.5t-76 -116t-27 -149.5
t27 -150t76 -116.5t116.5 -75t147.5 -26.5t147.5 26.5t116 75t76 116.5t27.5 150z" />
    <glyph glyph-name="uni2464" unicode="&#x2464;" 
d="M315 612q0 10 6 17t18 7h262q24 0 24 -24v-57q0 -25 -24 -25h-163l-3 -104q5 1 18 1q41 0 78.5 -13t65.5 -38t43.5 -61.5t12.5 -84.5q-2 -39 -16.5 -71.5t-41.5 -56t-67.5 -36.5t-95.5 -13q-39 0 -71.5 9.5t-60.5 26.5q-18 11 -23 29.5t1.5 35t23 25.5t40.5 0
q17 -6 36.5 -13t47.5 -8q16 0 32 3.5t29 12t22 22.5t10 34q2 36 -18 63t-65 32q-29 3 -52.5 0.5t-49.5 -6.5q-8 -2 -18.5 3t-9.5 20zM11 350q0 97 32.5 178t91.5 139.5t141.5 91.5t183.5 33t183.5 -33t141.5 -91.5t91.5 -139.5t32.5 -178t-32.5 -178t-91.5 -139.5
t-141.5 -91.5t-183.5 -33t-183.5 33t-141.5 91.5t-91.5 139.5t-32.5 178zM827 350q0 82 -27.5 149.5t-76 116t-116 75.5t-147.5 27t-147.5 -27t-116.5 -75.5t-76 -116t-27 -149.5t27 -150t76 -116.5t116.5 -75t147.5 -26.5t147.5 26.5t116 75t76 116.5t27.5 150z" />
    <glyph glyph-name="uni2465" unicode="&#x2465;" 
d="M537 571q-39 -15 -64.5 -34t-41 -39.5t-24 -43t-12.5 -44.5q11 8 27 12.5t33 4.5q40 0 74.5 -10.5t60 -32.5t40 -56.5t13.5 -83.5q-1 -41 -16 -74.5t-41 -57.5t-61 -37.5t-75 -13.5q-45 0 -82 14t-64 43.5t-41.5 75t-14.5 108.5q0 65 16 123.5t48 106t80.5 80.5t114.5 47
q25 5 38.5 -5.5t16.5 -27t-3.5 -33t-21.5 -22.5zM516 244q2 46 -17.5 64t-46.5 18q-23 0 -42.5 -12t-32.5 -33l-2 -21q-2 -51 19.5 -75t53.5 -24q30 0 48 22.5t20 60.5zM11 350q0 97 32.5 178t91.5 139.5t141.5 91.5t183.5 33t183.5 -33t141.5 -91.5t91.5 -139.5t32.5 -178
t-32.5 -178t-91.5 -139.5t-141.5 -91.5t-183.5 -33t-183.5 33t-141.5 91.5t-91.5 139.5t-32.5 178zM827 350q0 82 -27.5 149.5t-76 116t-116 75.5t-147.5 27t-147.5 -27t-116.5 -75.5t-76 -116t-27 -149.5t27 -150t76 -116.5t116.5 -75t147.5 -26.5t147.5 26.5t116 75
t76 116.5t27.5 150z" />
    <glyph glyph-name="uni2466" unicode="&#x2466;" 
d="M326 34q-13 0 -20.5 9.5t-0.5 23.5l200 437h-108q-59 0 -85.5 15t-26.5 44v23q0 24 25 24h328q11 0 17 -6t6 -15v-24q0 -6 -1 -12.5t-4 -13.5l-206 -455q-13 -28 -26.5 -39t-28.5 -11h-69zM11 350q0 97 32.5 178t91.5 139.5t141.5 91.5t183.5 33t183.5 -33t141.5 -91.5
t91.5 -139.5t32.5 -178t-32.5 -178t-91.5 -139.5t-141.5 -91.5t-183.5 -33t-183.5 33t-141.5 91.5t-91.5 139.5t-32.5 178zM827 350q0 82 -27.5 149.5t-76 116t-116 75.5t-147.5 27t-147.5 -27t-116.5 -75.5t-76 -116t-27 -149.5t27 -150t76 -116.5t116.5 -75t147.5 -26.5
t147.5 26.5t116 75t76 116.5t27.5 150z" />
    <glyph glyph-name="uni2467" unicode="&#x2467;" 
d="M460 51q-44 0 -82.5 11.5t-67 33.5t-45 54t-16.5 73q0 55 28 94t69 54q-34 17 -56 48t-22 78q0 33 13.5 62t38 50.5t60 33.5t80.5 12t80.5 -12t60 -33.5t38 -50.5t13.5 -62q0 -47 -22.5 -79t-55.5 -47q39 -14 68 -53.5t29 -94.5q0 -41 -16.5 -73t-45 -54t-67 -33.5
t-82.5 -11.5zM460 549q-27 0 -47 -15.5t-20 -47.5t20.5 -49t46.5 -17t46 17t20 49t-19.5 47.5t-46.5 15.5zM460 315q-35 0 -60 -20.5t-25 -60.5q0 -39 24.5 -58t60.5 -19q35 0 60 19t25 58q0 40 -25 60.5t-60 20.5zM11 350q0 97 32.5 178t91.5 139.5t141.5 91.5t183.5 33
t183.5 -33t141.5 -91.5t91.5 -139.5t32.5 -178t-32.5 -178t-91.5 -139.5t-141.5 -91.5t-183.5 -33t-183.5 33t-141.5 91.5t-91.5 139.5t-32.5 178zM827 350q0 82 -27.5 149.5t-76 116t-116 75.5t-147.5 27t-147.5 -27t-116.5 -75.5t-76 -116t-27 -149.5t27 -150t76 -116.5
t116.5 -75t147.5 -26.5t147.5 26.5t116 75t76 116.5t27.5 150z" />
    <glyph glyph-name="uni2468" unicode="&#x2468;" 
d="M376 134q39 15 64.5 33.5t41 39t24 42t12.5 44.5q-13 -8 -30 -11.5t-43 -3.5q-37 0 -69 11t-56 33.5t-37.5 57t-12.5 81.5q1 40 16 74t41 58t60.5 37.5t75.5 13.5q45 0 82 -14t64 -43.5t41.5 -75t14.5 -108.5q0 -65 -16 -123.5t-48 -106t-80.5 -80.5t-114.5 -47
q-25 -5 -38.5 5.5t-16.5 27t3.5 33t21.5 22.5zM397 461q-2 -42 17.5 -62t46.5 -20q23 0 42 7t30 18q2 8 3.5 22.5t1.5 22.5q0 51 -20.5 73t-52.5 22q-30 0 -48 -22.5t-20 -60.5zM11 350q0 97 32.5 178t91.5 139.5t141.5 91.5t183.5 33t183.5 -33t141.5 -91.5t91.5 -139.5
t32.5 -178t-32.5 -178t-91.5 -139.5t-141.5 -91.5t-183.5 -33t-183.5 33t-141.5 91.5t-91.5 139.5t-32.5 178zM827 350q0 82 -27.5 149.5t-76 116t-116 75.5t-147.5 27t-147.5 -27t-116.5 -75.5t-76 -116t-27 -149.5t27 -150t76 -116.5t116.5 -75t147.5 -26.5t147.5 26.5
t116 75t76 116.5t27.5 150z" />
    <glyph glyph-name="uni2469" unicode="&#x2469;" 
d="M792 351q0 -139 -48 -213t-148 -74t-148 74t-48 213t48 213t148 74t148 -74t48 -213zM524 351q0 -53 4.5 -89t13.5 -58.5t22.5 -32t31.5 -9.5t31.5 9.5t22.5 32t13.5 58.5t4.5 89t-4.5 89.5t-13.5 59t-22.5 32t-31.5 9.5t-31.5 -9.5t-22.5 -32t-13.5 -59t-4.5 -89.5z
M272 70q-25 0 -25 26v375l-20 -10q-24 -12 -44 -7t-29.5 19t-6.5 33t25 36l105 79q6 5 11.5 7.5t13.5 2.5h44q25 0 25 -26v-401q0 -74 -17.5 -104t-50.5 -30h-31v0zM11 350q0 97 32.5 178t91.5 139.5t141.5 91.5t183.5 33t183.5 -33t141.5 -91.5t91.5 -139.5t32.5 -178
t-32.5 -178t-91.5 -139.5t-141.5 -91.5t-183.5 -33t-183.5 33t-141.5 91.5t-91.5 139.5t-32.5 178zM827 350q0 82 -27.5 149.5t-76 116t-116 75.5t-147.5 27t-147.5 -27t-116.5 -75.5t-76 -116t-27 -149.5t27 -150t76 -116.5t116.5 -75t147.5 -26.5t147.5 26.5t116 75
t76 116.5t27.5 150z" />
    <glyph glyph-name="uni246A" unicode="&#x246a;" 
d="M304 70q-25 0 -25 26v375l-20 -10q-24 -12 -44 -7t-29.5 19t-6.5 33t25 36l105 79q6 5 11.5 7.5t13.5 2.5h44q25 0 25 -26v-401q0 -74 -17.5 -104t-50.5 -30h-31v0zM586 70q-25 0 -25 26v375l-20 -10q-24 -12 -44 -7t-29.5 19t-6.5 33t25 36l105 79q6 5 11.5 7.5
t13.5 2.5h44q25 0 25 -26v-401q0 -74 -17.5 -104t-50.5 -30h-31v0zM11 350q0 97 32.5 178t91.5 139.5t141.5 91.5t183.5 33t183.5 -33t141.5 -91.5t91.5 -139.5t32.5 -178t-32.5 -178t-91.5 -139.5t-141.5 -91.5t-183.5 -33t-183.5 33t-141.5 91.5t-91.5 139.5t-32.5 178z
M827 350q0 82 -27.5 149.5t-76 116t-116 75.5t-147.5 27t-147.5 -27t-116.5 -75.5t-76 -116t-27 -149.5t27 -150t76 -116.5t116.5 -75t147.5 -26.5t147.5 26.5t116 75t76 116.5t27.5 150z" />
    <glyph glyph-name="uni246B" unicode="&#x246b;" 
d="M11 350q0 97 32.5 178t91.5 139.5t141.5 91.5t183.5 33t183.5 -33t141.5 -91.5t91.5 -139.5t32.5 -178t-32.5 -178t-91.5 -139.5t-141.5 -91.5t-183.5 -33t-183.5 33t-141.5 91.5t-91.5 139.5t-32.5 178zM416 80q-11 0 -21 8t-10 22v39q0 16 12 28l119 147q48 59 68.5 95
t22.5 69q2 30 -14 46t-45 18q-17 1 -29.5 -1.5t-23.5 -6.5t-21 -9.5t-22 -11.5q-19 -9 -34 -2t-22.5 21.5t-4.5 32t21 30.5q31 23 64 33t72 11q45 1 79.5 -10.5t58 -33t36 -51.5t12.5 -66q0 -52 -22 -102t-63 -98l-93 -109h161q23 0 23 -24v-54q42 48 64.5 111t22.5 138
q0 82 -27.5 149.5t-76 116t-116 75.5t-147.5 27t-147.5 -27t-116.5 -75.5t-76 -116t-27 -149.5t27 -150t76 -116.5t116.5 -75t147.5 -26.5q79 0 145 25.5t115 72.5h-304v0zM266 80q-25 0 -25 26v375l-24 -16q-23 -14 -41.5 -9.5t-27 19t-5.5 33.5t23 36l105 87q6 5 11.5 7.5
t13.5 2.5h44q25 0 25 -26v-401q0 -74 -17.5 -104t-50.5 -30h-31v0z" />
    <glyph glyph-name="uni246C" unicode="&#x246c;" 
d="M543 166q29 0 52.5 19t25.5 52q2 45 -22.5 63t-72.5 18h-5q-32 0 -48.5 14t-16.5 40v24q0 21 23 21h42q31 0 54 19t23 58q0 17 -6 28t-14.5 17.5t-18.5 9t-18 2.5q-23 2 -46 -4t-44 -15q-20 -9 -36 -3t-23 19.5t-2.5 30.5t26.5 31q24 14 56 23.5t69 9.5q83 0 132.5 -38.5
t49.5 -107.5q0 -46 -24 -80t-61 -45q48 -11 77.5 -46t29.5 -92q0 -40 -15.5 -71t-42.5 -52.5t-64 -32.5t-80 -11q-88 0 -147 37q-16 9 -20.5 26t1.5 32t21 23t38 0q16 -5 29 -9t25 -6t24.5 -3t28.5 -1zM267 74q-25 0 -25 26v375l-24 -16q-21 -14 -39 -9.5t-27.5 18.5
t-7 33.5t22.5 36.5l105 87q6 5 11.5 7.5t13.5 2.5h44q25 0 25 -26v-401q0 -74 -17.5 -104t-50.5 -30h-31v0zM11 350q0 97 32.5 178t91.5 139.5t141.5 91.5t183.5 33t183.5 -33t141.5 -91.5t91.5 -139.5t32.5 -178t-32.5 -178t-91.5 -139.5t-141.5 -91.5t-183.5 -33
t-183.5 33t-141.5 91.5t-91.5 139.5t-32.5 178zM827 350q0 82 -27.5 149.5t-76 116t-116 75.5t-147.5 27t-147.5 -27t-116.5 -75.5t-76 -116t-27 -149.5t27 -150t76 -116.5t116.5 -75t147.5 -26.5t147.5 26.5t116 75t76 116.5t27.5 150z" />
    <glyph glyph-name="uni246D" unicode="&#x246d;" 
d="M759 293q23 0 23 -24v-51q0 -25 -23 -25h-52v-14q0 -55 -16.5 -77t-46.5 -22h-39q-23 0 -23 23v90h-172q-15 0 -25.5 10t-10.5 25v30q0 13 7 24l224 347q7 11 21 11h58q23 0 23 -23v-324h52zM582 293v150l-88 -150h88zM259 79q-25 0 -25 26v375l-24 -16q-21 -14 -39 -9.5
t-27.5 18.5t-7 33.5t22.5 36.5l105 87q6 5 11.5 7.5t13.5 2.5h44q25 0 25 -26v-399q0 -75 -17.5 -105.5t-50.5 -30.5h-31v0zM11 350q0 97 32.5 178t91.5 139.5t141.5 91.5t183.5 33t183.5 -33t141.5 -91.5t91.5 -139.5t32.5 -178t-32.5 -178t-91.5 -139.5t-141.5 -91.5
t-183.5 -33t-183.5 33t-141.5 91.5t-91.5 139.5t-32.5 178zM827 350q0 82 -27.5 149.5t-76 116t-116 75.5t-147.5 27t-147.5 -27t-116.5 -75.5t-76 -116t-27 -149.5t27 -150t76 -116.5t116.5 -75t147.5 -26.5t147.5 26.5t116 75t76 116.5t27.5 150z" />
    <glyph glyph-name="uni246E" unicode="&#x246e;" 
d="M427 613q0 18 19 18h246q11 0 17 -6.5t6 -17.5v-51q0 -25 -23 -25h-144l-4 -99q5 1 7.5 1h10.5q40 0 74.5 -11.5t59.5 -35t38.5 -58.5t11.5 -82q-2 -38 -16 -70.5t-40.5 -56.5t-65 -37.5t-87.5 -13.5q-30 0 -62 6t-60 22q-19 10 -23.5 27.5t2 32.5t22.5 22.5t40 -1.5
q20 -7 38 -10t43 -3q36 0 59.5 22t25.5 60q1 16 -1.5 31t-11 27.5t-24 20.5t-39.5 11q-27 3 -50.5 0.5t-49.5 -6.5q-8 -2 -17.5 3t-9.5 19zM268 75q-25 0 -25 26v375l-24 -16q-23 -14 -41.5 -9.5t-27 19t-5.5 33.5t23 36l105 87q6 5 11.5 7.5t13.5 2.5h44q25 0 25 -26v-401
q0 -74 -17.5 -104t-50.5 -30h-31v0zM11 350q0 97 32.5 178t91.5 139.5t141.5 91.5t183.5 33t183.5 -33t141.5 -91.5t91.5 -139.5t32.5 -178t-32.5 -178t-91.5 -139.5t-141.5 -91.5t-183.5 -33t-183.5 33t-141.5 91.5t-91.5 139.5t-32.5 178zM827 350q0 82 -27.5 149.5
t-76 116t-116 75.5t-147.5 27t-147.5 -27t-116.5 -75.5t-76 -116t-27 -149.5t27 -150t76 -116.5t116.5 -75t147.5 -26.5t147.5 26.5t116 75t76 116.5t27.5 150z" />
    <glyph glyph-name="uni2474" unicode="&#x2474;" 
d="M431 51q-25 0 -25 26v409l-23 -14q-24 -11 -43.5 -4t-29 22.5t-5.5 35.5t26 37l105 79q6 5 11.5 7.5t13.5 2.5h55q25 0 25 -26v-441q0 -74 -17.5 -104t-50.5 -30h-42v0zM721 761q-8 13 -4 26.5t13.5 21t22.5 6.5t24 -16q70 -91 101.5 -187.5t31.5 -211.5v-100
q0 -114 -31 -210t-100 -187q-11 -14 -25 -17t-24.5 2.5t-14.5 18.5t5 30q54 100 79 185.5t25 177.5v100q0 93 -25.5 180.5t-77.5 180.5zM199 761q-52 -93 -77.5 -180.5t-25.5 -180.5v-100q0 -92 25 -177.5t79 -185.5q9 -17 5 -30t-14.5 -18.5t-24.5 -2.5t-25 17
q-69 91 -100 187t-31 210v100q0 115 31.5 211.5t101.5 187.5q11 15 24 16t22.5 -6.5t13 -21t-3.5 -26.5z" />
    <glyph glyph-name="uni2475" unicode="&#x2475;" 
d="M299 68q-11 0 -21.5 8.5t-10.5 22.5v40q0 17 12 29l146 167q50 57 76.5 98t24.5 76q-1 16 -7.5 27t-17 18t-23 10.5t-24.5 4.5q-32 2 -58 -8.5t-54 -22.5q-22 -9 -39 -1.5t-25 23t-4.5 34.5t22.5 31q36 23 76.5 36.5t81.5 13.5q47 0 84.5 -12t64.5 -34t42 -52.5t17 -67.5
q3 -63 -20 -112.5t-69 -98.5l-116 -124h178q24 0 24 -25v-57q0 -24 -24 -24h-336zM721 761q-8 13 -4 26.5t13.5 21t22.5 6.5t24 -16q70 -91 101.5 -187.5t31.5 -211.5v-100q0 -114 -31 -210t-100 -187q-11 -14 -25 -17t-24.5 2.5t-14.5 18.5t5 30q54 100 79 185.5t25 177.5
v100q0 93 -25.5 180.5t-77.5 180.5zM199 761q-52 -93 -77.5 -180.5t-25.5 -180.5v-100q0 -92 25 -177.5t79 -185.5q9 -17 5 -30t-14.5 -18.5t-24.5 -2.5t-25 17q-69 91 -100 187t-31 210v100q0 115 31.5 211.5t101.5 187.5q11 15 24 16t22.5 -6.5t13 -21t-3.5 -26.5z" />
    <glyph glyph-name="uni2476" unicode="&#x2476;" 
d="M440 146q18 0 34.5 6t29 16.5t20.5 25.5t9 33q2 47 -28.5 67.5t-78.5 20.5h-4q-34 0 -55 15t-21 42v26q0 23 24 23h71q16 0 30 5.5t24 15.5t16 25t5 33q-1 19 -8 31t-18 19.5t-24.5 10.5t-28.5 3q-26 0 -50 -8t-50 -19q-20 -7 -36 1t-22.5 23t-1.5 32.5t29 31.5
q31 18 70 25.5t69 8.5q92 2 145 -40t53 -115q0 -45 -22 -81.5t-60 -50.5q45 -12 75 -50t30 -98q0 -41 -15 -74t-44 -56.5t-71 -36.5t-96 -13q-45 0 -83.5 9t-73.5 30q-17 9 -21 28t2.5 36t22.5 26t39 -1q39 -17 64.5 -21.5t49.5 -4.5zM721 761q-8 13 -4 26.5t13.5 21
t22.5 6.5t24 -16q70 -91 101.5 -187.5t31.5 -211.5v-100q0 -114 -31 -210t-100 -187q-11 -14 -25 -17t-24.5 2.5t-14.5 18.5t5 30q54 100 79 185.5t25 177.5v100q0 93 -25.5 180.5t-77.5 180.5zM199 761q-52 -93 -77.5 -180.5t-25.5 -180.5v-100q0 -92 25 -177.5t79 -185.5
q9 -17 5 -30t-14.5 -18.5t-24.5 -2.5t-25 17q-69 91 -100 187t-31 210v100q0 115 31.5 211.5t101.5 187.5q11 15 24 16t22.5 -6.5t13 -21t-3.5 -26.5z" />
    <glyph glyph-name="uni2477" unicode="&#x2477;" 
d="M647 296q24 0 24 -25v-53q0 -25 -24 -25h-58v-24q0 -63 -16 -85.5t-48 -22.5h-46q-24 0 -24 25v107h-190q-15 0 -27 10t-12 25v32q0 14 8 24l250 365q7 12 21 12h62q11 0 16.5 -6.5t5.5 -17.5v-341h58zM455 296v151l-102 -151h102zM721 761q-8 13 -4 26.5t13.5 21
t22.5 6.5t24 -16q70 -91 101.5 -187.5t31.5 -211.5v-100q0 -114 -31 -210t-100 -187q-11 -14 -25 -17t-24.5 2.5t-14.5 18.5t5 30q54 100 79 185.5t25 177.5v100q0 93 -25.5 180.5t-77.5 180.5zM199 761q-52 -93 -77.5 -180.5t-25.5 -180.5v-100q0 -92 25 -177.5t79 -185.5
q9 -17 5 -30t-14.5 -18.5t-24.5 -2.5t-25 17q-69 91 -100 187t-31 210v100q0 115 31.5 211.5t101.5 187.5q11 15 24 16t22.5 -6.5t13 -21t-3.5 -26.5z" />
    <glyph glyph-name="uni2478" unicode="&#x2478;" 
d="M309 621q0 10 6 17t18 7h271q24 0 24 -24v-57q0 -25 -24 -25h-172l-3 -113q4 1 10.5 1h13.5q44 0 82.5 -13.5t66 -39.5t42.5 -63.5t12 -85.5q-2 -39 -17 -72.5t-42.5 -57.5t-68.5 -38t-96 -14q-39 0 -74.5 9.5t-63.5 26.5q-18 11 -23 29.5t1.5 35t23 25.5t40.5 0
q17 -6 38 -13t49 -8q38 -1 67.5 17.5t31.5 59.5q2 43 -21 69t-68 31q-29 3 -54 0.5t-51 -6.5q-8 -2 -18.5 3t-9.5 20zM721 761q-8 13 -4 26.5t13.5 21t22.5 6.5t24 -16q70 -91 101.5 -187.5t31.5 -211.5v-100q0 -114 -31 -210t-100 -187q-11 -14 -25 -17t-24.5 2.5
t-14.5 18.5t5 30q54 100 79 185.5t25 177.5v100q0 93 -25.5 180.5t-77.5 180.5zM199 761q-52 -93 -77.5 -180.5t-25.5 -180.5v-100q0 -92 25 -177.5t79 -185.5q9 -17 5 -30t-14.5 -18.5t-24.5 -2.5t-25 17q-69 91 -100 187t-31 210v100q0 115 31.5 211.5t101.5 187.5
q11 15 24 16t22.5 -6.5t13 -21t-3.5 -26.5z" />
    <glyph glyph-name="uni2479" unicode="&#x2479;" 
d="M548 581q-39 -15 -64.5 -35t-41 -42.5t-24 -46t-12.5 -45.5q12 7 30 11t35 4q40 0 75.5 -12t62 -36t41.5 -60t14 -85q-1 -41 -16.5 -74.5t-42.5 -57.5t-63 -37.5t-76 -13.5q-45 0 -83 14t-65.5 43.5t-43 75t-15.5 108.5q0 65 16.5 127t49.5 112.5t81.5 87t111.5 50.5
q25 6 38.5 -5t16.5 -27.5t-3.5 -33t-21.5 -22.5zM537 234q2 46 -20 69t-49 23q-23 0 -45 -12t-35 -33q-1 -8 -1.5 -15.5t-0.5 -15.5q0 -54 23 -76.5t55 -22.5q30 0 50.5 22.5t22.5 60.5zM721 761q-8 13 -4 26.5t13.5 21t22.5 6.5t24 -16q70 -91 101.5 -187.5t31.5 -211.5
v-100q0 -114 -31 -210t-100 -187q-11 -14 -25 -17t-24.5 2.5t-14.5 18.5t5 30q54 100 79 185.5t25 177.5v100q0 93 -25.5 180.5t-77.5 180.5zM199 761q-52 -93 -77.5 -180.5t-25.5 -180.5v-100q0 -92 25 -177.5t79 -185.5q9 -17 5 -30t-14.5 -18.5t-24.5 -2.5t-25 17
q-69 91 -100 187t-31 210v100q0 115 31.5 211.5t101.5 187.5q11 15 24 16t22.5 -6.5t13 -21t-3.5 -26.5z" />
    <glyph glyph-name="uni247A" unicode="&#x247a;" 
d="M319 24q-13 0 -20.5 9.5t-0.5 23.5l209 457h-115q-59 0 -85.5 15t-26.5 44v23q0 24 25 24h335q11 0 17 -6t6 -15v-24q0 -6 -1 -12.5t-4 -13.5l-215 -475q-13 -28 -26.5 -39t-28.5 -11h-69zM721 761q-8 13 -4 26.5t13.5 21t22.5 6.5t24 -16q70 -91 101.5 -187.5
t31.5 -211.5v-100q0 -114 -31 -210t-100 -187q-11 -14 -25 -17t-24.5 2.5t-14.5 18.5t5 30q54 100 79 185.5t25 177.5v100q0 93 -25.5 180.5t-77.5 180.5zM199 761q-52 -93 -77.5 -180.5t-25.5 -180.5v-100q0 -92 25 -177.5t79 -185.5q9 -17 5 -30t-14.5 -18.5t-24.5 -2.5
t-25 17q-69 91 -100 187t-31 210v100q0 115 31.5 211.5t101.5 187.5q11 15 24 16t22.5 -6.5t13 -21t-3.5 -26.5z" />
    <glyph glyph-name="uni247B" unicode="&#x247b;" 
d="M460 41q-44 0 -82.5 13t-67 37t-45 57.5t-16.5 74.5q0 55 28 96t69 56q-34 17 -56 49t-22 80q0 33 13.5 62.5t38 51.5t60 34.5t80.5 12.5t80.5 -12.5t60 -34.5t38 -51.5t13.5 -62.5q0 -45 -22.5 -79.5t-55.5 -49.5q19 -7 37 -21t31 -34t21 -45t8 -52q0 -41 -16.5 -74.5
t-45 -57.5t-67 -37t-82.5 -13zM460 559q-27 0 -47 -17t-20 -49t20.5 -50.5t46.5 -18.5t46 18.5t20 50.5t-19.5 49t-46.5 17zM460 319q-35 0 -60 -22.5t-25 -62.5q0 -39 24.5 -63t60.5 -24q35 0 60 24t25 63q0 40 -25 62.5t-60 22.5zM721 761q-8 13 -4 26.5t13.5 21t22.5 6.5
t24 -16q70 -91 101.5 -187.5t31.5 -211.5v-100q0 -114 -31 -210t-100 -187q-11 -14 -25 -17t-24.5 2.5t-14.5 18.5t5 30q54 100 79 185.5t25 177.5v100q0 93 -25.5 180.5t-77.5 180.5zM199 761q-52 -93 -77.5 -180.5t-25.5 -180.5v-100q0 -92 25 -177.5t79 -185.5
q9 -17 5 -30t-14.5 -18.5t-24.5 -2.5t-25 17q-69 91 -100 187t-31 210v100q0 115 31.5 211.5t101.5 187.5q11 15 24 16t22.5 -6.5t13 -21t-3.5 -26.5z" />
    <glyph glyph-name="uni247C" unicode="&#x247c;" 
d="M374 124q39 15 64.5 35t41 42.5t24 45.5t12.5 46q-26 -15 -78 -15q-37 0 -70 12.5t-57.5 36.5t-39 59.5t-13.5 80.5q1 42 16.5 76.5t42 59t62.5 38t77 13.5q45 0 83 -14t65.5 -43.5t43 -75t15.5 -108.5q0 -65 -16 -127t-48 -112.5t-80.5 -87t-114.5 -50.5
q-25 -5 -38.5 5.5t-16.5 27t3.5 33t21.5 22.5zM385 467q-2 -42 20 -65t49 -23q23 0 44.5 7t32.5 18q2 8 3.5 25.5t1.5 25.5q0 51 -23 75t-55 24q-30 0 -50.5 -24.5t-22.5 -62.5zM721 761q-8 13 -4 26.5t13.5 21t22.5 6.5t24 -16q70 -91 101.5 -187.5t31.5 -211.5v-100
q0 -114 -31 -210t-100 -187q-11 -14 -25 -17t-24.5 2.5t-14.5 18.5t5 30q54 100 79 185.5t25 177.5v100q0 93 -25.5 180.5t-77.5 180.5zM199 761q-52 -93 -77.5 -180.5t-25.5 -180.5v-100q0 -92 25 -177.5t79 -185.5q9 -17 5 -30t-14.5 -18.5t-24.5 -2.5t-25 17
q-69 91 -100 187t-31 210v100q0 115 31.5 211.5t101.5 187.5q11 15 24 16t22.5 -6.5t13 -21t-3.5 -26.5z" />
    <glyph glyph-name="uni247D" unicode="&#x247d;" 
d="M780 351q0 -138 -48.5 -217.5t-147.5 -79.5q-100 0 -148 79.5t-48 217.5t48 217.5t148 79.5t148 -79.5t48 -217.5zM512 351q0 -106 17.5 -152.5t54.5 -46.5q36 0 54 46.5t18 152.5q0 107 -18 153.5t-54 46.5q-37 0 -54.5 -46.5t-17.5 -153.5zM261 60q-25 0 -25 26v395
l-20 -10q-24 -12 -44 -7t-29.5 19t-6.5 33t25 36l105 79q6 5 11.5 7.5t13.5 2.5h44q25 0 25 -26v-421q0 -74 -17.5 -104t-50.5 -30h-31v0zM721 761q-8 13 -4 26.5t13.5 21t22.5 6.5t24 -16q70 -91 101.5 -187.5t31.5 -211.5v-100q0 -114 -31 -210t-100 -187q-11 -14 -25 -17
t-24.5 2.5t-14.5 18.5t5 30q54 100 79 185.5t25 177.5v100q0 93 -25.5 180.5t-77.5 180.5zM199 761q-52 -93 -77.5 -180.5t-25.5 -180.5v-100q0 -92 25 -177.5t79 -185.5q9 -17 5 -30t-14.5 -18.5t-24.5 -2.5t-25 17q-69 91 -100 187t-31 210v100q0 115 31.5 211.5
t101.5 187.5q11 15 24 16t22.5 -6.5t13 -21t-3.5 -26.5z" />
    <glyph glyph-name="uni247E" unicode="&#x247e;" 
d="M308 65q-25 0 -25 26v395l-20 -10q-24 -12 -44 -7t-29.5 19t-6.5 33t25 36l105 79q6 5 11.5 7.5t13.5 2.5h44q25 0 25 -26v-421q0 -74 -17.5 -104t-50.5 -30h-31zM590 65q-25 0 -25 26v395l-20 -10q-24 -12 -44 -7t-29.5 19t-6.5 33t25 36l105 79q6 5 11.5 7.5t13.5 2.5
h44q25 0 25 -26v-421q0 -74 -17.5 -104t-50.5 -30h-31zM721 761q-8 13 -4 26.5t13.5 21t22.5 6.5t24 -16q70 -91 101.5 -187.5t31.5 -211.5v-100q0 -114 -31 -210t-100 -187q-11 -14 -25 -17t-24.5 2.5t-14.5 18.5t5 30q54 100 79 185.5t25 177.5v100q0 93 -25.5 180.5
t-77.5 180.5zM199 761q-52 -93 -77.5 -180.5t-25.5 -180.5v-100q0 -92 25 -177.5t79 -185.5q9 -17 5 -30t-14.5 -18.5t-24.5 -2.5t-25 17q-69 91 -100 187t-31 210v100q0 115 31.5 211.5t101.5 187.5q11 15 24 16t22.5 -6.5t13 -21t-3.5 -26.5z" />
    <glyph glyph-name="uni247F" unicode="&#x247f;" 
d="M416 70q-11 0 -21 8t-10 22v39q0 8 3.5 15t8.5 13l119 147q48 60 70 102.5t21 81.5q-2 61 -59 64q-17 1 -29.5 -1.5t-23.5 -6.5t-21 -9.5t-22 -11.5q-19 -9 -34 -2t-22.5 21.5t-4.5 32t21 30.5q31 23 64 33t72 11q45 1 78.5 -10.5t57 -33t36 -51.5t14.5 -66
q3 -60 -22.5 -112t-64.5 -101l-91 -116h161q23 0 23 -24v-52q0 -23 -23 -23h-301zM268 70q-25 0 -25 26v395l-24 -16q-23 -14 -41.5 -9.5t-27 19t-5.5 33.5t23 36l105 87q6 5 11.5 7.5t13.5 2.5h44q25 0 25 -26v-421q0 -74 -17.5 -104t-50.5 -30h-31v0zM721 761
q-8 13 -4 26.5t13.5 21t22.5 6.5t24 -16q70 -91 101.5 -187.5t31.5 -211.5v-100q0 -114 -31 -210t-100 -187q-11 -14 -25 -17t-24.5 2.5t-14.5 18.5t5 30q54 100 79 185.5t25 177.5v100q0 93 -25.5 180.5t-77.5 180.5zM199 761q-52 -93 -77.5 -180.5t-25.5 -180.5v-100
q0 -92 25 -177.5t79 -185.5q9 -17 5 -30t-14.5 -18.5t-24.5 -2.5t-25 17q-69 91 -100 187t-31 210v100q0 115 31.5 211.5t101.5 187.5q11 15 24 16t22.5 -6.5t13 -21t-3.5 -26.5z" />
    <glyph glyph-name="uni2480" unicode="&#x2480;" 
d="M543 156q15 0 28.5 6.5t24.5 17.5t17.5 25.5t7.5 31.5q2 45 -22.5 65t-72.5 20h-5q-32 0 -48.5 14t-16.5 40v24q0 21 23 21h42q31 0 54 20.5t23 59.5q0 17 -6 28.5t-14.5 18.5t-18.5 10t-18 3q-23 2 -46 -4t-44 -15q-20 -9 -36 -3t-23 19.5t-2.5 30.5t26.5 31
q24 14 56 23.5t69 9.5q83 0 132.5 -40t49.5 -109q0 -46 -24 -81.5t-61 -46.5q48 -11 77.5 -48t29.5 -94q0 -40 -15.5 -72.5t-42.5 -56t-64 -36t-80 -12.5q-88 0 -147 37q-16 9 -20.5 26t1.5 32t21 23t38 0q16 -5 29 -9t25 -6t24.5 -3t28.5 -1zM270 64q-25 0 -25 26v395
l-24 -16q-23 -15 -41 -10.5t-27 18.5t-6 34t23 37l105 87q6 5 11.5 7.5t13.5 2.5h44q25 0 25 -26v-421q0 -74 -17.5 -104t-50.5 -30h-31v0zM721 761q-8 13 -4 26.5t13.5 21t22.5 6.5t24 -16q70 -91 101.5 -187.5t31.5 -211.5v-100q0 -114 -31 -210t-100 -187
q-11 -14 -25 -17t-24.5 2.5t-14.5 18.5t5 30q54 100 79 185.5t25 177.5v100q0 93 -25.5 180.5t-77.5 180.5zM199 761q-52 -93 -77.5 -180.5t-25.5 -180.5v-100q0 -92 25 -177.5t79 -185.5q9 -17 5 -30t-14.5 -18.5t-24.5 -2.5t-25 17q-69 91 -100 187t-31 210v100
q0 115 31.5 211.5t101.5 187.5q11 15 24 16t22.5 -6.5t13 -21t-3.5 -26.5z" />
    <glyph glyph-name="uni2481" unicode="&#x2481;" 
d="M751 293q23 0 23 -24v-51q0 -25 -23 -25h-52v-24q0 -55 -16.5 -77t-46.5 -22h-39q-23 0 -23 23v100h-172q-15 0 -25.5 10t-10.5 25v30q0 13 7 24l224 357q7 11 21 11h58q23 0 23 -23v-334h52zM574 293v160l-88 -160h88zM249 69q-25 0 -25 26v395l-24 -16
q-23 -15 -41 -10.5t-27 18.5t-6 34t23 37l105 87q6 5 11.5 7.5t13.5 2.5h44q25 0 25 -26v-421q0 -74 -17.5 -104t-50.5 -30h-31zM721 761q-8 13 -4 26.5t13.5 21t22.5 6.5t24 -16q70 -91 101.5 -187.5t31.5 -211.5v-100q0 -114 -31 -210t-100 -187q-11 -14 -25 -17
t-24.5 2.5t-14.5 18.5t5 30q54 100 79 185.5t25 177.5v100q0 93 -25.5 180.5t-77.5 180.5zM199 761q-52 -93 -77.5 -180.5t-25.5 -180.5v-100q0 -92 25 -177.5t79 -185.5q9 -17 5 -30t-14.5 -18.5t-24.5 -2.5t-25 17q-69 91 -100 187t-31 210v100q0 115 31.5 211.5
t101.5 187.5q11 15 24 16t22.5 -6.5t13 -21t-3.5 -26.5z" />
    <glyph glyph-name="uni2482" unicode="&#x2482;" 
d="M427 623q0 18 19 18h246q11 0 17 -6.5t6 -17.5v-51q0 -25 -23 -25h-144l-4 -109q5 1 7.5 1h10.5q40 0 74.5 -12.5t59.5 -36.5t38.5 -60t11.5 -83q-2 -38 -15.5 -71.5t-39.5 -58.5t-64.5 -39t-89.5 -14q-30 0 -62 6t-60 22q-19 10 -24 27t1.5 32t23 23t40.5 -1
q20 -8 38 -10.5t43 -2.5q38 0 60.5 24.5t24.5 62.5q1 16 -1.5 32t-11 29t-24 22t-39.5 12q-27 3 -50.5 0.5t-49.5 -6.5q-8 -2 -17.5 3t-9.5 19zM270 64q-25 0 -25 26v395l-24 -16q-23 -14 -41.5 -9.5t-27 19t-5.5 33.5t23 36l105 87q6 5 11.5 7.5t13.5 2.5h44q25 0 25 -26
v-421q0 -74 -17.5 -104t-50.5 -30h-31zM721 761q-8 13 -4 26.5t13.5 21t22.5 6.5t24 -16q70 -91 101.5 -187.5t31.5 -211.5v-100q0 -114 -31 -210t-100 -187q-11 -14 -25 -17t-24.5 2.5t-14.5 18.5t5 30q54 100 79 185.5t25 177.5v100q0 93 -25.5 180.5t-77.5 180.5z
M199 761q-52 -93 -77.5 -180.5t-25.5 -180.5v-100q0 -92 25 -177.5t79 -185.5q9 -17 5 -30t-14.5 -18.5t-24.5 -2.5t-25 17q-69 91 -100 187t-31 210v100q0 115 31.5 211.5t101.5 187.5q11 15 24 16t22.5 -6.5t13 -21t-3.5 -26.5z" />
    <glyph glyph-name="uni249C" unicode="&#x249c;" 
d="M468 513q-26 0 -51 -6t-57 -19q-29 -11 -49 -3t-28.5 25t-4 36.5t25.5 30.5q43 24 82 33t82 9q110 0 160 -50.5t50 -142.5v-208q0 -44 -16.5 -71.5t-50.5 -27.5h-25q-28 0 -32 18l-2 10q-23 -14 -49.5 -26t-64.5 -12q-108 0 -160 43.5t-52 123.5q0 76 52 119.5t160 43.5
q34 0 58 -4.5t50 -10.5v22q0 41 -22.5 54t-55.5 13zM438 215q37 0 64 13.5t44 30.5v61q-31 7 -54.5 10t-53.5 3q-45 0 -62.5 -15t-17.5 -42t17.5 -44t62.5 -17zM721 761q-8 13 -4 26.5t13.5 21t22.5 6.5t24 -16q70 -91 101.5 -187.5t31.5 -211.5v-100q0 -114 -31 -210
t-100 -187q-11 -14 -25 -17t-24.5 2.5t-14.5 18.5t5 30q54 100 79 185.5t25 177.5v100q0 93 -25.5 180.5t-77.5 180.5zM199 761q-52 -93 -77.5 -180.5t-25.5 -180.5v-100q0 -92 25 -177.5t79 -185.5q9 -17 5 -30t-14.5 -18.5t-24.5 -2.5t-25 17q-69 91 -100 187t-31 210v100
q0 115 31.5 211.5t101.5 187.5q11 15 24 16t22.5 -6.5t13 -21t-3.5 -26.5z" />
    <glyph glyph-name="uni249D" unicode="&#x249d;" 
d="M482 116q48 0 80 32.5t32 106.5t-32 106.5t-80 32.5q-30 0 -57 -12t-48 -36v-179q16 -26 44.5 -38.5t60.5 -12.5zM271 20q-26 0 -26 24v649q0 26 25 26h82q25 0 25 -26v-221q25 12 49 20t56 8q121 0 182.5 -66.5t61.5 -178.5t-61.5 -178.5t-182.5 -66.5q-36 0 -67.5 10.5
t-52.5 30.5q-8 -14 -21 -22.5t-31 -8.5h-39zM721 761q-8 13 -4 26.5t13.5 21t22.5 6.5t24 -16q70 -91 101.5 -187.5t31.5 -211.5v-100q0 -114 -31 -210t-100 -187q-11 -14 -25 -17t-24.5 2.5t-14.5 18.5t5 30q54 100 79 185.5t25 177.5v100q0 93 -25.5 180.5t-77.5 180.5z
M199 761q-52 -93 -77.5 -180.5t-25.5 -180.5v-100q0 -92 25 -177.5t79 -185.5q9 -17 5 -30t-14.5 -18.5t-24.5 -2.5t-25 17q-69 91 -100 187t-31 210v100q0 115 31.5 211.5t101.5 187.5q11 15 24 16t22.5 -6.5t13 -21t-3.5 -26.5z" />
    <glyph glyph-name="uni249E" unicode="&#x249e;" 
d="M487 202q23 0 40 2.5t34 9.5q24 9 41 1t23.5 -23.5t2 -34.5t-22.5 -32q-17 -12 -49 -20.5t-69 -8.5q-120 0 -183 62t-63 193q0 123 62 189t183 66q29 0 56 -6.5t44 -14.5q21 -11 26.5 -29t-0.5 -34.5t-22.5 -26.5t-40.5 -4q-18 5 -32 7t-31 2q-50 0 -81.5 -39t-31.5 -110
t28.5 -110t85.5 -39zM721 761q-8 13 -4 26.5t13.5 21t22.5 6.5t24 -16q70 -91 101.5 -187.5t31.5 -211.5v-100q0 -114 -31 -210t-100 -187q-11 -14 -25 -17t-24.5 2.5t-14.5 18.5t5 30q54 100 79 185.5t25 177.5v100q0 93 -25.5 180.5t-77.5 180.5zM199 761
q-52 -93 -77.5 -180.5t-25.5 -180.5v-100q0 -92 25 -177.5t79 -185.5q9 -17 5 -30t-14.5 -18.5t-24.5 -2.5t-25 17q-69 91 -100 187t-31 210v100q0 115 31.5 211.5t101.5 187.5q11 15 24 16t22.5 -6.5t13 -21t-3.5 -26.5z" />
    <glyph glyph-name="uni249F" unicode="&#x249f;" 
d="M680 154q0 -74 -17.5 -104t-50.5 -30h-39q-25 0 -25 29q-23 -20 -51 -29.5t-54 -9.5q-121 0 -182.5 66.5t-61.5 178.5t61.5 178.5t182.5 66.5q32 0 56 -8t49 -20v221q0 26 25 26h82q25 0 25 -26v-539zM548 346q-21 24 -48 36t-57 12q-48 0 -80 -32.5t-32 -106.5
t32 -106.5t80 -32.5q32 0 60.5 12.5t44.5 38.5v179v0zM721 761q-8 13 -4 26.5t13.5 21t22.5 6.5t24 -16q70 -91 101.5 -187.5t31.5 -211.5v-100q0 -114 -31 -210t-100 -187q-11 -14 -25 -17t-24.5 2.5t-14.5 18.5t5 30q54 100 79 185.5t25 177.5v100q0 93 -25.5 180.5
t-77.5 180.5zM199 761q-52 -93 -77.5 -180.5t-25.5 -180.5v-100q0 -92 25 -177.5t79 -185.5q9 -17 5 -30t-14.5 -18.5t-24.5 -2.5t-25 17q-69 91 -100 187t-31 210v100q0 115 31.5 211.5t101.5 187.5q11 15 24 16t22.5 -6.5t13 -21t-3.5 -26.5z" />
    <glyph glyph-name="uni24A0" unicode="&#x24a0;" 
d="M559 405q-10 52 -37 72.5t-62 20.5q-36 0 -62 -20t-36 -73h197zM476 200q17 0 44 2.5t53 14.5q27 13 46 6.5t27 -22.5t3 -36t-26 -35q-26 -18 -66.5 -27t-80.5 -9q-54 0 -100 14.5t-79 45t-52 79t-19 117.5q0 62 18 109.5t49.5 79.5t74 48.5t92.5 16.5q49 0 92 -16.5
t74.5 -48.5t49.5 -80.5t18 -111.5q0 -27 -11 -37.5t-35 -10.5h-287q8 -57 38 -78t77 -21zM721 761q-8 13 -4 26.5t13.5 21t22.5 6.5t24 -16q70 -91 101.5 -187.5t31.5 -211.5v-100q0 -114 -31 -210t-100 -187q-11 -14 -25 -17t-24.5 2.5t-14.5 18.5t5 30q54 100 79 185.5
t25 177.5v100q0 93 -25.5 180.5t-77.5 180.5zM199 761q-52 -93 -77.5 -180.5t-25.5 -180.5v-100q0 -92 25 -177.5t79 -185.5q9 -17 5 -30t-14.5 -18.5t-24.5 -2.5t-25 17q-69 91 -100 187t-31 210v100q0 115 31.5 211.5t101.5 187.5q11 15 24 16t22.5 -6.5t13 -21
t-3.5 -26.5z" />
    <glyph glyph-name="uni24A1" unicode="&#x24a1;" 
d="M495 477h92q25 0 25 -26v-56q0 -26 -25 -26h-92v-265q0 -74 -17.5 -104t-50.5 -30h-41q-25 0 -25 26v373q-54 2 -78 17.5t-24 44.5v21q0 25 26 25h76v84q0 73 39 105.5t112 32.5q28 0 58 -6t47 -15q18 -9 24.5 -27t2 -34.5t-19.5 -27t-40 -4.5q-10 2 -24 4t-25 1
q-23 -2 -32 -17.5t-8 -47.5v-48zM721 761q-8 13 -4 26.5t13.5 21t22.5 6.5t24 -16q70 -91 101.5 -187.5t31.5 -211.5v-100q0 -114 -31 -210t-100 -187q-11 -14 -25 -17t-24.5 2.5t-14.5 18.5t5 30q54 100 79 185.5t25 177.5v100q0 93 -25.5 180.5t-77.5 180.5zM199 761
q-52 -93 -77.5 -180.5t-25.5 -180.5v-100q0 -92 25 -177.5t79 -185.5q9 -17 5 -30t-14.5 -18.5t-24.5 -2.5t-25 17q-69 91 -100 187t-31 210v100q0 115 31.5 211.5t101.5 187.5q11 15 24 16t22.5 -6.5t13 -21t-3.5 -26.5z" />
    <glyph glyph-name="uni24A2" unicode="&#x24a2;" 
d="M633 506q0 -33 -12.5 -61t-37 -48.5t-60.5 -32.5t-82 -12q-45 0 -81 11q-3 -5 -3.5 -12.5t2.5 -12.5q6 -11 22 -13l150 -25q84 -14 122.5 -46t38.5 -93q0 -63 -56.5 -100.5t-174.5 -37.5q-245 0 -245 138q0 35 18 57.5t43 34.5q-20 16 -28.5 35.5t-8.5 39.5q0 50 39 80
q-14 20 -22 46t-8 52q0 40 15 69t41 48t61 28t75 9q26 0 53 -5.5t47 -15.5q19 11 41.5 17.5t46.5 6.5q39 0 74 -16q19 -9 27.5 -22.5t8.5 -27t-7.5 -25t-19.5 -17t-27.5 -3t-31.5 17.5q-20 19 -30 21q-8 1 -15 -3q14 -16 19.5 -40.5t5.5 -41.5zM424 208q-35 -2 -54.5 -16
t-19.5 -31t22 -25.5t82 -8.5q55 0 79.5 10t24.5 24q0 15 -11 23t-37 12zM381 506q0 -23 16 -38t44 -15t44 15t16 38t-16 38t-44 15t-44 -15t-16 -38zM721 761q-8 13 -4 26.5t13.5 21t22.5 6.5t24 -16q70 -91 101.5 -187.5t31.5 -211.5v-100q0 -114 -31 -210t-100 -187
q-11 -14 -25 -17t-24.5 2.5t-14.5 18.5t5 30q54 100 79 185.5t25 177.5v100q0 93 -25.5 180.5t-77.5 180.5zM199 761q-52 -93 -77.5 -180.5t-25.5 -180.5v-100q0 -92 25 -177.5t79 -185.5q9 -17 5 -30t-14.5 -18.5t-24.5 -2.5t-25 17q-69 91 -100 187t-31 210v100
q0 115 31.5 211.5t101.5 187.5q11 15 24 16t22.5 -6.5t13 -21t-3.5 -26.5z" />
    <glyph glyph-name="uni24A3" unicode="&#x24a3;" 
d="M564 278q0 96 -75 96q-30 0 -58 -15t-48 -43v-183q0 -74 -17.5 -103.5t-50.5 -29.5h-39q-25 0 -25 26v657q0 26 25 26h82q25 0 25 -26v-239q21 15 52.5 25.5t59.5 10.5q107 0 154 -51t47 -151v-145q0 -74 -17.5 -103.5t-50.5 -29.5h-39q-25 0 -25 26v252zM721 761
q-8 13 -4 26.5t13.5 21t22.5 6.5t24 -16q70 -91 101.5 -187.5t31.5 -211.5v-100q0 -114 -31 -210t-100 -187q-11 -14 -25 -17t-24.5 2.5t-14.5 18.5t5 30q54 100 79 185.5t25 177.5v100q0 93 -25.5 180.5t-77.5 180.5zM199 761q-52 -93 -77.5 -180.5t-25.5 -180.5v-100
q0 -92 25 -177.5t79 -185.5q9 -17 5 -30t-14.5 -18.5t-24.5 -2.5t-25 17q-69 91 -100 187t-31 210v100q0 115 31.5 211.5t101.5 187.5q11 15 24 16t22.5 -6.5t13 -21t-3.5 -26.5z" />
    <glyph glyph-name="uni24A4" unicode="&#x24a4;" 
d="M393 448q0 26 25 26h84q25 0 25 -26v-320q0 -74 -17.5 -104t-50.5 -30h-41q-25 0 -25 26v428zM369 609q0 18 7 34t19 28.5t28.5 19.5t35.5 7t35.5 -7t28.5 -19.5t19 -28.5t7 -34t-7 -34t-19 -28.5t-28.5 -19.5t-35.5 -7t-35.5 7t-28.5 19.5t-19 28.5t-7 34zM721 761
q-8 13 -4 26.5t13.5 21t22.5 6.5t24 -16q70 -91 101.5 -187.5t31.5 -211.5v-100q0 -114 -31 -210t-100 -187q-11 -14 -25 -17t-24.5 2.5t-14.5 18.5t5 30q54 100 79 185.5t25 177.5v100q0 93 -25.5 180.5t-77.5 180.5zM199 761q-52 -93 -77.5 -180.5t-25.5 -180.5v-100
q0 -92 25 -177.5t79 -185.5q9 -17 5 -30t-14.5 -18.5t-24.5 -2.5t-25 17q-69 91 -100 187t-31 210v100q0 115 31.5 211.5t101.5 187.5q11 15 24 16t22.5 -6.5t13 -21t-3.5 -26.5z" />
    <glyph glyph-name="uni24A5" unicode="&#x24a5;" 
d="M410 631q0 18 7 34t19 28.5t28.5 19.5t35.5 7t35.5 -7t28.5 -19.5t19 -28.5t7 -34t-7 -34t-19 -28.5t-28.5 -19.5t-35.5 -7t-35.5 7t-28.5 19.5t-19 28.5t-7 34zM434 470q0 26 25 26h84q25 0 25 -26v-331q0 -82 -48 -122.5t-125 -40.5q-29 0 -52 5t-46 19
q-18 11 -23.5 29.5t0 35t20.5 25.5t39 1q34 -12 61 -12q17 0 28.5 11.5t11.5 38.5v341zM721 761q-8 13 -4 26.5t13.5 21t22.5 6.5t24 -16q70 -91 101.5 -187.5t31.5 -211.5v-100q0 -114 -31 -210t-100 -187q-11 -14 -25 -17t-24.5 2.5t-14.5 18.5t5 30q54 100 79 185.5
t25 177.5v100q0 93 -25.5 180.5t-77.5 180.5zM199 761q-52 -93 -77.5 -180.5t-25.5 -180.5v-100q0 -92 25 -177.5t79 -185.5q9 -17 5 -30t-14.5 -18.5t-24.5 -2.5t-25 17q-69 91 -100 187t-31 210v100q0 115 31.5 211.5t101.5 187.5q11 15 24 16t22.5 -6.5t13 -21
t-3.5 -26.5z" />
    <glyph glyph-name="uni24A6" unicode="&#x24a6;" 
d="M399 147v-13q0 -74 -17.5 -104t-50.5 -30h-41q-25 0 -25 26v677q0 26 25 26h84q25 0 25 -26v-344l130 119q12 12 27 12h113q17 0 20 -13t-9 -24l-223 -204l221 -215q12 -11 6 -22.5t-19 -11.5h-78q-21 0 -43.5 10.5t-59.5 45.5zM721 761q-8 13 -4 26.5t13.5 21t22.5 6.5
t24 -16q70 -91 101.5 -187.5t31.5 -211.5v-100q0 -114 -31 -210t-100 -187q-11 -14 -25 -17t-24.5 2.5t-14.5 18.5t5 30q54 100 79 185.5t25 177.5v100q0 93 -25.5 180.5t-77.5 180.5zM199 761q-52 -93 -77.5 -180.5t-25.5 -180.5v-100q0 -92 25 -177.5t79 -185.5
q9 -17 5 -30t-14.5 -18.5t-24.5 -2.5t-25 17q-69 91 -100 187t-31 210v100q0 115 31.5 211.5t101.5 187.5q11 15 24 16t22.5 -6.5t13 -21t-3.5 -26.5z" />
    <glyph glyph-name="uni24A7" unicode="&#x24a7;" 
d="M393 671q0 26 25 26h84q25 0 25 -26v-529q0 -74 -17.5 -104t-50.5 -30h-41q-25 0 -25 26v637zM721 761q-8 13 -4 26.5t13.5 21t22.5 6.5t24 -16q70 -91 101.5 -187.5t31.5 -211.5v-100q0 -114 -31 -210t-100 -187q-11 -14 -25 -17t-24.5 2.5t-14.5 18.5t5 30
q54 100 79 185.5t25 177.5v100q0 93 -25.5 180.5t-77.5 180.5zM199 761q-52 -93 -77.5 -180.5t-25.5 -180.5v-100q0 -92 25 -177.5t79 -185.5q9 -17 5 -30t-14.5 -18.5t-24.5 -2.5t-25 17q-69 91 -100 187t-31 210v100q0 115 31.5 211.5t101.5 187.5q11 15 24 16t22.5 -6.5
t13 -21t-3.5 -26.5z" />
    <glyph glyph-name="uni24A8" unicode="&#x24a8;" 
d="M164 112q-25 0 -25 26v419q0 26 25 26h76q23 0 25 -23q20 15 43.5 24t50.5 9q48 0 78 -15t51 -40q22 25 52.5 40t69.5 15q89 0 135 -47t46 -142v-158q0 -74 -17.5 -104t-50.5 -30h-39q-25 0 -25 26v266q0 42 -13 62.5t-42 20.5q-21 0 -40.5 -12t-33.5 -36q1 -8 1 -17.5
v-17.5v-158q0 -74 -17.5 -104t-50.5 -30h-39q-25 0 -25 26v266q0 45 -16 64t-40 19q-23 0 -42 -15t-30 -38v-188q0 -74 -17.5 -104t-50.5 -30h-39v0zM721 761q-8 13 -4 26.5t13.5 21t22.5 6.5t24 -16q70 -91 101.5 -187.5t31.5 -211.5v-100q0 -114 -31 -210t-100 -187
q-11 -14 -25 -17t-24.5 2.5t-14.5 18.5t5 30q54 100 79 185.5t25 177.5v100q0 93 -25.5 180.5t-77.5 180.5zM199 761q-52 -93 -77.5 -180.5t-25.5 -180.5v-100q0 -92 25 -177.5t79 -185.5q9 -17 5 -30t-14.5 -18.5t-24.5 -2.5t-25 17q-69 91 -100 187t-31 210v100
q0 115 31.5 211.5t101.5 187.5q11 15 24 16t22.5 -6.5t13 -21t-3.5 -26.5z" />
    <glyph glyph-name="uni24A9" unicode="&#x24a9;" 
d="M550 405q0 47 -17 71t-56 24q-32 0 -56.5 -14.5t-47.5 -42.5v-203q0 -74 -17.5 -104t-50.5 -30h-41q-25 0 -25 26v438q0 26 25 26h78q25 0 25 -33q20 19 52 31t64 12q100 0 150.5 -50t50.5 -151v-165q0 -74 -17.5 -104t-50.5 -30h-41q-23 0 -25 26v273zM721 761
q-8 13 -4 26.5t13.5 21t22.5 6.5t24 -16q70 -91 101.5 -187.5t31.5 -211.5v-100q0 -114 -31 -210t-100 -187q-11 -14 -25 -17t-24.5 2.5t-14.5 18.5t5 30q54 100 79 185.5t25 177.5v100q0 93 -25.5 180.5t-77.5 180.5zM199 761q-52 -93 -77.5 -180.5t-25.5 -180.5v-100
q0 -92 25 -177.5t79 -185.5q9 -17 5 -30t-14.5 -18.5t-24.5 -2.5t-25 17q-69 91 -100 187t-31 210v100q0 115 31.5 211.5t101.5 187.5q11 15 24 16t22.5 -6.5t13 -21t-3.5 -26.5z" />
    <glyph glyph-name="uni24AA" unicode="&#x24aa;" 
d="M704 351q0 -122 -65 -188.5t-179 -66.5t-179 66.5t-65 188.5t65 188.5t179 66.5t179 -66.5t65 -188.5zM348 351q0 -76 29.5 -112.5t82.5 -36.5t82.5 36.5t29.5 112.5t-29.5 112.5t-82.5 36.5t-82.5 -36.5t-29.5 -112.5zM721 761q-8 13 -4 26.5t13.5 21t22.5 6.5t24 -16
q70 -91 101.5 -187.5t31.5 -211.5v-100q0 -114 -31 -210t-100 -187q-11 -14 -25 -17t-24.5 2.5t-14.5 18.5t5 30q54 100 79 185.5t25 177.5v100q0 93 -25.5 180.5t-77.5 180.5zM199 761q-52 -93 -77.5 -180.5t-25.5 -180.5v-100q0 -92 25 -177.5t79 -185.5q9 -17 5 -30
t-14.5 -18.5t-24.5 -2.5t-25 17q-69 91 -100 187t-31 210v100q0 115 31.5 211.5t101.5 187.5q11 15 24 16t22.5 -6.5t13 -21t-3.5 -26.5z" />
    <glyph glyph-name="uni24AB" unicode="&#x24ab;" 
d="M245 633q0 26 25 26h82q13 0 19 -8.5t6 -20.5q17 16 46 27t61 11q60 0 105.5 -17.5t76 -49.5t45.5 -77t15 -101q0 -112 -61.5 -178.5t-182.5 -66.5q-24 0 -53.5 7t-49.5 20v-92q0 -74 -17.5 -104t-50.5 -30h-41q-25 0 -25 26v628zM482 284q48 0 80 32.5t32 106.5
t-32 106.5t-80 32.5q-30 0 -57 -12t-48 -36v-179q16 -26 44.5 -38.5t60.5 -12.5zM721 761q-8 13 -4 26.5t13.5 21t22.5 6.5t24 -16q70 -91 101.5 -187.5t31.5 -211.5v-100q0 -114 -31 -210t-100 -187q-11 -14 -25 -17t-24.5 2.5t-14.5 18.5t5 30q54 100 79 185.5t25 177.5
v100q0 93 -25.5 180.5t-77.5 180.5zM199 761q-52 -93 -77.5 -180.5t-25.5 -180.5v-100q0 -92 25 -177.5t79 -185.5q9 -17 5 -30t-14.5 -18.5t-24.5 -2.5t-25 17q-69 91 -100 187t-31 210v100q0 115 31.5 211.5t101.5 187.5q11 15 24 16t22.5 -6.5t13 -21t-3.5 -26.5z" />
    <glyph glyph-name="uni24AC" unicode="&#x24ac;" 
d="M443 285q32 0 61 14t44 37v179q-19 25 -47 36.5t-58 11.5q-48 0 -80 -32.5t-32 -106.5t32 -106.5t80 -32.5zM680 113q0 -74 -17.5 -104t-50.5 -30h-41q-25 0 -25 26v203q-23 -15 -51 -22t-52 -7q-60 -1 -106 16.5t-76.5 49.5t-46 77.5t-15.5 101.5q0 112 61.5 178.5
t182.5 66.5q29 0 58 -9.5t47 -28.5q0 12 6 20.5t19 8.5h82q25 0 25 -26v-521zM721 761q-8 13 -4 26.5t13.5 21t22.5 6.5t24 -16q70 -91 101.5 -187.5t31.5 -211.5v-100q0 -114 -31 -210t-100 -187q-11 -14 -25 -17t-24.5 2.5t-14.5 18.5t5 30q54 100 79 185.5t25 177.5v100
q0 93 -25.5 180.5t-77.5 180.5zM199 761q-52 -93 -77.5 -180.5t-25.5 -180.5v-100q0 -92 25 -177.5t79 -185.5q9 -17 5 -30t-14.5 -18.5t-24.5 -2.5t-25 17q-69 91 -100 187t-31 210v100q0 115 31.5 211.5t101.5 187.5q11 15 24 16t22.5 -6.5t13 -21t-3.5 -26.5z" />
    <glyph glyph-name="uni24AD" unicode="&#x24ad;" 
d="M296 541q0 26 25 26h83q21 0 23 -16l2 -15q16 17 37.5 26.5t44.5 12.5q22 2 48 -0.5t49 -11.5q30 -12 39 -36t2 -45t-27 -32.5t-47 0.5q-18 8 -40.5 12.5t-40.5 4.5q-20 0 -36.5 -7.5t-27.5 -19.5v-209q0 -74 -17.5 -104t-50.5 -30h-41q-25 0 -25 26v418zM721 761
q-8 13 -4 26.5t13.5 21t22.5 6.5t24 -16q70 -91 101.5 -187.5t31.5 -211.5v-100q0 -114 -31 -210t-100 -187q-11 -14 -25 -17t-24.5 2.5t-14.5 18.5t5 30q54 100 79 185.5t25 177.5v100q0 93 -25.5 180.5t-77.5 180.5zM199 761q-52 -93 -77.5 -180.5t-25.5 -180.5v-100
q0 -92 25 -177.5t79 -185.5q9 -17 5 -30t-14.5 -18.5t-24.5 -2.5t-25 17q-69 91 -100 187t-31 210v100q0 115 31.5 211.5t101.5 187.5q11 15 24 16t22.5 -6.5t13 -21t-3.5 -26.5z" />
    <glyph glyph-name="uni24AE" unicode="&#x24ae;" 
d="M465 202q27 0 38.5 13t13.5 25q3 20 -4.5 36t-38.5 27l-84 29q-55 19 -81 54t-26 83q0 62 39.5 99.5t125.5 37.5q22 0 59.5 -6.5t71.5 -27.5q23 -14 27 -34.5t-5.5 -36.5t-30 -22.5t-46.5 8.5q-23 13 -41.5 16.5t-34.5 1.5q-12 -2 -23.5 -10t-11.5 -26q0 -16 10 -25
t31 -17l75 -26q63 -22 93 -63.5t26 -97.5q-2 -29 -13.5 -55.5t-33.5 -46t-56 -31t-80 -11.5q-45 0 -86.5 12t-73.5 37q-20 16 -23.5 36t6 35t29 20.5t44.5 -8.5q48 -26 104 -26zM721 761q-8 13 -4 26.5t13.5 21t22.5 6.5t24 -16q70 -91 101.5 -187.5t31.5 -211.5v-100
q0 -114 -31 -210t-100 -187q-11 -14 -25 -17t-24.5 2.5t-14.5 18.5t5 30q54 100 79 185.5t25 177.5v100q0 93 -25.5 180.5t-77.5 180.5zM199 761q-52 -93 -77.5 -180.5t-25.5 -180.5v-100q0 -92 25 -177.5t79 -185.5q9 -17 5 -30t-14.5 -18.5t-24.5 -2.5t-25 17
q-69 91 -100 187t-31 210v100q0 115 31.5 211.5t101.5 187.5q11 15 24 16t22.5 -6.5t13 -21t-3.5 -26.5z" />
    <glyph glyph-name="uni24AF" unicode="&#x24af;" 
d="M527 113q18 0 38 8q19 7 32.5 -2t19 -25t1 -34t-19.5 -29q-12 -9 -37.5 -17.5t-55.5 -8.5q-39 0 -66.5 10t-44 33t-24 59.5t-7.5 90.5v225q-48 3 -70 18.5t-22 42.5v19q0 25 26 25h66v141q0 26 25 26h84q25 0 25 -26v-141h64q25 0 25 -26v-54q0 -26 -25 -26h-64v-224
q0 -50 6.5 -67.5t23.5 -17.5zM721 761q-8 13 -4 26.5t13.5 21t22.5 6.5t24 -16q70 -91 101.5 -187.5t31.5 -211.5v-100q0 -114 -31 -210t-100 -187q-11 -14 -25 -17t-24.5 2.5t-14.5 18.5t5 30q54 100 79 185.5t25 177.5v100q0 93 -25.5 180.5t-77.5 180.5zM199 761
q-52 -93 -77.5 -180.5t-25.5 -180.5v-100q0 -92 25 -177.5t79 -185.5q9 -17 5 -30t-14.5 -18.5t-24.5 -2.5t-25 17q-69 91 -100 187t-31 210v100q0 115 31.5 211.5t101.5 187.5q11 15 24 16t22.5 -6.5t13 -21t-3.5 -26.5z" />
    <glyph glyph-name="uni24B0" unicode="&#x24b0;" 
d="M682 240q0 -74 -17.5 -104t-50.5 -30h-34q-13 0 -18 6t-7 19l-1 8q-23 -21 -55.5 -32t-60.5 -11q-100 0 -150.5 50t-50.5 151v272q0 26 25 26h84q25 0 25 -26v-272q0 -47 17 -71t56 -24q34 0 62.5 17t41.5 40v310q0 26 25 26h84q25 0 25 -26v-329zM721 761q-8 13 -4 26.5
t13.5 21t22.5 6.5t24 -16q70 -91 101.5 -187.5t31.5 -211.5v-100q0 -114 -31 -210t-100 -187q-11 -14 -25 -17t-24.5 2.5t-14.5 18.5t5 30q54 100 79 185.5t25 177.5v100q0 93 -25.5 180.5t-77.5 180.5zM199 761q-52 -93 -77.5 -180.5t-25.5 -180.5v-100q0 -92 25 -177.5
t79 -185.5q9 -17 5 -30t-14.5 -18.5t-24.5 -2.5t-25 17q-69 91 -100 187t-31 210v100q0 115 31.5 211.5t101.5 187.5q11 15 24 16t22.5 -6.5t13 -21t-3.5 -26.5z" />
    <glyph glyph-name="uni24B1" unicode="&#x24b1;" 
d="M542 136q-11 -31 -23 -41.5t-32 -10.5h-76q-18 0 -23 14l-163 443q-5 13 -0.5 23t21.5 10h75q15 0 22 -4.5t12 -17.5l69 -205q8 -27 17 -55t17 -55q8 27 17 55t17 55l68 205q5 13 12 17.5t22 4.5h75q17 0 21.5 -10t-0.5 -23zM721 761q-8 13 -4 26.5t13.5 21t22.5 6.5
t24 -16q70 -91 101.5 -187.5t31.5 -211.5v-100q0 -114 -31 -210t-100 -187q-11 -14 -25 -17t-24.5 2.5t-14.5 18.5t5 30q54 100 79 185.5t25 177.5v100q0 93 -25.5 180.5t-77.5 180.5zM199 761q-52 -93 -77.5 -180.5t-25.5 -180.5v-100q0 -92 25 -177.5t79 -185.5
q9 -17 5 -30t-14.5 -18.5t-24.5 -2.5t-25 17q-69 91 -100 187t-31 210v100q0 115 31.5 211.5t101.5 187.5q11 15 24 16t22.5 -6.5t13 -21t-3.5 -26.5z" />
    <glyph glyph-name="uni24B2" unicode="&#x24b2;" 
d="M199 761q-54 -94 -79 -185q2 1 7 1h74q12 0 19 -3t10 -14l84 -299l78 299q5 17 26 17h96q11 0 17.5 -5t8.5 -13l78 -298l84 299q3 11 10 14t19 3h68q-25 89 -78 184q-8 13 -4 26.5t13.5 21t22.5 6.5t24 -16q70 -91 101.5 -187.5t31.5 -211.5v-100q0 -114 -31 -210
t-100 -187q-11 -14 -25 -17t-24.5 2.5t-14.5 18.5t5 30q54 100 79 185.5t25 177.5v100q0 29 -3 55t-8 55l-106 -371q-9 -32 -21.5 -42t-32.5 -10h-90q-20 0 -23 15l-74 310l-63 -273q-8 -32 -22 -42t-34 -10h-88q-19 0 -23 15l-125 438q-15 -69 -15 -140v-100
q0 -92 25 -177.5t79 -185.5q9 -17 5 -30t-14.5 -18.5t-24.5 -2.5t-25 17q-69 91 -100 187t-31 210v100q0 115 31.5 211.5t101.5 187.5q11 15 24 16t22.5 -6.5t13 -21t-3.5 -26.5z" />
    <glyph glyph-name="uni24B3" unicode="&#x24b3;" 
d="M338 589q13 0 24 -14l74 -98q7 -9 12.5 -18t11.5 -19q11 20 25 38l73 97q11 14 24 14h83q20 0 24 -11.5t-4 -22.5l-125 -168q-7 -9 -16.5 -20.5t-15.5 -17.5q7 -7 16 -18t16 -19l130 -171q14 -18 7 -30t-24 -12h-59q-19 0 -42.5 17.5t-49.5 52.5l-30 41q-9 12 -16.5 23
t-15.5 24q-14 -24 -31 -47l-31 -41q-52 -70 -92 -70h-59q-17 0 -24 12t7 30l130 172q7 8 15 17.5t17 18.5q-17 17 -32 37l-125 169q-8 11 -4 22.5t24 11.5h83zM721 761q-8 13 -4 26.5t13.5 21t22.5 6.5t24 -16q70 -91 101.5 -187.5t31.5 -211.5v-100q0 -114 -31 -210
t-100 -187q-11 -14 -25 -17t-24.5 2.5t-14.5 18.5t5 30q54 100 79 185.5t25 177.5v100q0 93 -25.5 180.5t-77.5 180.5zM199 761q-52 -93 -77.5 -180.5t-25.5 -180.5v-100q0 -92 25 -177.5t79 -185.5q9 -17 5 -30t-14.5 -18.5t-24.5 -2.5t-25 17q-69 91 -100 187t-31 210v100
q0 115 31.5 211.5t101.5 187.5q11 15 24 16t22.5 -6.5t13 -21t-3.5 -26.5z" />
    <glyph glyph-name="uni24B4" unicode="&#x24b4;" 
d="M344 -26q-14 0 -21 9t-1 23l75 185l-182 457q-4 11 2 19t21 8h76q20 0 26 -16l99 -244q8 -20 15 -42t12 -43q12 41 29 85l95 246q6 14 21 14h79q16 0 21.5 -8.5t1.5 -18.5l-237 -600q-16 -37 -31.5 -55.5t-33.5 -18.5h-67zM721 761q-8 13 -4 26.5t13.5 21t22.5 6.5
t24 -16q70 -91 101.5 -187.5t31.5 -211.5v-100q0 -114 -31 -210t-100 -187q-11 -14 -25 -17t-24.5 2.5t-14.5 18.5t5 30q54 100 79 185.5t25 177.5v100q0 93 -25.5 180.5t-77.5 180.5zM199 761q-52 -93 -77.5 -180.5t-25.5 -180.5v-100q0 -92 25 -177.5t79 -185.5
q9 -17 5 -30t-14.5 -18.5t-24.5 -2.5t-25 17q-69 91 -100 187t-31 210v100q0 115 31.5 211.5t101.5 187.5q11 15 24 16t22.5 -6.5t13 -21t-3.5 -26.5z" />
    <glyph glyph-name="uni24B5" unicode="&#x24b5;" 
d="M445 239q-7 -11 -4.5 -18.5t16.5 -7.5h28.5t39 0.5t40 1.5t33.5 3q27 4 40.5 -9.5t14.5 -31.5t-11 -34.5t-34 -20.5q-66 -11 -133.5 -15t-141.5 4q-23 3 -38 13.5t-21 26t-3.5 33t14.5 33.5l157 243q11 17 22 31h-58q-62 0 -90 16t-28 46v21q0 25 26 25h293q14 0 19.5 -7
t5.5 -18v-46q0 -15 -11 -29zM721 761q-8 13 -4 26.5t13.5 21t22.5 6.5t24 -16q70 -91 101.5 -187.5t31.5 -211.5v-100q0 -114 -31 -210t-100 -187q-11 -14 -25 -17t-24.5 2.5t-14.5 18.5t5 30q54 100 79 185.5t25 177.5v100q0 93 -25.5 180.5t-77.5 180.5zM199 761
q-52 -93 -77.5 -180.5t-25.5 -180.5v-100q0 -92 25 -177.5t79 -185.5q9 -17 5 -30t-14.5 -18.5t-24.5 -2.5t-25 17q-69 91 -100 187t-31 210v100q0 115 31.5 211.5t101.5 187.5q11 15 24 16t22.5 -6.5t13 -21t-3.5 -26.5z" />
    <glyph glyph-name="uni24D0" unicode="&#x24d0;" 
d="M11 350q0 97 32.5 178t91.5 139.5t141.5 91.5t183.5 33t183.5 -33t141.5 -91.5t91.5 -139.5t32.5 -178t-32.5 -178t-91.5 -139.5t-141.5 -91.5t-183.5 -33t-183.5 33t-141.5 91.5t-91.5 139.5t-32.5 178zM827 350q0 82 -27.5 149.5t-76 116t-116 75.5t-147.5 27
t-147.5 -27t-116.5 -75.5t-76 -116t-27 -149.5t27 -150t76 -116.5t116.5 -75t147.5 -26.5t147.5 26.5t116 75t76 116.5t27.5 150zM468 513q-26 0 -51 -6t-57 -19q-29 -11 -49 -3t-28.5 25t-4 36.5t25.5 30.5q43 24 82 33t82 9q110 0 160 -50.5t50 -142.5v-208
q0 -44 -16.5 -71.5t-50.5 -27.5h-25q-28 0 -32 18l-2 10q-23 -14 -49.5 -26t-64.5 -12q-108 0 -160 43.5t-52 123.5q0 76 52 119.5t160 43.5q34 0 58 -4.5t50 -10.5v22q0 41 -22.5 54t-55.5 13zM438 215q37 0 64 13.5t44 30.5v61q-31 7 -54.5 10t-53.5 3q-45 0 -62.5 -15
t-17.5 -42t17.5 -44t62.5 -17z" />
    <glyph glyph-name="uni24D1" unicode="&#x24d1;" 
d="M11 350q0 97 32.5 178t91.5 139.5t141.5 91.5t183.5 33t183.5 -33t141.5 -91.5t91.5 -139.5t32.5 -178t-32.5 -178t-91.5 -139.5t-141.5 -91.5t-183.5 -33t-183.5 33t-141.5 91.5t-91.5 139.5t-32.5 178zM827 350q0 82 -27.5 149.5t-76 116t-116 75.5t-147.5 27
q-47 0 -87 -9v-197q25 12 49 20t56 8q121 0 182.5 -66.5t61.5 -178.5t-61.5 -178.5t-182.5 -66.5q-36 0 -67.5 10.5t-52.5 30.5q-8 -14 -21 -22.5t-31 -8.5h-39q-26 0 -26 24v568q-69 -48 -108.5 -125t-39.5 -177q0 -82 27 -150t76 -116.5t116.5 -75t147.5 -26.5t147.5 26.5
t116 75t76 116.5t27.5 150zM478 156q48 0 80 32.5t32 106.5t-32 106.5t-80 32.5q-30 0 -57 -12t-48 -36v-179q16 -26 44.5 -38.5t60.5 -12.5z" />
    <glyph glyph-name="uni24D2" unicode="&#x24d2;" 
d="M474 202q23 0 40 2.5t34 9.5q24 9 41 1t23.5 -23.5t2 -34.5t-22.5 -32q-17 -12 -49 -20.5t-69 -8.5q-120 0 -183 62t-63 193q0 123 62 189t183 66q29 0 56 -6.5t44 -14.5q21 -11 26.5 -29t-0.5 -34.5t-22.5 -26.5t-40.5 -4q-18 5 -32 7t-31 2q-50 0 -81.5 -39t-31.5 -110
t28.5 -110t85.5 -39zM11 350q0 97 32.5 178t91.5 139.5t141.5 91.5t183.5 33t183.5 -33t141.5 -91.5t91.5 -139.5t32.5 -178t-32.5 -178t-91.5 -139.5t-141.5 -91.5t-183.5 -33t-183.5 33t-141.5 91.5t-91.5 139.5t-32.5 178zM827 350q0 82 -27.5 149.5t-76 116t-116 75.5
t-147.5 27t-147.5 -27t-116.5 -75.5t-76 -116t-27 -149.5t27 -150t76 -116.5t116.5 -75t147.5 -26.5t147.5 26.5t116 75t76 116.5t27.5 150z" />
    <glyph glyph-name="uni24D3" unicode="&#x24d3;" 
d="M11 350q0 97 32.5 178t91.5 139.5t141.5 91.5t183.5 33t183.5 -33t141.5 -91.5t91.5 -139.5t32.5 -178t-32.5 -178t-91.5 -139.5t-141.5 -91.5t-183.5 -33t-183.5 33t-141.5 91.5t-91.5 139.5t-32.5 178zM827 350q0 98 -38.5 175t-106.5 125v-456q0 -74 -17.5 -104
t-50.5 -30h-39q-25 0 -25 29q-23 -20 -51 -29.5t-54 -9.5q-121 0 -182.5 66.5t-61.5 178.5t61.5 178.5t182.5 66.5q32 0 56 -8t49 -20v196q-22 5 -44.5 7.5t-45.5 2.5q-80 0 -147.5 -27t-116.5 -75.5t-76 -116t-27 -149.5t27 -150t76 -116.5t116.5 -75t147.5 -26.5
t147.5 26.5t116 75t76 116.5t27.5 150zM550 386q-21 24 -48 36t-57 12q-48 0 -80 -32.5t-32 -106.5t32 -106.5t80 -32.5q32 0 60.5 12.5t44.5 38.5v179v0z" />
    <glyph glyph-name="uni24D4" unicode="&#x24d4;" 
d="M559 405q-10 52 -37 72.5t-62 20.5q-36 0 -62 -20t-36 -73h197zM476 200q17 0 44 2.5t53 14.5q27 13 46 6.5t27 -22.5t3 -36t-26 -35q-26 -18 -66.5 -27t-80.5 -9q-54 0 -100 14.5t-79 45t-52 79t-19 117.5q0 62 18 109.5t49.5 79.5t74 48.5t92.5 16.5q49 0 92 -16.5
t74.5 -48.5t49.5 -80.5t18 -111.5q0 -27 -11 -37.5t-35 -10.5h-287q8 -57 38 -78t77 -21zM11 350q0 97 32.5 178t91.5 139.5t141.5 91.5t183.5 33t183.5 -33t141.5 -91.5t91.5 -139.5t32.5 -178t-32.5 -178t-91.5 -139.5t-141.5 -91.5t-183.5 -33t-183.5 33t-141.5 91.5
t-91.5 139.5t-32.5 178zM827 350q0 82 -27.5 149.5t-76 116t-116 75.5t-147.5 27t-147.5 -27t-116.5 -75.5t-76 -116t-27 -149.5t27 -150t76 -116.5t116.5 -75t147.5 -26.5t147.5 26.5t116 75t76 116.5t27.5 150z" />
    <glyph glyph-name="uni24D5" unicode="&#x24d5;" 
d="M11 350q0 97 32.5 178t91.5 139.5t141.5 91.5t183.5 33t183.5 -33t141.5 -91.5t91.5 -139.5t32.5 -178t-32.5 -178t-91.5 -139.5t-141.5 -91.5t-183.5 -33t-183.5 33t-141.5 91.5t-91.5 139.5t-32.5 178zM827 350q0 82 -27.5 149.5t-76 116t-116 75.5t-147.5 27
t-147.5 -27t-116.5 -75.5t-76 -116t-27 -149.5t27 -150t76 -116.5t116.5 -75t147.5 -26.5t147.5 26.5t116 75t76 116.5t27.5 150zM497 468h92q25 0 25 -26v-56q0 -26 -25 -26h-92v-231q0 -74 -17.5 -104t-50.5 -30h-41q-25 0 -25 26v339q-54 2 -78 17.5t-24 44.5v21
q0 25 26 25h76v73q0 73 39 105.5t112 32.5q28 0 58 -6t47 -15q18 -9 24.5 -27t2 -34.5t-19.5 -27t-40 -4.5q-10 2 -24 4t-25 1q-23 -2 -32 -17.5t-8 -47.5v-37z" />
    </font>
</defs>
</svg>
